<?xml version="1.0" encoding="utf-8" standalone="no"?>
<!DOCTYPE svg PUBLIC "-//W3C//DTD SVG 1.1//EN"
  "http://www.w3.org/Graphics/SVG/1.1/DTD/svg11.dtd">
<!-- Created with matplotlib (http://matplotlib.org/) -->
<svg height="155.747837pt" version="1.1" viewBox="0 0 252 155.747837" width="252pt" xmlns="http://www.w3.org/2000/svg" xmlns:xlink="http://www.w3.org/1999/xlink">
 <defs>
  <style type="text/css">
*{stroke-linecap:butt;stroke-linejoin:round;}
  </style>
 </defs>
 <g id="figure_1">
  <g id="patch_1">
   <path d="M 0 155.747837 
L 252 155.747837 
L 252 0 
L 0 0 
z
" style="fill:#ffffff;"/>
  </g>
  <g id="axes_1">
   <g id="patch_2">
    <path d="M 31.5 136.279357 
L 226.8 136.279357 
L 226.8 18.68974 
L 31.5 18.68974 
z
" style="fill:#ffffff;"/>
   </g>
   <g id="patch_3">
    <path clip-path="url(#pdef6ba3ad1)" d="M 40.377273 136.279357 
L 44.000649 136.279357 
L 44.000649 136.279357 
L 40.377273 136.279357 
z
" style="fill:#66a61e;"/>
   </g>
   <g id="patch_4">
    <path clip-path="url(#pdef6ba3ad1)" d="M 44.000649 136.279357 
L 47.624026 136.279357 
L 47.624026 136.279357 
L 44.000649 136.279357 
z
" style="fill:#66a61e;"/>
   </g>
   <g id="patch_5">
    <path clip-path="url(#pdef6ba3ad1)" d="M 47.624026 136.279357 
L 51.247403 136.279357 
L 51.247403 136.279357 
L 47.624026 136.279357 
z
" style="fill:#66a61e;"/>
   </g>
   <g id="patch_6">
    <path clip-path="url(#pdef6ba3ad1)" d="M 51.247403 136.279357 
L 54.870779 136.279357 
L 54.870779 136.279357 
L 51.247403 136.279357 
z
" style="fill:#66a61e;"/>
   </g>
   <g id="patch_7">
    <path clip-path="url(#pdef6ba3ad1)" d="M 54.870779 136.279357 
L 58.494156 136.279357 
L 58.494156 136.279357 
L 54.870779 136.279357 
z
" style="fill:#66a61e;"/>
   </g>
   <g id="patch_8">
    <path clip-path="url(#pdef6ba3ad1)" d="M 58.494156 136.279357 
L 62.117532 136.279357 
L 62.117532 136.248101 
L 58.494156 136.248101 
z
" style="fill:#66a61e;"/>
   </g>
   <g id="patch_9">
    <path clip-path="url(#pdef6ba3ad1)" d="M 62.117532 136.279357 
L 65.740909 136.279357 
L 65.740909 136.185589 
L 62.117532 136.185589 
z
" style="fill:#66a61e;"/>
   </g>
   <g id="patch_10">
    <path clip-path="url(#pdef6ba3ad1)" d="M 65.740909 136.279357 
L 69.364286 136.279357 
L 69.364286 136.279357 
L 65.740909 136.279357 
z
" style="fill:#66a61e;"/>
   </g>
   <g id="patch_11">
    <path clip-path="url(#pdef6ba3ad1)" d="M 69.364286 136.279357 
L 72.987662 136.279357 
L 72.987662 136.060565 
L 69.364286 136.060565 
z
" style="fill:#66a61e;"/>
   </g>
   <g id="patch_12">
    <path clip-path="url(#pdef6ba3ad1)" d="M 72.987662 136.279357 
L 76.611039 136.279357 
L 76.611039 136.123077 
L 72.987662 136.123077 
z
" style="fill:#66a61e;"/>
   </g>
   <g id="patch_13">
    <path clip-path="url(#pdef6ba3ad1)" d="M 76.611039 136.279357 
L 80.234416 136.279357 
L 80.234416 135.966798 
L 76.611039 135.966798 
z
" style="fill:#66a61e;"/>
   </g>
   <g id="patch_14">
    <path clip-path="url(#pdef6ba3ad1)" d="M 80.234416 136.279357 
L 83.857792 136.279357 
L 83.857792 136.02931 
L 80.234416 136.02931 
z
" style="fill:#66a61e;"/>
   </g>
   <g id="patch_15">
    <path clip-path="url(#pdef6ba3ad1)" d="M 83.857792 136.279357 
L 87.481169 136.279357 
L 87.481169 136.091821 
L 83.857792 136.091821 
z
" style="fill:#66a61e;"/>
   </g>
   <g id="patch_16">
    <path clip-path="url(#pdef6ba3ad1)" d="M 87.481169 136.279357 
L 91.104545 136.279357 
L 91.104545 135.935542 
L 87.481169 135.935542 
z
" style="fill:#66a61e;"/>
   </g>
   <g id="patch_17">
    <path clip-path="url(#pdef6ba3ad1)" d="M 91.104545 136.279357 
L 94.727922 136.279357 
L 94.727922 135.935542 
L 91.104545 135.935542 
z
" style="fill:#66a61e;"/>
   </g>
   <g id="patch_18">
    <path clip-path="url(#pdef6ba3ad1)" d="M 94.727922 136.279357 
L 98.351299 136.279357 
L 98.351299 135.71675 
L 94.727922 135.71675 
z
" style="fill:#66a61e;"/>
   </g>
   <g id="patch_19">
    <path clip-path="url(#pdef6ba3ad1)" d="M 98.351299 136.279357 
L 101.974675 136.279357 
L 101.974675 135.685494 
L 98.351299 135.685494 
z
" style="fill:#66a61e;"/>
   </g>
   <g id="patch_20">
    <path clip-path="url(#pdef6ba3ad1)" d="M 101.974675 136.279357 
L 105.598052 136.279357 
L 105.598052 135.685494 
L 101.974675 135.685494 
z
" style="fill:#66a61e;"/>
   </g>
   <g id="patch_21">
    <path clip-path="url(#pdef6ba3ad1)" d="M 105.598052 136.279357 
L 109.221429 136.279357 
L 109.221429 135.71675 
L 105.598052 135.71675 
z
" style="fill:#66a61e;"/>
   </g>
   <g id="patch_22">
    <path clip-path="url(#pdef6ba3ad1)" d="M 109.221429 136.279357 
L 112.844805 136.279357 
L 112.844805 135.279166 
L 109.221429 135.279166 
z
" style="fill:#66a61e;"/>
   </g>
   <g id="patch_23">
    <path clip-path="url(#pdef6ba3ad1)" d="M 112.844805 136.279357 
L 116.468182 136.279357 
L 116.468182 135.185399 
L 112.844805 135.185399 
z
" style="fill:#66a61e;"/>
   </g>
   <g id="patch_24">
    <path clip-path="url(#pdef6ba3ad1)" d="M 116.468182 136.279357 
L 120.091558 136.279357 
L 120.091558 135.091631 
L 116.468182 135.091631 
z
" style="fill:#66a61e;"/>
   </g>
   <g id="patch_25">
    <path clip-path="url(#pdef6ba3ad1)" d="M 120.091558 136.279357 
L 123.714935 136.279357 
L 123.714935 134.872839 
L 120.091558 134.872839 
z
" style="fill:#66a61e;"/>
   </g>
   <g id="patch_26">
    <path clip-path="url(#pdef6ba3ad1)" d="M 123.714935 136.279357 
L 127.338312 136.279357 
L 127.338312 135.185399 
L 123.714935 135.185399 
z
" style="fill:#66a61e;"/>
   </g>
   <g id="patch_27">
    <path clip-path="url(#pdef6ba3ad1)" d="M 127.338312 136.279357 
L 130.961688 136.279357 
L 130.961688 134.997863 
L 127.338312 134.997863 
z
" style="fill:#66a61e;"/>
   </g>
   <g id="patch_28">
    <path clip-path="url(#pdef6ba3ad1)" d="M 130.961688 136.279357 
L 134.585065 136.279357 
L 134.585065 134.24772 
L 130.961688 134.24772 
z
" style="fill:#66a61e;"/>
   </g>
   <g id="patch_29">
    <path clip-path="url(#pdef6ba3ad1)" d="M 134.585065 136.279357 
L 138.208442 136.279357 
L 138.208442 134.810327 
L 134.585065 134.810327 
z
" style="fill:#66a61e;"/>
   </g>
   <g id="patch_30">
    <path clip-path="url(#pdef6ba3ad1)" d="M 138.208442 136.279357 
L 141.831818 136.279357 
L 141.831818 133.903904 
L 138.208442 133.903904 
z
" style="fill:#66a61e;"/>
   </g>
   <g id="patch_31">
    <path clip-path="url(#pdef6ba3ad1)" d="M 141.831818 136.279357 
L 145.455195 136.279357 
L 145.455195 133.77888 
L 141.831818 133.77888 
z
" style="fill:#66a61e;"/>
   </g>
   <g id="patch_32">
    <path clip-path="url(#pdef6ba3ad1)" d="M 145.455195 136.279357 
L 149.078571 136.279357 
L 149.078571 133.435065 
L 145.455195 133.435065 
z
" style="fill:#66a61e;"/>
   </g>
   <g id="patch_33">
    <path clip-path="url(#pdef6ba3ad1)" d="M 149.078571 136.279357 
L 152.701948 136.279357 
L 152.701948 132.77869 
L 149.078571 132.77869 
z
" style="fill:#66a61e;"/>
   </g>
   <g id="patch_34">
    <path clip-path="url(#pdef6ba3ad1)" d="M 152.701948 136.279357 
L 156.325325 136.279357 
L 156.325325 131.966034 
L 152.701948 131.966034 
z
" style="fill:#66a61e;"/>
   </g>
   <g id="patch_35">
    <path clip-path="url(#pdef6ba3ad1)" d="M 156.325325 136.279357 
L 159.948701 136.279357 
L 159.948701 131.966034 
L 156.325325 131.966034 
z
" style="fill:#66a61e;"/>
   </g>
   <g id="patch_36">
    <path clip-path="url(#pdef6ba3ad1)" d="M 159.948701 136.279357 
L 163.572078 136.279357 
L 163.572078 130.497004 
L 159.948701 130.497004 
z
" style="fill:#66a61e;"/>
   </g>
   <g id="patch_37">
    <path clip-path="url(#pdef6ba3ad1)" d="M 163.572078 136.279357 
L 167.195455 136.279357 
L 167.195455 130.622028 
L 163.572078 130.622028 
z
" style="fill:#66a61e;"/>
   </g>
   <g id="patch_38">
    <path clip-path="url(#pdef6ba3ad1)" d="M 167.195455 136.279357 
L 170.818831 136.279357 
L 170.818831 127.965271 
L 167.195455 127.965271 
z
" style="fill:#66a61e;"/>
   </g>
   <g id="patch_39">
    <path clip-path="url(#pdef6ba3ad1)" d="M 170.818831 136.279357 
L 174.442208 136.279357 
L 174.442208 126.871313 
L 170.818831 126.871313 
z
" style="fill:#66a61e;"/>
   </g>
   <g id="patch_40">
    <path clip-path="url(#pdef6ba3ad1)" d="M 174.442208 136.279357 
L 178.065584 136.279357 
L 178.065584 125.246003 
L 174.442208 125.246003 
z
" style="fill:#66a61e;"/>
   </g>
   <g id="patch_41">
    <path clip-path="url(#pdef6ba3ad1)" d="M 178.065584 136.279357 
L 181.688961 136.279357 
L 181.688961 123.276877 
L 178.065584 123.276877 
z
" style="fill:#66a61e;"/>
   </g>
   <g id="patch_42">
    <path clip-path="url(#pdef6ba3ad1)" d="M 181.688961 136.279357 
L 185.312338 136.279357 
L 185.312338 119.61993 
L 181.688961 119.61993 
z
" style="fill:#66a61e;"/>
   </g>
   <g id="patch_43">
    <path clip-path="url(#pdef6ba3ad1)" d="M 185.312338 136.279357 
L 188.935714 136.279357 
L 188.935714 118.901042 
L 185.312338 118.901042 
z
" style="fill:#66a61e;"/>
   </g>
   <g id="patch_44">
    <path clip-path="url(#pdef6ba3ad1)" d="M 188.935714 136.279357 
L 192.559091 136.279357 
L 192.559091 112.181011 
L 188.935714 112.181011 
z
" style="fill:#66a61e;"/>
   </g>
   <g id="patch_45">
    <path clip-path="url(#pdef6ba3ad1)" d="M 192.559091 136.279357 
L 196.182468 136.279357 
L 196.182468 104.5233 
L 192.559091 104.5233 
z
" style="fill:#66a61e;"/>
   </g>
   <g id="patch_46">
    <path clip-path="url(#pdef6ba3ad1)" d="M 196.182468 136.279357 
L 199.805844 136.279357 
L 199.805844 98.615923 
L 196.182468 98.615923 
z
" style="fill:#66a61e;"/>
   </g>
   <g id="patch_47">
    <path clip-path="url(#pdef6ba3ad1)" d="M 199.805844 136.279357 
L 203.429221 136.279357 
L 203.429221 88.582759 
L 199.805844 88.582759 
z
" style="fill:#66a61e;"/>
   </g>
   <g id="patch_48">
    <path clip-path="url(#pdef6ba3ad1)" d="M 203.429221 136.279357 
L 207.052597 136.279357 
L 207.052597 72.642219 
L 203.429221 72.642219 
z
" style="fill:#66a61e;"/>
   </g>
   <g id="patch_49">
    <path clip-path="url(#pdef6ba3ad1)" d="M 207.052597 136.279357 
L 210.675974 136.279357 
L 210.675974 54.263713 
L 207.052597 54.263713 
z
" style="fill:#66a61e;"/>
   </g>
   <g id="patch_50">
    <path clip-path="url(#pdef6ba3ad1)" d="M 210.675974 136.279357 
L 214.299351 136.279357 
L 214.299351 30.727974 
L 210.675974 30.727974 
z
" style="fill:#66a61e;"/>
   </g>
   <g id="patch_51">
    <path clip-path="url(#pdef6ba3ad1)" d="M 214.299351 136.279357 
L 217.922727 136.279357 
L 217.922727 24.289246 
L 214.299351 24.289246 
z
" style="fill:#66a61e;"/>
   </g>
   <g id="matplotlib.axis_1">
    <g id="xtick_1">
     <g id="line2d_1">
      <defs>
       <path d="M 0 0 
L 0 -4 
" id="m0b2bc63bc7" style="stroke:#333333;stroke-width:0.8;"/>
      </defs>
      <g>
       <use style="fill:#333333;stroke:#333333;stroke-width:0.8;" x="40.377273" xlink:href="#m0b2bc63bc7" y="136.279357"/>
      </g>
     </g>
     <g id="text_1">
      <text style="fill:#333333;font-family:DejaVu Sans;font-size:10px;font-style:normal;font-weight:normal;text-anchor:middle;" transform="rotate(-0, 40.377273, 147.377795)" x="40.377273" y="147.377795">0.0</text>
     </g>
    </g>
    <g id="xtick_2">
     <g id="line2d_2">
      <g>
       <use style="fill:#333333;stroke:#333333;stroke-width:0.8;" x="75.886364" xlink:href="#m0b2bc63bc7" y="136.279357"/>
      </g>
     </g>
     <g id="text_2">
      <text style="fill:#333333;font-family:DejaVu Sans;font-size:10px;font-style:normal;font-weight:normal;text-anchor:middle;" transform="rotate(-0, 75.886364, 147.377795)" x="75.886364" y="147.377795">0.2</text>
     </g>
    </g>
    <g id="xtick_3">
     <g id="line2d_3">
      <g>
       <use style="fill:#333333;stroke:#333333;stroke-width:0.8;" x="111.395455" xlink:href="#m0b2bc63bc7" y="136.279357"/>
      </g>
     </g>
     <g id="text_3">
      <text style="fill:#333333;font-family:DejaVu Sans;font-size:10px;font-style:normal;font-weight:normal;text-anchor:middle;" transform="rotate(-0, 111.395455, 147.377795)" x="111.395455" y="147.377795">0.4</text>
     </g>
    </g>
    <g id="xtick_4">
     <g id="line2d_4">
      <g>
       <use style="fill:#333333;stroke:#333333;stroke-width:0.8;" x="146.904545" xlink:href="#m0b2bc63bc7" y="136.279357"/>
      </g>
     </g>
     <g id="text_4">
      <text style="fill:#333333;font-family:DejaVu Sans;font-size:10px;font-style:normal;font-weight:normal;text-anchor:middle;" transform="rotate(-0, 146.904545, 147.377795)" x="146.904545" y="147.377795">0.6</text>
     </g>
    </g>
    <g id="xtick_5">
     <g id="line2d_5">
      <g>
       <use style="fill:#333333;stroke:#333333;stroke-width:0.8;" x="182.413636" xlink:href="#m0b2bc63bc7" y="136.279357"/>
      </g>
     </g>
     <g id="text_5">
      <text style="fill:#333333;font-family:DejaVu Sans;font-size:10px;font-style:normal;font-weight:normal;text-anchor:middle;" transform="rotate(-0, 182.413636, 147.377795)" x="182.413636" y="147.377795">0.8</text>
     </g>
    </g>
    <g id="xtick_6">
     <g id="line2d_6">
      <g>
       <use style="fill:#333333;stroke:#333333;stroke-width:0.8;" x="217.922727" xlink:href="#m0b2bc63bc7" y="136.279357"/>
      </g>
     </g>
     <g id="text_6">
      <text style="fill:#333333;font-family:DejaVu Sans;font-size:10px;font-style:normal;font-weight:normal;text-anchor:middle;" transform="rotate(-0, 217.922727, 147.377795)" x="217.922727" y="147.377795">1.0</text>
     </g>
    </g>
    <g id="text_7">
     <text style="fill:#333333;font-family:DejaVu Sans;font-size:10px;font-style:normal;font-weight:normal;text-anchor:middle;" transform="rotate(-0, 129.15, 161.05592)" x="129.15" y="161.05592">Proportion of hairpin-coded ribozyme UMIs</text>
    </g>
   </g>
   <g id="matplotlib.axis_2">
    <g id="ytick_1">
     <g id="line2d_7">
      <defs>
       <path d="M 0 0 
L 4 0 
" id="m17c4109a18" style="stroke:#333333;stroke-width:0.8;"/>
      </defs>
      <g>
       <use style="fill:#333333;stroke:#333333;stroke-width:0.8;" x="31.5" xlink:href="#m17c4109a18" y="136.279357"/>
      </g>
     </g>
     <g id="text_8">
      <text style="fill:#333333;font-family:DejaVu Sans;font-size:10px;font-style:normal;font-weight:normal;text-anchor:end;" transform="rotate(-0, 28, 140.078576)" x="28" y="140.078576">0</text>
     </g>
    </g>
    <g id="ytick_2">
     <g id="line2d_8">
      <g>
       <use style="fill:#333333;stroke:#333333;stroke-width:0.8;" x="31.5" xlink:href="#m17c4109a18" y="105.023395"/>
      </g>
     </g>
     <g id="text_9">
      <text style="fill:#333333;font-family:DejaVu Sans;font-size:10px;font-style:normal;font-weight:normal;text-anchor:end;" transform="rotate(-0, 28, 108.822614)" x="28" y="108.822614">1000</text>
     </g>
    </g>
    <g id="ytick_3">
     <g id="line2d_9">
      <g>
       <use style="fill:#333333;stroke:#333333;stroke-width:0.8;" x="31.5" xlink:href="#m17c4109a18" y="73.767434"/>
      </g>
     </g>
     <g id="text_10">
      <text style="fill:#333333;font-family:DejaVu Sans;font-size:10px;font-style:normal;font-weight:normal;text-anchor:end;" transform="rotate(-0, 28, 77.566652)" x="28" y="77.566652">2000</text>
     </g>
    </g>
    <g id="ytick_4">
     <g id="line2d_10">
      <g>
       <use style="fill:#333333;stroke:#333333;stroke-width:0.8;" x="31.5" xlink:href="#m17c4109a18" y="42.511472"/>
      </g>
     </g>
     <g id="text_11">
      <text style="fill:#333333;font-family:DejaVu Sans;font-size:10px;font-style:normal;font-weight:normal;text-anchor:end;" transform="rotate(-0, 28, 46.31069)" x="28" y="46.31069">3000</text>
     </g>
    </g>
    <g id="text_12">
     <text style="fill:#333333;font-family:DejaVu Sans;font-size:10px;font-style:normal;font-weight:normal;text-anchor:middle;" transform="rotate(-90, -3.529688, 77.484549)" x="-3.529688" y="77.484549">Number of barcodes</text>
    </g>
   </g>
   <g id="patch_52">
    <path d="M 31.5 136.279357 
L 31.5 18.68974 
" style="fill:none;stroke:#333333;stroke-linecap:square;stroke-linejoin:miter;"/>
   </g>
   <g id="patch_53">
    <path d="M 31.5 136.279357 
L 226.8 136.279357 
" style="fill:none;stroke:#333333;stroke-linecap:square;stroke-linejoin:miter;"/>
   </g>
  </g>
 </g>
 <defs>
  <clipPath id="pdef6ba3ad1">
   <rect height="117.589617" width="195.3" x="31.5" y="18.68974"/>
  </clipPath>
 </defs>
</svg>
