<?xml version="1.0" encoding="utf-8" standalone="no"?>
<!DOCTYPE svg PUBLIC "-//W3C//DTD SVG 1.1//EN"
  "http://www.w3.org/Graphics/SVG/1.1/DTD/svg11.dtd">
<!-- Created with matplotlib (http://matplotlib.org/) -->
<svg height="155.747837pt" version="1.1" viewBox="0 0 252 155.747837" width="252pt" xmlns="http://www.w3.org/2000/svg" xmlns:xlink="http://www.w3.org/1999/xlink">
 <defs>
  <style type="text/css">
*{stroke-linecap:butt;stroke-linejoin:round;}
  </style>
 </defs>
 <g id="figure_1">
  <g id="patch_1">
   <path d="M 0 155.747837 
L 252 155.747837 
L 252 0 
L 0 0 
z
" style="fill:#ffffff;"/>
  </g>
  <g id="axes_1">
   <g id="patch_2">
    <path d="M 31.5 136.279357 
L 226.8 136.279357 
L 226.8 18.68974 
L 31.5 18.68974 
z
" style="fill:#ffffff;"/>
   </g>
   <g id="patch_3">
    <path clip-path="url(#p8f89eadf9b)" d="M 40.377273 136.279357 
L 44.604545 136.279357 
L 44.604545 136.279357 
L 40.377273 136.279357 
z
" style="fill:#66a61e;"/>
   </g>
   <g id="patch_4">
    <path clip-path="url(#p8f89eadf9b)" d="M 50.945455 136.279357 
L 55.172727 136.279357 
L 55.172727 133.370523 
L 50.945455 133.370523 
z
" style="fill:#66a61e;"/>
   </g>
   <g id="patch_5">
    <path clip-path="url(#p8f89eadf9b)" d="M 61.513636 136.279357 
L 65.740909 136.279357 
L 65.740909 109.565575 
L 61.513636 109.565575 
z
" style="fill:#66a61e;"/>
   </g>
   <g id="patch_6">
    <path clip-path="url(#p8f89eadf9b)" d="M 72.081818 136.279357 
L 76.309091 136.279357 
L 76.309091 61.272993 
L 72.081818 61.272993 
z
" style="fill:#66a61e;"/>
   </g>
   <g id="patch_7">
    <path clip-path="url(#p8f89eadf9b)" d="M 82.65 136.279357 
L 86.877273 136.279357 
L 86.877273 42.899848 
L 82.65 42.899848 
z
" style="fill:#66a61e;"/>
   </g>
   <g id="patch_8">
    <path clip-path="url(#p8f89eadf9b)" d="M 93.218182 136.279357 
L 97.445455 136.279357 
L 97.445455 27.821402 
L 93.218182 27.821402 
z
" style="fill:#66a61e;"/>
   </g>
   <g id="patch_9">
    <path clip-path="url(#p8f89eadf9b)" d="M 103.786364 136.279357 
L 108.013636 136.279357 
L 108.013636 69.287128 
L 103.786364 69.287128 
z
" style="fill:#66a61e;"/>
   </g>
   <g id="patch_10">
    <path clip-path="url(#p8f89eadf9b)" d="M 114.354545 136.279357 
L 118.581818 136.279357 
L 118.581818 89.352147 
L 114.354545 89.352147 
z
" style="fill:#66a61e;"/>
   </g>
   <g id="patch_11">
    <path clip-path="url(#p8f89eadf9b)" d="M 124.922727 136.279357 
L 129.15 136.279357 
L 129.15 90.539426 
L 124.922727 90.539426 
z
" style="fill:#66a61e;"/>
   </g>
   <g id="patch_12">
    <path clip-path="url(#p8f89eadf9b)" d="M 135.490909 136.279357 
L 139.718182 136.279357 
L 139.718182 85.790309 
L 135.490909 85.790309 
z
" style="fill:#66a61e;"/>
   </g>
   <g id="patch_13">
    <path clip-path="url(#p8f89eadf9b)" d="M 146.059091 136.279357 
L 150.286364 136.279357 
L 150.286364 109.921759 
L 146.059091 109.921759 
z
" style="fill:#66a61e;"/>
   </g>
   <g id="patch_14">
    <path clip-path="url(#p8f89eadf9b)" d="M 156.627273 136.279357 
L 160.854545 136.279357 
L 160.854545 113.038367 
L 156.627273 113.038367 
z
" style="fill:#66a61e;"/>
   </g>
   <g id="patch_15">
    <path clip-path="url(#p8f89eadf9b)" d="M 167.195455 136.279357 
L 171.422727 136.279357 
L 171.422727 122.5366 
L 167.195455 122.5366 
z
" style="fill:#66a61e;"/>
   </g>
   <g id="patch_16">
    <path clip-path="url(#p8f89eadf9b)" d="M 177.763636 136.279357 
L 181.990909 136.279357 
L 181.990909 128.82918 
L 177.763636 128.82918 
z
" style="fill:#66a61e;"/>
   </g>
   <g id="patch_17">
    <path clip-path="url(#p8f89eadf9b)" d="M 188.331818 136.279357 
L 192.559091 136.279357 
L 192.559091 131.441194 
L 188.331818 131.441194 
z
" style="fill:#66a61e;"/>
   </g>
   <g id="patch_18">
    <path clip-path="url(#p8f89eadf9b)" d="M 198.9 136.279357 
L 203.127273 136.279357 
L 203.127273 133.904799 
L 198.9 133.904799 
z
" style="fill:#66a61e;"/>
   </g>
   <g id="patch_19">
    <path clip-path="url(#p8f89eadf9b)" d="M 209.468182 136.279357 
L 213.695455 136.279357 
L 213.695455 136.130947 
L 209.468182 136.130947 
z
" style="fill:#66a61e;"/>
   </g>
   <g id="patch_20">
    <path clip-path="url(#p8f89eadf9b)" d="M 44.604545 136.279357 
L 48.831818 136.279357 
L 48.831818 136.279357 
L 44.604545 136.279357 
z
" style="fill:#666666;"/>
   </g>
   <g id="patch_21">
    <path clip-path="url(#p8f89eadf9b)" d="M 55.172727 136.279357 
L 59.4 136.279357 
L 59.4 101.788896 
L 55.172727 101.788896 
z
" style="fill:#666666;"/>
   </g>
   <g id="patch_22">
    <path clip-path="url(#p8f89eadf9b)" d="M 65.740909 136.279357 
L 69.968182 136.279357 
L 69.968182 41.089247 
L 65.740909 41.089247 
z
" style="fill:#666666;"/>
   </g>
   <g id="patch_23">
    <path clip-path="url(#p8f89eadf9b)" d="M 76.309091 136.279357 
L 80.536364 136.279357 
L 80.536364 24.289246 
L 76.309091 24.289246 
z
" style="fill:#666666;"/>
   </g>
   <g id="patch_24">
    <path clip-path="url(#p8f89eadf9b)" d="M 86.877273 136.279357 
L 91.104545 136.279357 
L 91.104545 46.699141 
L 86.877273 46.699141 
z
" style="fill:#666666;"/>
   </g>
   <g id="patch_25">
    <path clip-path="url(#p8f89eadf9b)" d="M 97.445455 136.279357 
L 101.672727 136.279357 
L 101.672727 56.612922 
L 97.445455 56.612922 
z
" style="fill:#666666;"/>
   </g>
   <g id="patch_26">
    <path clip-path="url(#p8f89eadf9b)" d="M 108.013636 136.279357 
L 112.240909 136.279357 
L 112.240909 76.974761 
L 108.013636 76.974761 
z
" style="fill:#666666;"/>
   </g>
   <g id="patch_27">
    <path clip-path="url(#p8f89eadf9b)" d="M 118.581818 136.279357 
L 122.809091 136.279357 
L 122.809091 98.256741 
L 118.581818 98.256741 
z
" style="fill:#666666;"/>
   </g>
   <g id="patch_28">
    <path clip-path="url(#p8f89eadf9b)" d="M 129.15 136.279357 
L 133.377273 136.279357 
L 133.377273 110.010805 
L 129.15 110.010805 
z
" style="fill:#666666;"/>
   </g>
   <g id="patch_29">
    <path clip-path="url(#p8f89eadf9b)" d="M 139.718182 136.279357 
L 143.945455 136.279357 
L 143.945455 107.012925 
L 139.718182 107.012925 
z
" style="fill:#666666;"/>
   </g>
   <g id="patch_30">
    <path clip-path="url(#p8f89eadf9b)" d="M 150.286364 136.279357 
L 154.513636 136.279357 
L 154.513636 120.993137 
L 150.286364 120.993137 
z
" style="fill:#666666;"/>
   </g>
   <g id="patch_31">
    <path clip-path="url(#p8f89eadf9b)" d="M 160.854545 136.279357 
L 165.081818 136.279357 
L 165.081818 126.929533 
L 160.854545 126.929533 
z
" style="fill:#666666;"/>
   </g>
   <g id="patch_32">
    <path clip-path="url(#p8f89eadf9b)" d="M 171.422727 136.279357 
L 175.65 136.279357 
L 175.65 131.025647 
L 171.422727 131.025647 
z
" style="fill:#666666;"/>
   </g>
   <g id="patch_33">
    <path clip-path="url(#p8f89eadf9b)" d="M 181.990909 136.279357 
L 186.218182 136.279357 
L 186.218182 135.329534 
L 181.990909 135.329534 
z
" style="fill:#666666;"/>
   </g>
   <g id="patch_34">
    <path clip-path="url(#p8f89eadf9b)" d="M 192.559091 136.279357 
L 196.786364 136.279357 
L 196.786364 136.130947 
L 192.559091 136.130947 
z
" style="fill:#666666;"/>
   </g>
   <g id="patch_35">
    <path clip-path="url(#p8f89eadf9b)" d="M 203.127273 136.279357 
L 207.354545 136.279357 
L 207.354545 136.279357 
L 203.127273 136.279357 
z
" style="fill:#666666;"/>
   </g>
   <g id="patch_36">
    <path clip-path="url(#p8f89eadf9b)" d="M 213.695455 136.279357 
L 217.922727 136.279357 
L 217.922727 136.279357 
L 213.695455 136.279357 
z
" style="fill:#666666;"/>
   </g>
   <g id="matplotlib.axis_1">
    <g id="xtick_1">
     <g id="line2d_1">
      <defs>
       <path d="M 0 0 
L 0 -4 
" id="m4c3a65702b" style="stroke:#333333;stroke-width:0.8;"/>
      </defs>
      <g>
       <use style="fill:#333333;stroke:#333333;stroke-width:0.8;" x="44.604545" xlink:href="#m4c3a65702b" y="136.279357"/>
      </g>
     </g>
     <g id="text_1">
      <text style="fill:#333333;font-family:DejaVu Sans;font-size:10px;font-style:normal;font-weight:normal;text-anchor:middle;" transform="rotate(-0, 44.604545, 147.377795)" x="44.604545" y="147.377795">0</text>
     </g>
    </g>
    <g id="xtick_2">
     <g id="line2d_2">
      <g>
       <use style="fill:#333333;stroke:#333333;stroke-width:0.8;" x="55.172727" xlink:href="#m4c3a65702b" y="136.279357"/>
      </g>
     </g>
    </g>
    <g id="xtick_3">
     <g id="line2d_3">
      <g>
       <use style="fill:#333333;stroke:#333333;stroke-width:0.8;" x="65.740909" xlink:href="#m4c3a65702b" y="136.279357"/>
      </g>
     </g>
     <g id="text_2">
      <text style="fill:#333333;font-family:DejaVu Sans;font-size:10px;font-style:normal;font-weight:normal;text-anchor:middle;" transform="rotate(-0, 65.740909, 147.377795)" x="65.740909" y="147.377795">2</text>
     </g>
    </g>
    <g id="xtick_4">
     <g id="line2d_4">
      <g>
       <use style="fill:#333333;stroke:#333333;stroke-width:0.8;" x="76.309091" xlink:href="#m4c3a65702b" y="136.279357"/>
      </g>
     </g>
    </g>
    <g id="xtick_5">
     <g id="line2d_5">
      <g>
       <use style="fill:#333333;stroke:#333333;stroke-width:0.8;" x="86.877273" xlink:href="#m4c3a65702b" y="136.279357"/>
      </g>
     </g>
     <g id="text_3">
      <text style="fill:#333333;font-family:DejaVu Sans;font-size:10px;font-style:normal;font-weight:normal;text-anchor:middle;" transform="rotate(-0, 86.877273, 147.377795)" x="86.877273" y="147.377795">4</text>
     </g>
    </g>
    <g id="xtick_6">
     <g id="line2d_6">
      <g>
       <use style="fill:#333333;stroke:#333333;stroke-width:0.8;" x="97.445455" xlink:href="#m4c3a65702b" y="136.279357"/>
      </g>
     </g>
    </g>
    <g id="xtick_7">
     <g id="line2d_7">
      <g>
       <use style="fill:#333333;stroke:#333333;stroke-width:0.8;" x="108.013636" xlink:href="#m4c3a65702b" y="136.279357"/>
      </g>
     </g>
     <g id="text_4">
      <text style="fill:#333333;font-family:DejaVu Sans;font-size:10px;font-style:normal;font-weight:normal;text-anchor:middle;" transform="rotate(-0, 108.013636, 147.377795)" x="108.013636" y="147.377795">6</text>
     </g>
    </g>
    <g id="xtick_8">
     <g id="line2d_8">
      <g>
       <use style="fill:#333333;stroke:#333333;stroke-width:0.8;" x="118.581818" xlink:href="#m4c3a65702b" y="136.279357"/>
      </g>
     </g>
    </g>
    <g id="xtick_9">
     <g id="line2d_9">
      <g>
       <use style="fill:#333333;stroke:#333333;stroke-width:0.8;" x="129.15" xlink:href="#m4c3a65702b" y="136.279357"/>
      </g>
     </g>
     <g id="text_5">
      <text style="fill:#333333;font-family:DejaVu Sans;font-size:10px;font-style:normal;font-weight:normal;text-anchor:middle;" transform="rotate(-0, 129.15, 147.377795)" x="129.15" y="147.377795">8</text>
     </g>
    </g>
    <g id="xtick_10">
     <g id="line2d_10">
      <g>
       <use style="fill:#333333;stroke:#333333;stroke-width:0.8;" x="139.718182" xlink:href="#m4c3a65702b" y="136.279357"/>
      </g>
     </g>
    </g>
    <g id="xtick_11">
     <g id="line2d_11">
      <g>
       <use style="fill:#333333;stroke:#333333;stroke-width:0.8;" x="150.286364" xlink:href="#m4c3a65702b" y="136.279357"/>
      </g>
     </g>
     <g id="text_6">
      <text style="fill:#333333;font-family:DejaVu Sans;font-size:10px;font-style:normal;font-weight:normal;text-anchor:middle;" transform="rotate(-0, 150.286364, 147.377795)" x="150.286364" y="147.377795">10</text>
     </g>
    </g>
    <g id="xtick_12">
     <g id="line2d_12">
      <g>
       <use style="fill:#333333;stroke:#333333;stroke-width:0.8;" x="160.854545" xlink:href="#m4c3a65702b" y="136.279357"/>
      </g>
     </g>
    </g>
    <g id="xtick_13">
     <g id="line2d_13">
      <g>
       <use style="fill:#333333;stroke:#333333;stroke-width:0.8;" x="171.422727" xlink:href="#m4c3a65702b" y="136.279357"/>
      </g>
     </g>
     <g id="text_7">
      <text style="fill:#333333;font-family:DejaVu Sans;font-size:10px;font-style:normal;font-weight:normal;text-anchor:middle;" transform="rotate(-0, 171.422727, 147.377795)" x="171.422727" y="147.377795">12</text>
     </g>
    </g>
    <g id="xtick_14">
     <g id="line2d_14">
      <g>
       <use style="fill:#333333;stroke:#333333;stroke-width:0.8;" x="181.990909" xlink:href="#m4c3a65702b" y="136.279357"/>
      </g>
     </g>
    </g>
    <g id="xtick_15">
     <g id="line2d_15">
      <g>
       <use style="fill:#333333;stroke:#333333;stroke-width:0.8;" x="192.559091" xlink:href="#m4c3a65702b" y="136.279357"/>
      </g>
     </g>
     <g id="text_8">
      <text style="fill:#333333;font-family:DejaVu Sans;font-size:10px;font-style:normal;font-weight:normal;text-anchor:middle;" transform="rotate(-0, 192.559091, 147.377795)" x="192.559091" y="147.377795">14</text>
     </g>
    </g>
    <g id="xtick_16">
     <g id="line2d_16">
      <g>
       <use style="fill:#333333;stroke:#333333;stroke-width:0.8;" x="203.127273" xlink:href="#m4c3a65702b" y="136.279357"/>
      </g>
     </g>
    </g>
    <g id="xtick_17">
     <g id="line2d_17">
      <g>
       <use style="fill:#333333;stroke:#333333;stroke-width:0.8;" x="213.695455" xlink:href="#m4c3a65702b" y="136.279357"/>
      </g>
     </g>
     <g id="text_9">
      <text style="fill:#333333;font-family:DejaVu Sans;font-size:10px;font-style:normal;font-weight:normal;text-anchor:middle;" transform="rotate(-0, 213.695455, 147.377795)" x="213.695455" y="147.377795">16</text>
     </g>
    </g>
    <g id="text_10">
     <text style="fill:#333333;font-family:DejaVu Sans;font-size:10px;font-style:normal;font-weight:normal;text-anchor:middle;" transform="rotate(-0, 129.15, 161.05592)" x="129.15" y="161.05592">Number of nodes</text>
    </g>
   </g>
   <g id="matplotlib.axis_2">
    <g id="ytick_1">
     <g id="line2d_18">
      <defs>
       <path d="M 0 0 
L 4 0 
" id="m861f84afe5" style="stroke:#333333;stroke-width:0.8;"/>
      </defs>
      <g>
       <use style="fill:#333333;stroke:#333333;stroke-width:0.8;" x="31.5" xlink:href="#m861f84afe5" y="136.279357"/>
      </g>
     </g>
     <g id="text_11">
      <text style="fill:#333333;font-family:DejaVu Sans;font-size:10px;font-style:normal;font-weight:normal;text-anchor:end;" transform="rotate(-0, 28, 140.078576)" x="28" y="140.078576">0.00</text>
     </g>
    </g>
    <g id="ytick_2">
     <g id="line2d_19">
      <g>
       <use style="fill:#333333;stroke:#333333;stroke-width:0.8;" x="31.5" xlink:href="#m861f84afe5" y="106.540981"/>
      </g>
     </g>
     <g id="text_12">
      <text style="fill:#333333;font-family:DejaVu Sans;font-size:10px;font-style:normal;font-weight:normal;text-anchor:end;" transform="rotate(-0, 28, 110.3402)" x="28" y="110.3402">0.05</text>
     </g>
    </g>
    <g id="ytick_3">
     <g id="line2d_20">
      <g>
       <use style="fill:#333333;stroke:#333333;stroke-width:0.8;" x="31.5" xlink:href="#m861f84afe5" y="76.802605"/>
      </g>
     </g>
     <g id="text_13">
      <text style="fill:#333333;font-family:DejaVu Sans;font-size:10px;font-style:normal;font-weight:normal;text-anchor:end;" transform="rotate(-0, 28, 80.601824)" x="28" y="80.601824">0.10</text>
     </g>
    </g>
    <g id="ytick_4">
     <g id="line2d_21">
      <g>
       <use style="fill:#333333;stroke:#333333;stroke-width:0.8;" x="31.5" xlink:href="#m861f84afe5" y="47.064229"/>
      </g>
     </g>
     <g id="text_14">
      <text style="fill:#333333;font-family:DejaVu Sans;font-size:10px;font-style:normal;font-weight:normal;text-anchor:end;" transform="rotate(-0, 28, 50.863448)" x="28" y="50.863448">0.15</text>
     </g>
    </g>
    <g id="text_15">
     <text style="fill:#333333;font-family:DejaVu Sans;font-size:10px;font-style:normal;font-weight:normal;text-anchor:middle;" transform="rotate(-90, -0.345313, 77.484549)" x="-0.345313" y="77.484549">Proportion of networks</text>
    </g>
   </g>
   <g id="patch_37">
    <path d="M 31.5 136.279357 
L 31.5 18.68974 
" style="fill:none;stroke:#333333;stroke-linecap:square;stroke-linejoin:miter;"/>
   </g>
   <g id="patch_38">
    <path d="M 31.5 136.279357 
L 226.8 136.279357 
" style="fill:none;stroke:#333333;stroke-linecap:square;stroke-linejoin:miter;"/>
   </g>
   <g id="text_16">
    <!-- $r=0.78$ -->
    <g style="fill:#333333;" transform="translate(39.848864 18.68974)">
     <text>
      <tspan style="font-family:DejaVu Sans;font-size:10px;font-style:oblique;font-weight:oblique;" x="0" y="-0.578125">r</tspan>
      <tspan style="font-family:DejaVu Sans;font-size:10px;font-style:book;font-weight:book;" x="6.05957 16.386719 22.749023 25.927734 32.290039" y="-0.578125">=0.78</tspan>
     </text>
    </g>
   </g>
   <g id="legend_1">
    <g id="patch_39">
     <path d="M 141.140625 56.04599 
L 219.8 56.04599 
Q 221.8 56.04599 221.8 54.04599 
L 221.8 25.68974 
Q 221.8 23.68974 219.8 23.68974 
L 141.140625 23.68974 
Q 139.140625 23.68974 139.140625 25.68974 
L 139.140625 54.04599 
Q 139.140625 56.04599 141.140625 56.04599 
z
" style="fill:#ffffff;opacity:0.8;stroke:#ffffff;stroke-linejoin:miter;"/>
    </g>
    <g id="patch_40">
     <path d="M 143.140625 35.288178 
L 163.140625 35.288178 
L 163.140625 28.288178 
L 143.140625 28.288178 
z
" style="fill:#66a61e;"/>
    </g>
    <g id="text_17">
     <text style="fill:#333333;font-family:DejaVu Sans;font-size:10px;font-style:normal;font-weight:normal;text-anchor:start;" transform="rotate(-0, 171.140625, 35.288178)" x="171.140625" y="35.288178">Data</text>
    </g>
    <g id="patch_41">
     <path d="M 143.140625 49.966303 
L 163.140625 49.966303 
L 163.140625 42.966303 
L 143.140625 42.966303 
z
" style="fill:#666666;"/>
    </g>
    <g id="text_18">
     <text style="fill:#333333;font-family:DejaVu Sans;font-size:10px;font-style:normal;font-weight:normal;text-anchor:start;" transform="rotate(-0, 171.140625, 49.966303)" x="171.140625" y="49.966303">Expected</text>
    </g>
   </g>
  </g>
 </g>
 <defs>
  <clipPath id="p8f89eadf9b">
   <rect height="117.589617" width="195.3" x="31.5" y="18.68974"/>
  </clipPath>
 </defs>
</svg>
