<?xml version="1.0" encoding="utf-8" standalone="no"?>
<!DOCTYPE svg PUBLIC "-//W3C//DTD SVG 1.1//EN"
  "http://www.w3.org/Graphics/SVG/1.1/DTD/svg11.dtd">
<!-- Created with matplotlib (http://matplotlib.org/) -->
<svg height="155.747837pt" version="1.1" viewBox="0 0 252 155.747837" width="252pt" xmlns="http://www.w3.org/2000/svg" xmlns:xlink="http://www.w3.org/1999/xlink">
 <defs>
  <style type="text/css">
*{stroke-linecap:butt;stroke-linejoin:round;}
  </style>
 </defs>
 <g id="figure_1">
  <g id="patch_1">
   <path d="M 0 155.747837 
L 252 155.747837 
L 252 0 
L 0 0 
z
" style="fill:#ffffff;"/>
  </g>
  <g id="axes_1">
   <g id="patch_2">
    <path d="M 31.5 136.279357 
L 226.8 136.279357 
L 226.8 18.68974 
L 31.5 18.68974 
z
" style="fill:#ffffff;"/>
   </g>
   <g id="patch_3">
    <path clip-path="url(#pa227b7e030)" d="M 40.377273 136.279357 
L 45.925568 136.279357 
L 45.925568 136.279357 
L 40.377273 136.279357 
z
" style="fill:#d95f02;"/>
   </g>
   <g id="patch_4">
    <path clip-path="url(#pa227b7e030)" d="M 54.248011 136.279357 
L 59.796307 136.279357 
L 59.796307 119.404657 
L 54.248011 119.404657 
z
" style="fill:#d95f02;"/>
   </g>
   <g id="patch_5">
    <path clip-path="url(#pa227b7e030)" d="M 68.11875 136.279357 
L 73.667045 136.279357 
L 73.667045 24.289246 
L 68.11875 24.289246 
z
" style="fill:#d95f02;"/>
   </g>
   <g id="patch_6">
    <path clip-path="url(#pa227b7e030)" d="M 81.989489 136.279357 
L 87.537784 136.279357 
L 87.537784 49.480672 
L 81.989489 49.480672 
z
" style="fill:#d95f02;"/>
   </g>
   <g id="patch_7">
    <path clip-path="url(#pa227b7e030)" d="M 95.860227 136.279357 
L 101.408523 136.279357 
L 101.408523 114.808237 
L 95.860227 114.808237 
z
" style="fill:#d95f02;"/>
   </g>
   <g id="patch_8">
    <path clip-path="url(#pa227b7e030)" d="M 109.730966 136.279357 
L 115.279261 136.279357 
L 115.279261 129.42282 
L 109.730966 129.42282 
z
" style="fill:#d95f02;"/>
   </g>
   <g id="patch_9">
    <path clip-path="url(#pa227b7e030)" d="M 123.601705 136.279357 
L 129.15 136.279357 
L 129.15 133.485953 
L 123.601705 133.485953 
z
" style="fill:#d95f02;"/>
   </g>
   <g id="patch_10">
    <path clip-path="url(#pa227b7e030)" d="M 137.472443 136.279357 
L 143.020739 136.279357 
L 143.020739 134.15891 
L 137.472443 134.15891 
z
" style="fill:#d95f02;"/>
   </g>
   <g id="patch_11">
    <path clip-path="url(#pa227b7e030)" d="M 151.343182 136.279357 
L 156.891477 136.279357 
L 156.891477 133.803385 
L 151.343182 133.803385 
z
" style="fill:#d95f02;"/>
   </g>
   <g id="patch_12">
    <path clip-path="url(#pa227b7e030)" d="M 165.21392 136.279357 
L 170.762216 136.279357 
L 170.762216 134.57792 
L 165.21392 134.57792 
z
" style="fill:#d95f02;"/>
   </g>
   <g id="patch_13">
    <path clip-path="url(#pa227b7e030)" d="M 179.084659 136.279357 
L 184.632955 136.279357 
L 184.632955 135.301666 
L 179.084659 135.301666 
z
" style="fill:#d95f02;"/>
   </g>
   <g id="patch_14">
    <path clip-path="url(#pa227b7e030)" d="M 192.955398 136.279357 
L 198.503693 136.279357 
L 198.503693 135.961925 
L 192.955398 135.961925 
z
" style="fill:#d95f02;"/>
   </g>
   <g id="patch_15">
    <path clip-path="url(#pa227b7e030)" d="M 206.826136 136.279357 
L 212.374432 136.279357 
L 212.374432 136.228568 
L 206.826136 136.228568 
z
" style="fill:#d95f02;"/>
   </g>
   <g id="patch_16">
    <path clip-path="url(#pa227b7e030)" d="M 45.925568 136.279357 
L 51.473864 136.279357 
L 51.473864 131.642151 
L 45.925568 131.642151 
z
" style="fill:#666666;"/>
   </g>
   <g id="patch_17">
    <path clip-path="url(#pa227b7e030)" d="M 59.796307 136.279357 
L 65.344602 136.279357 
L 65.344602 118.967053 
L 59.796307 118.967053 
z
" style="fill:#666666;"/>
   </g>
   <g id="patch_18">
    <path clip-path="url(#pa227b7e030)" d="M 73.667045 136.279357 
L 79.215341 136.279357 
L 79.215341 36.424735 
L 73.667045 36.424735 
z
" style="fill:#666666;"/>
   </g>
   <g id="patch_19">
    <path clip-path="url(#pa227b7e030)" d="M 87.537784 136.279357 
L 93.08608 136.279357 
L 93.08608 28.386843 
L 87.537784 28.386843 
z
" style="fill:#666666;"/>
   </g>
   <g id="patch_20">
    <path clip-path="url(#pa227b7e030)" d="M 101.408523 136.279357 
L 106.956818 136.279357 
L 106.956818 113.711587 
L 101.408523 113.711587 
z
" style="fill:#666666;"/>
   </g>
   <g id="patch_21">
    <path clip-path="url(#pa227b7e030)" d="M 115.279261 136.279357 
L 120.827557 136.279357 
L 120.827557 134.115446 
L 115.279261 134.115446 
z
" style="fill:#666666;"/>
   </g>
   <g id="patch_22">
    <path clip-path="url(#pa227b7e030)" d="M 129.15 136.279357 
L 134.698295 136.279357 
L 134.698295 136.279357 
L 129.15 136.279357 
z
" style="fill:#666666;"/>
   </g>
   <g id="patch_23">
    <path clip-path="url(#pa227b7e030)" d="M 143.020739 136.279357 
L 148.569034 136.279357 
L 148.569034 136.279357 
L 143.020739 136.279357 
z
" style="fill:#666666;"/>
   </g>
   <g id="patch_24">
    <path clip-path="url(#pa227b7e030)" d="M 156.891477 136.279357 
L 162.439773 136.279357 
L 162.439773 136.279357 
L 156.891477 136.279357 
z
" style="fill:#666666;"/>
   </g>
   <g id="patch_25">
    <path clip-path="url(#pa227b7e030)" d="M 170.762216 136.279357 
L 176.310511 136.279357 
L 176.310511 136.279357 
L 170.762216 136.279357 
z
" style="fill:#666666;"/>
   </g>
   <g id="patch_26">
    <path clip-path="url(#pa227b7e030)" d="M 184.632955 136.279357 
L 190.18125 136.279357 
L 190.18125 136.279357 
L 184.632955 136.279357 
z
" style="fill:#666666;"/>
   </g>
   <g id="patch_27">
    <path clip-path="url(#pa227b7e030)" d="M 198.503693 136.279357 
L 204.051989 136.279357 
L 204.051989 136.279357 
L 198.503693 136.279357 
z
" style="fill:#666666;"/>
   </g>
   <g id="patch_28">
    <path clip-path="url(#pa227b7e030)" d="M 212.374432 136.279357 
L 217.922727 136.279357 
L 217.922727 136.279357 
L 212.374432 136.279357 
z
" style="fill:#666666;"/>
   </g>
   <g id="matplotlib.axis_1">
    <g id="xtick_1">
     <g id="line2d_1">
      <defs>
       <path d="M 0 0 
L 0 -4 
" id="mfaa7d09cef" style="stroke:#333333;stroke-width:0.8;"/>
      </defs>
      <g>
       <use style="fill:#333333;stroke:#333333;stroke-width:0.8;" x="45.925568" xlink:href="#mfaa7d09cef" y="136.279357"/>
      </g>
     </g>
     <g id="text_1">
      <text style="fill:#333333;font-family:DejaVu Sans;font-size:10px;font-style:normal;font-weight:normal;text-anchor:middle;" transform="rotate(-0, 45.925568, 147.377795)" x="45.925568" y="147.377795">0</text>
     </g>
    </g>
    <g id="xtick_2">
     <g id="line2d_2">
      <g>
       <use style="fill:#333333;stroke:#333333;stroke-width:0.8;" x="59.796307" xlink:href="#mfaa7d09cef" y="136.279357"/>
      </g>
     </g>
    </g>
    <g id="xtick_3">
     <g id="line2d_3">
      <g>
       <use style="fill:#333333;stroke:#333333;stroke-width:0.8;" x="73.667045" xlink:href="#mfaa7d09cef" y="136.279357"/>
      </g>
     </g>
     <g id="text_2">
      <text style="fill:#333333;font-family:DejaVu Sans;font-size:10px;font-style:normal;font-weight:normal;text-anchor:middle;" transform="rotate(-0, 73.667045, 147.377795)" x="73.667045" y="147.377795">2</text>
     </g>
    </g>
    <g id="xtick_4">
     <g id="line2d_4">
      <g>
       <use style="fill:#333333;stroke:#333333;stroke-width:0.8;" x="87.537784" xlink:href="#mfaa7d09cef" y="136.279357"/>
      </g>
     </g>
    </g>
    <g id="xtick_5">
     <g id="line2d_5">
      <g>
       <use style="fill:#333333;stroke:#333333;stroke-width:0.8;" x="101.408523" xlink:href="#mfaa7d09cef" y="136.279357"/>
      </g>
     </g>
     <g id="text_3">
      <text style="fill:#333333;font-family:DejaVu Sans;font-size:10px;font-style:normal;font-weight:normal;text-anchor:middle;" transform="rotate(-0, 101.408523, 147.377795)" x="101.408523" y="147.377795">4</text>
     </g>
    </g>
    <g id="xtick_6">
     <g id="line2d_6">
      <g>
       <use style="fill:#333333;stroke:#333333;stroke-width:0.8;" x="115.279261" xlink:href="#mfaa7d09cef" y="136.279357"/>
      </g>
     </g>
    </g>
    <g id="xtick_7">
     <g id="line2d_7">
      <g>
       <use style="fill:#333333;stroke:#333333;stroke-width:0.8;" x="129.15" xlink:href="#mfaa7d09cef" y="136.279357"/>
      </g>
     </g>
     <g id="text_4">
      <text style="fill:#333333;font-family:DejaVu Sans;font-size:10px;font-style:normal;font-weight:normal;text-anchor:middle;" transform="rotate(-0, 129.15, 147.377795)" x="129.15" y="147.377795">6</text>
     </g>
    </g>
    <g id="xtick_8">
     <g id="line2d_8">
      <g>
       <use style="fill:#333333;stroke:#333333;stroke-width:0.8;" x="143.020739" xlink:href="#mfaa7d09cef" y="136.279357"/>
      </g>
     </g>
    </g>
    <g id="xtick_9">
     <g id="line2d_9">
      <g>
       <use style="fill:#333333;stroke:#333333;stroke-width:0.8;" x="156.891477" xlink:href="#mfaa7d09cef" y="136.279357"/>
      </g>
     </g>
     <g id="text_5">
      <text style="fill:#333333;font-family:DejaVu Sans;font-size:10px;font-style:normal;font-weight:normal;text-anchor:middle;" transform="rotate(-0, 156.891477, 147.377795)" x="156.891477" y="147.377795">8</text>
     </g>
    </g>
    <g id="xtick_10">
     <g id="line2d_10">
      <g>
       <use style="fill:#333333;stroke:#333333;stroke-width:0.8;" x="170.762216" xlink:href="#mfaa7d09cef" y="136.279357"/>
      </g>
     </g>
    </g>
    <g id="xtick_11">
     <g id="line2d_11">
      <g>
       <use style="fill:#333333;stroke:#333333;stroke-width:0.8;" x="184.632955" xlink:href="#mfaa7d09cef" y="136.279357"/>
      </g>
     </g>
     <g id="text_6">
      <text style="fill:#333333;font-family:DejaVu Sans;font-size:10px;font-style:normal;font-weight:normal;text-anchor:middle;" transform="rotate(-0, 184.632955, 147.377795)" x="184.632955" y="147.377795">10</text>
     </g>
    </g>
    <g id="xtick_12">
     <g id="line2d_12">
      <g>
       <use style="fill:#333333;stroke:#333333;stroke-width:0.8;" x="198.503693" xlink:href="#mfaa7d09cef" y="136.279357"/>
      </g>
     </g>
    </g>
    <g id="xtick_13">
     <g id="line2d_13">
      <g>
       <use style="fill:#333333;stroke:#333333;stroke-width:0.8;" x="212.374432" xlink:href="#mfaa7d09cef" y="136.279357"/>
      </g>
     </g>
     <g id="text_7">
      <text style="fill:#333333;font-family:DejaVu Sans;font-size:10px;font-style:normal;font-weight:normal;text-anchor:middle;" transform="rotate(-0, 212.374432, 147.377795)" x="212.374432" y="147.377795">12</text>
     </g>
    </g>
    <g id="text_8">
     <text style="fill:#333333;font-family:DejaVu Sans;font-size:10px;font-style:normal;font-weight:normal;text-anchor:middle;" transform="rotate(-0, 129.15, 161.05592)" x="129.15" y="161.05592">Number of different hairpin reporters</text>
    </g>
   </g>
   <g id="matplotlib.axis_2">
    <g id="ytick_1">
     <g id="line2d_14">
      <defs>
       <path d="M 0 0 
L 4 0 
" id="mc4367e254b" style="stroke:#333333;stroke-width:0.8;"/>
      </defs>
      <g>
       <use style="fill:#333333;stroke:#333333;stroke-width:0.8;" x="31.5" xlink:href="#mc4367e254b" y="136.279357"/>
      </g>
     </g>
     <g id="text_9">
      <text style="fill:#333333;font-family:DejaVu Sans;font-size:10px;font-style:normal;font-weight:normal;text-anchor:end;" transform="rotate(-0, 28, 140.078576)" x="28" y="140.078576">0.0</text>
     </g>
    </g>
    <g id="ytick_2">
     <g id="line2d_15">
      <g>
       <use style="fill:#333333;stroke:#333333;stroke-width:0.8;" x="31.5" xlink:href="#mc4367e254b" y="110.836524"/>
      </g>
     </g>
     <g id="text_10">
      <text style="fill:#333333;font-family:DejaVu Sans;font-size:10px;font-style:normal;font-weight:normal;text-anchor:end;" transform="rotate(-0, 28, 114.635743)" x="28" y="114.635743">0.1</text>
     </g>
    </g>
    <g id="ytick_3">
     <g id="line2d_16">
      <g>
       <use style="fill:#333333;stroke:#333333;stroke-width:0.8;" x="31.5" xlink:href="#mc4367e254b" y="85.393692"/>
      </g>
     </g>
     <g id="text_11">
      <text style="fill:#333333;font-family:DejaVu Sans;font-size:10px;font-style:normal;font-weight:normal;text-anchor:end;" transform="rotate(-0, 28, 89.19291)" x="28" y="89.19291">0.2</text>
     </g>
    </g>
    <g id="ytick_4">
     <g id="line2d_17">
      <g>
       <use style="fill:#333333;stroke:#333333;stroke-width:0.8;" x="31.5" xlink:href="#mc4367e254b" y="59.950859"/>
      </g>
     </g>
     <g id="text_12">
      <text style="fill:#333333;font-family:DejaVu Sans;font-size:10px;font-style:normal;font-weight:normal;text-anchor:end;" transform="rotate(-0, 28, 63.750078)" x="28" y="63.750078">0.3</text>
     </g>
    </g>
    <g id="ytick_5">
     <g id="line2d_18">
      <g>
       <use style="fill:#333333;stroke:#333333;stroke-width:0.8;" x="31.5" xlink:href="#mc4367e254b" y="34.508026"/>
      </g>
     </g>
     <g id="text_13">
      <text style="fill:#333333;font-family:DejaVu Sans;font-size:10px;font-style:normal;font-weight:normal;text-anchor:end;" transform="rotate(-0, 28, 38.307245)" x="28" y="38.307245">0.4</text>
     </g>
    </g>
    <g id="text_14">
     <text style="fill:#333333;font-family:DejaVu Sans;font-size:10px;font-style:normal;font-weight:normal;text-anchor:middle;" transform="rotate(-90, 6.017187, 77.484549)" x="6.017187" y="77.484549">Proportion</text>
    </g>
   </g>
   <g id="patch_29">
    <path d="M 31.5 136.279357 
L 31.5 18.68974 
" style="fill:none;stroke:#333333;stroke-linecap:square;stroke-linejoin:miter;"/>
   </g>
   <g id="patch_30">
    <path d="M 31.5 136.279357 
L 226.8 136.279357 
" style="fill:none;stroke:#333333;stroke-linecap:square;stroke-linejoin:miter;"/>
   </g>
   <g id="text_15">
    <!-- $r=0.98$ -->
    <g style="fill:#333333;" transform="translate(39.683736 18.68974)">
     <text>
      <tspan style="font-family:DejaVu Sans;font-size:10px;font-style:oblique;font-weight:oblique;" x="0" y="-0.578125">r</tspan>
      <tspan style="font-family:DejaVu Sans;font-size:10px;font-style:book;font-weight:book;" x="6.05957 16.386719 22.749023 25.927734 32.290039" y="-0.578125">=0.98</tspan>
     </text>
    </g>
   </g>
   <g id="legend_1">
    <g id="patch_31">
     <path d="M 141.140625 56.04599 
L 219.8 56.04599 
Q 221.8 56.04599 221.8 54.04599 
L 221.8 25.68974 
Q 221.8 23.68974 219.8 23.68974 
L 141.140625 23.68974 
Q 139.140625 23.68974 139.140625 25.68974 
L 139.140625 54.04599 
Q 139.140625 56.04599 141.140625 56.04599 
z
" style="fill:#ffffff;opacity:0.8;stroke:#ffffff;stroke-linejoin:miter;"/>
    </g>
    <g id="patch_32">
     <path d="M 143.140625 35.288178 
L 163.140625 35.288178 
L 163.140625 28.288178 
L 143.140625 28.288178 
z
" style="fill:#d95f02;"/>
    </g>
    <g id="text_16">
     <text style="fill:#333333;font-family:DejaVu Sans;font-size:10px;font-style:normal;font-weight:normal;text-anchor:start;" transform="rotate(-0, 171.140625, 35.288178)" x="171.140625" y="35.288178">Data</text>
    </g>
    <g id="patch_33">
     <path d="M 143.140625 49.966303 
L 163.140625 49.966303 
L 163.140625 42.966303 
L 143.140625 42.966303 
z
" style="fill:#666666;"/>
    </g>
    <g id="text_17">
     <text style="fill:#333333;font-family:DejaVu Sans;font-size:10px;font-style:normal;font-weight:normal;text-anchor:start;" transform="rotate(-0, 171.140625, 49.966303)" x="171.140625" y="49.966303">Expected</text>
    </g>
   </g>
  </g>
 </g>
 <defs>
  <clipPath id="pa227b7e030">
   <rect height="117.589617" width="195.3" x="31.5" y="18.68974"/>
  </clipPath>
 </defs>
</svg>
