<?xml version="1.0" encoding="utf-8" standalone="no"?>
<!DOCTYPE svg PUBLIC "-//W3C//DTD SVG 1.1//EN"
  "http://www.w3.org/Graphics/SVG/1.1/DTD/svg11.dtd">
<!-- Created with matplotlib (http://matplotlib.org/) -->
<svg height="311.495674pt" version="1.1" viewBox="0 0 504 311.495674" width="504pt" xmlns="http://www.w3.org/2000/svg" xmlns:xlink="http://www.w3.org/1999/xlink">
 <defs>
  <style type="text/css">
*{stroke-linecap:butt;stroke-linejoin:round;}
  </style>
 </defs>
 <g id="figure_1">
  <g id="patch_1">
   <path d="M 0 311.495674 
L 504 311.495674 
L 504 0 
L 0 0 
z
" style="fill:#ffffff;"/>
  </g>
  <g id="axes_1">
   <g id="patch_2">
    <path d="M 63 144.279132 
L 240.545455 144.279132 
L 240.545455 37.379481 
L 63 37.379481 
z
" style="fill:#ffffff;"/>
   </g>
   <g id="matplotlib.axis_1">
    <g id="xtick_1">
     <g id="line2d_1">
      <defs>
       <path d="M 0 0 
L 0 -4 
" id="m06ba6fad78" style="stroke:#333333;stroke-width:0.8;"/>
      </defs>
      <g>
       <use style="fill:#333333;stroke:#333333;stroke-width:0.8;" x="63" xlink:href="#m06ba6fad78" y="144.279132"/>
      </g>
     </g>
    </g>
    <g id="xtick_2">
     <g id="line2d_2">
      <g>
       <use style="fill:#333333;stroke:#333333;stroke-width:0.8;" x="113.727273" xlink:href="#m06ba6fad78" y="144.279132"/>
      </g>
     </g>
    </g>
    <g id="xtick_3">
     <g id="line2d_3">
      <g>
       <use style="fill:#333333;stroke:#333333;stroke-width:0.8;" x="164.454545" xlink:href="#m06ba6fad78" y="144.279132"/>
      </g>
     </g>
    </g>
    <g id="xtick_4">
     <g id="line2d_4">
      <g>
       <use style="fill:#333333;stroke:#333333;stroke-width:0.8;" x="215.181818" xlink:href="#m06ba6fad78" y="144.279132"/>
      </g>
     </g>
    </g>
    <g id="xtick_5">
     <g id="line2d_5">
      <defs>
       <path d="M 0 0 
L 0 -2 
" id="mec1f179dea" style="stroke:#333333;stroke-width:0.6;"/>
      </defs>
      <g>
       <use style="fill:#333333;stroke:#333333;stroke-width:0.6;" x="63" xlink:href="#mec1f179dea" y="144.279132"/>
      </g>
     </g>
    </g>
    <g id="xtick_6">
     <g id="line2d_6">
      <g>
       <use style="fill:#333333;stroke:#333333;stroke-width:0.6;" x="78.270431" xlink:href="#mec1f179dea" y="144.279132"/>
      </g>
     </g>
    </g>
    <g id="xtick_7">
     <g id="line2d_7">
      <g>
       <use style="fill:#333333;stroke:#333333;stroke-width:0.6;" x="87.20306" xlink:href="#mec1f179dea" y="144.279132"/>
      </g>
     </g>
    </g>
    <g id="xtick_8">
     <g id="line2d_8">
      <g>
       <use style="fill:#333333;stroke:#333333;stroke-width:0.6;" x="93.540861" xlink:href="#mec1f179dea" y="144.279132"/>
      </g>
     </g>
    </g>
    <g id="xtick_9">
     <g id="line2d_9">
      <g>
       <use style="fill:#333333;stroke:#333333;stroke-width:0.6;" x="98.456842" xlink:href="#mec1f179dea" y="144.279132"/>
      </g>
     </g>
    </g>
    <g id="xtick_10">
     <g id="line2d_10">
      <g>
       <use style="fill:#333333;stroke:#333333;stroke-width:0.6;" x="102.473491" xlink:href="#mec1f179dea" y="144.279132"/>
      </g>
     </g>
    </g>
    <g id="xtick_11">
     <g id="line2d_11">
      <g>
       <use style="fill:#333333;stroke:#333333;stroke-width:0.6;" x="105.869519" xlink:href="#mec1f179dea" y="144.279132"/>
      </g>
     </g>
    </g>
    <g id="xtick_12">
     <g id="line2d_12">
      <g>
       <use style="fill:#333333;stroke:#333333;stroke-width:0.6;" x="108.811292" xlink:href="#mec1f179dea" y="144.279132"/>
      </g>
     </g>
    </g>
    <g id="xtick_13">
     <g id="line2d_13">
      <g>
       <use style="fill:#333333;stroke:#333333;stroke-width:0.6;" x="111.40612" xlink:href="#mec1f179dea" y="144.279132"/>
      </g>
     </g>
    </g>
    <g id="xtick_14">
     <g id="line2d_14">
      <g>
       <use style="fill:#333333;stroke:#333333;stroke-width:0.6;" x="113.727273" xlink:href="#mec1f179dea" y="144.279132"/>
      </g>
     </g>
    </g>
    <g id="xtick_15">
     <g id="line2d_15">
      <g>
       <use style="fill:#333333;stroke:#333333;stroke-width:0.6;" x="128.997703" xlink:href="#mec1f179dea" y="144.279132"/>
      </g>
     </g>
    </g>
    <g id="xtick_16">
     <g id="line2d_16">
      <g>
       <use style="fill:#333333;stroke:#333333;stroke-width:0.6;" x="137.930333" xlink:href="#mec1f179dea" y="144.279132"/>
      </g>
     </g>
    </g>
    <g id="xtick_17">
     <g id="line2d_17">
      <g>
       <use style="fill:#333333;stroke:#333333;stroke-width:0.6;" x="144.268134" xlink:href="#mec1f179dea" y="144.279132"/>
      </g>
     </g>
    </g>
    <g id="xtick_18">
     <g id="line2d_18">
      <g>
       <use style="fill:#333333;stroke:#333333;stroke-width:0.6;" x="149.184115" xlink:href="#mec1f179dea" y="144.279132"/>
      </g>
     </g>
    </g>
    <g id="xtick_19">
     <g id="line2d_19">
      <g>
       <use style="fill:#333333;stroke:#333333;stroke-width:0.6;" x="153.200763" xlink:href="#mec1f179dea" y="144.279132"/>
      </g>
     </g>
    </g>
    <g id="xtick_20">
     <g id="line2d_20">
      <g>
       <use style="fill:#333333;stroke:#333333;stroke-width:0.6;" x="156.596791" xlink:href="#mec1f179dea" y="144.279132"/>
      </g>
     </g>
    </g>
    <g id="xtick_21">
     <g id="line2d_21">
      <g>
       <use style="fill:#333333;stroke:#333333;stroke-width:0.6;" x="159.538565" xlink:href="#mec1f179dea" y="144.279132"/>
      </g>
     </g>
    </g>
    <g id="xtick_22">
     <g id="line2d_22">
      <g>
       <use style="fill:#333333;stroke:#333333;stroke-width:0.6;" x="162.133393" xlink:href="#mec1f179dea" y="144.279132"/>
      </g>
     </g>
    </g>
    <g id="xtick_23">
     <g id="line2d_23">
      <g>
       <use style="fill:#333333;stroke:#333333;stroke-width:0.6;" x="164.454545" xlink:href="#mec1f179dea" y="144.279132"/>
      </g>
     </g>
    </g>
    <g id="xtick_24">
     <g id="line2d_24">
      <g>
       <use style="fill:#333333;stroke:#333333;stroke-width:0.6;" x="179.724976" xlink:href="#mec1f179dea" y="144.279132"/>
      </g>
     </g>
    </g>
    <g id="xtick_25">
     <g id="line2d_25">
      <g>
       <use style="fill:#333333;stroke:#333333;stroke-width:0.6;" x="188.657605" xlink:href="#mec1f179dea" y="144.279132"/>
      </g>
     </g>
    </g>
    <g id="xtick_26">
     <g id="line2d_26">
      <g>
       <use style="fill:#333333;stroke:#333333;stroke-width:0.6;" x="194.995407" xlink:href="#mec1f179dea" y="144.279132"/>
      </g>
     </g>
    </g>
    <g id="xtick_27">
     <g id="line2d_27">
      <g>
       <use style="fill:#333333;stroke:#333333;stroke-width:0.6;" x="199.911387" xlink:href="#mec1f179dea" y="144.279132"/>
      </g>
     </g>
    </g>
    <g id="xtick_28">
     <g id="line2d_28">
      <g>
       <use style="fill:#333333;stroke:#333333;stroke-width:0.6;" x="203.928036" xlink:href="#mec1f179dea" y="144.279132"/>
      </g>
     </g>
    </g>
    <g id="xtick_29">
     <g id="line2d_29">
      <g>
       <use style="fill:#333333;stroke:#333333;stroke-width:0.6;" x="207.324064" xlink:href="#mec1f179dea" y="144.279132"/>
      </g>
     </g>
    </g>
    <g id="xtick_30">
     <g id="line2d_30">
      <g>
       <use style="fill:#333333;stroke:#333333;stroke-width:0.6;" x="210.265838" xlink:href="#mec1f179dea" y="144.279132"/>
      </g>
     </g>
    </g>
    <g id="xtick_31">
     <g id="line2d_31">
      <g>
       <use style="fill:#333333;stroke:#333333;stroke-width:0.6;" x="212.860665" xlink:href="#mec1f179dea" y="144.279132"/>
      </g>
     </g>
    </g>
    <g id="xtick_32">
     <g id="line2d_32">
      <g>
       <use style="fill:#333333;stroke:#333333;stroke-width:0.6;" x="215.181818" xlink:href="#mec1f179dea" y="144.279132"/>
      </g>
     </g>
    </g>
    <g id="xtick_33">
     <g id="line2d_33">
      <g>
       <use style="fill:#333333;stroke:#333333;stroke-width:0.6;" x="230.452249" xlink:href="#mec1f179dea" y="144.279132"/>
      </g>
     </g>
    </g>
    <g id="xtick_34">
     <g id="line2d_34">
      <g>
       <use style="fill:#333333;stroke:#333333;stroke-width:0.6;" x="239.384878" xlink:href="#mec1f179dea" y="144.279132"/>
      </g>
     </g>
    </g>
    <g id="text_1">
     <!-- $\sigma_e$ -->
     <g style="fill:#333333;" transform="translate(144.072727 158.916945)">
      <text>
       <tspan style="font-family:DejaVu Sans;font-size:14px;font-style:oblique;font-weight:oblique;" x="0" y="-0.34375">σ</tspan>
       <tspan style="font-family:DejaVu Sans;font-size:9.8px;font-style:oblique;font-weight:oblique;" x="8.873047" y="1.953125">e</tspan>
      </text>
     </g>
    </g>
   </g>
   <g id="matplotlib.axis_2">
    <g id="ytick_1">
     <g id="line2d_35">
      <defs>
       <path d="M 0 0 
L 4 0 
" id="m11cdb11dd9" style="stroke:#333333;stroke-width:0.8;"/>
      </defs>
      <g>
       <use style="fill:#333333;stroke:#333333;stroke-width:0.8;" x="63" xlink:href="#m11cdb11dd9" y="139.526713"/>
      </g>
     </g>
     <g id="text_2">
      <text style="fill:#333333;font-family:DejaVu Sans;font-size:10px;font-style:normal;font-weight:normal;text-anchor:end;" transform="rotate(-0, 59.5, 143.325931)" x="59.5" y="143.325931">0.0</text>
     </g>
    </g>
    <g id="ytick_2">
     <g id="line2d_36">
      <g>
       <use style="fill:#333333;stroke:#333333;stroke-width:0.8;" x="63" xlink:href="#m11cdb11dd9" y="113.742456"/>
      </g>
     </g>
     <g id="text_3">
      <text style="fill:#333333;font-family:DejaVu Sans;font-size:10px;font-style:normal;font-weight:normal;text-anchor:end;" transform="rotate(-0, 59.5, 117.541674)" x="59.5" y="117.541674">0.5</text>
     </g>
    </g>
    <g id="ytick_3">
     <g id="line2d_37">
      <g>
       <use style="fill:#333333;stroke:#333333;stroke-width:0.8;" x="63" xlink:href="#m11cdb11dd9" y="87.958199"/>
      </g>
     </g>
     <g id="text_4">
      <text style="fill:#333333;font-family:DejaVu Sans;font-size:10px;font-style:normal;font-weight:normal;text-anchor:end;" transform="rotate(-0, 59.5, 91.757417)" x="59.5" y="91.757417">1.0</text>
     </g>
    </g>
    <g id="ytick_4">
     <g id="line2d_38">
      <g>
       <use style="fill:#333333;stroke:#333333;stroke-width:0.8;" x="63" xlink:href="#m11cdb11dd9" y="62.173942"/>
      </g>
     </g>
     <g id="text_5">
      <text style="fill:#333333;font-family:DejaVu Sans;font-size:10px;font-style:normal;font-weight:normal;text-anchor:end;" transform="rotate(-0, 59.5, 65.97316)" x="59.5" y="65.97316">1.5</text>
     </g>
    </g>
    <g id="text_6">
     <!-- $p^{G \rightarrow G'}$ -->
     <g style="fill:#333333;" transform="translate(36.656875 110.849307)rotate(-90)">
      <text>
       <tspan style="font-family:DejaVu Sans;font-size:14px;font-style:oblique;font-weight:oblique;" x="0" y="-0.05328125">p</tspan>
       <tspan style="font-family:DejaVu Sans;font-size:9.8px;font-style:oblique;font-weight:oblique;" x="9.538229 29.162155" y="-5.41265625">GG</tspan>
       <tspan style="font-family:DejaVu Sans;font-size:9.8px;font-style:book;font-weight:book;" x="19.041549" y="-5.41265625">→</tspan>
       <tspan style="font-family:cmsy10;font-size:6.86px;font-style:regular;font-weight:regular;" x="37.461849" y="-9.16421875">0</tspan>
      </text>
     </g>
    </g>
   </g>
   <g id="line2d_39">
    <path clip-path="url(#p78fb32734f)" d="M 82.330748 56.383619 
L 83.826924 57.501051 
L 85.323101 58.664204 
L 86.819278 59.873095 
L 88.315455 61.127523 
L 89.811631 62.427057 
L 91.307808 63.771014 
L 92.803985 65.158458 
L 94.300162 66.58818 
L 95.796339 68.058697 
L 97.292515 69.568249 
L 98.788692 71.114794 
L 100.284869 72.696016 
L 101.781046 74.30933 
L 103.277222 75.951895 
L 104.773399 77.620629 
L 106.269576 79.312228 
L 107.765753 81.023191 
L 109.26193 82.749846 
L 110.758106 84.488381 
L 112.254283 86.234875 
L 113.75046 87.985337 
L 115.246637 89.735735 
L 116.742813 91.482043 
L 118.23899 93.220268 
L 119.735167 94.946493 
L 121.231344 96.65691 
L 122.727521 98.347852 
L 124.223697 100.015824 
L 125.719874 101.657527 
L 127.216051 103.269888 
L 128.712228 104.850072 
L 130.208405 106.395504 
L 131.704581 107.903875 
L 133.200758 109.373153 
L 134.696935 110.801585 
L 136.193112 112.187698 
L 137.689288 113.530291 
L 139.185465 114.828436 
L 140.681642 116.081458 
L 142.177819 117.288933 
L 143.673996 118.450667 
L 145.170172 119.566685 
L 146.666349 120.63721 
L 148.162526 121.662651 
L 149.658703 122.64358 
L 151.154879 123.580718 
L 152.651056 124.474915 
L 154.147233 125.327135 
L 155.64341 126.138437 
L 157.139587 126.909961 
L 158.635763 127.642911 
L 160.13194 128.338544 
L 161.628117 128.998156 
L 163.124294 129.623068 
L 164.62047 130.214619 
L 166.116647 130.774153 
L 167.612824 131.303013 
L 169.109001 131.802533 
L 170.605178 132.27403 
L 172.101354 132.718799 
L 173.597531 133.138111 
L 175.093708 133.533203 
L 176.589885 133.905281 
L 178.086062 134.255513 
L 179.582238 134.585031 
L 181.078415 134.894925 
L 182.574592 135.186244 
L 184.070769 135.459997 
L 185.566945 135.71715 
L 187.063122 135.958628 
L 188.559299 136.185315 
L 190.055476 136.398052 
L 191.551653 136.597642 
L 193.047829 136.784849 
L 194.544006 136.960397 
L 196.040183 137.124974 
L 197.53636 137.279233 
L 199.032536 137.423791 
L 200.528713 137.559233 
L 202.02489 137.68611 
L 203.521067 137.804944 
L 205.017244 137.916228 
L 206.51342 138.020427 
L 208.009597 138.117977 
L 209.505774 138.209291 
L 211.001951 138.294758 
L 212.498127 138.374744 
L 213.994304 138.449591 
L 215.490481 138.519623 
L 216.986658 138.585143 
L 218.482835 138.646438 
L 219.979011 138.703775 
L 221.475188 138.757405 
L 222.971365 138.807565 
L 224.467542 138.854475 
L 225.963719 138.898345 
L 227.459895 138.939368 
L 228.956072 138.977727 
L 230.452249 139.013593 
" style="fill:none;stroke:#d95f02;stroke-linecap:square;stroke-width:1.5;"/>
   </g>
   <g id="line2d_40">
    <path clip-path="url(#p78fb32734f)" d="M 82.330748 47.459653 
L 83.826924 48.148877 
L 85.323101 48.875193 
L 86.819278 49.639866 
L 88.315455 50.44411 
L 89.811631 51.289077 
L 91.307808 52.175843 
L 92.803985 53.105389 
L 94.300162 54.078585 
L 95.796339 55.096177 
L 97.292515 56.158764 
L 98.788692 57.266785 
L 100.284869 58.420497 
L 101.781046 59.619961 
L 103.277222 60.865023 
L 104.773399 62.155298 
L 106.269576 63.490159 
L 107.765753 64.868722 
L 109.26193 66.289834 
L 110.758106 67.75207 
L 112.254283 69.253727 
L 113.75046 70.792821 
L 115.246637 72.367092 
L 116.742813 73.974009 
L 118.23899 75.610785 
L 119.735167 77.274383 
L 121.231344 78.961546 
L 122.727521 80.66881 
L 124.223697 82.392536 
L 125.719874 84.128937 
L 127.216051 85.874115 
L 128.712228 87.624087 
L 130.208405 89.374829 
L 131.704581 91.122309 
L 133.200758 92.862525 
L 134.696935 94.591542 
L 136.193112 96.305525 
L 137.689288 98.000777 
L 139.185465 99.673764 
L 140.681642 101.321146 
L 142.177819 102.939801 
L 143.673996 104.526843 
L 145.170172 106.079642 
L 146.666349 107.595834 
L 148.162526 109.07333 
L 149.658703 110.510319 
L 151.154879 111.905269 
L 152.651056 113.256925 
L 154.147233 114.564303 
L 155.64341 115.826677 
L 157.139587 117.043571 
L 158.635763 118.214747 
L 160.13194 119.340184 
L 161.628117 120.420067 
L 163.124294 121.454767 
L 164.62047 122.444824 
L 166.116647 123.390931 
L 167.612824 124.293911 
L 169.109001 125.154707 
L 170.605178 125.97436 
L 172.101354 126.753993 
L 173.597531 127.4948 
L 175.093708 128.198027 
L 176.589885 128.864962 
L 178.086062 129.496924 
L 179.582238 130.095247 
L 181.078415 130.661276 
L 182.574592 131.196355 
L 184.070769 131.701819 
L 185.566945 132.17899 
L 187.063122 132.629169 
L 188.559299 133.053629 
L 190.055476 133.453618 
L 191.551653 133.830347 
L 193.047829 134.184993 
L 194.544006 134.518693 
L 196.040183 134.832548 
L 197.53636 135.127616 
L 199.032536 135.404912 
L 200.528713 135.665413 
L 202.02489 135.910051 
L 203.521067 136.139718 
L 205.017244 136.355266 
L 206.51342 136.557505 
L 208.009597 136.747206 
L 209.505774 136.925101 
L 211.001951 137.091888 
L 212.498127 137.248224 
L 213.994304 137.394734 
L 215.490481 137.53201 
L 216.986658 137.66061 
L 218.482835 137.781063 
L 219.979011 137.893865 
L 221.475188 137.999489 
L 222.971365 138.098376 
L 224.467542 138.190944 
L 225.963719 138.277587 
L 227.459895 138.358674 
L 228.956072 138.434554 
L 230.452249 138.505554 
" style="fill:none;stroke:#7570b3;stroke-linecap:square;stroke-width:1.5;"/>
   </g>
   <g id="line2d_41">
    <path clip-path="url(#p78fb32734f)" d="M 82.330748 44.043498 
L 83.826924 44.538856 
L 85.323101 45.063361 
L 86.819278 45.618346 
L 88.315455 46.205151 
L 89.811631 46.825122 
L 91.307808 47.479598 
L 92.803985 48.169905 
L 94.300162 48.897342 
L 95.796339 49.663173 
L 97.292515 50.46861 
L 98.788692 51.314804 
L 100.284869 52.202827 
L 101.781046 53.133656 
L 103.277222 54.108161 
L 104.773399 55.127081 
L 106.269576 56.191012 
L 107.765753 57.300387 
L 109.26193 58.455458 
L 110.758106 59.65628 
L 112.254283 60.902691 
L 113.75046 62.1943 
L 115.246637 63.530473 
L 116.742813 64.910317 
L 118.23899 66.332672 
L 119.735167 67.796105 
L 121.231344 69.298904 
L 122.727521 70.839076 
L 124.223697 72.414355 
L 125.719874 74.0222 
L 127.216051 75.659817 
L 128.712228 77.324164 
L 130.208405 79.011974 
L 131.704581 80.71978 
L 133.200758 82.443937 
L 134.696935 84.180656 
L 136.193112 85.926034 
L 137.689288 87.676087 
L 139.185465 89.42679 
L 140.681642 91.174111 
L 142.177819 92.914051 
L 143.673996 94.642676 
L 145.170172 96.356156 
L 146.666349 98.050797 
L 148.162526 99.723071 
L 149.658703 101.369644 
L 151.154879 102.9874 
L 152.651056 104.573461 
L 154.147233 106.125206 
L 155.64341 107.640278 
L 157.139587 109.116596 
L 158.635763 110.552356 
L 160.13194 111.946038 
L 161.628117 113.296392 
L 163.124294 114.602442 
L 164.62047 115.863471 
L 166.116647 117.07901 
L 167.612824 118.248827 
L 169.109001 119.372908 
L 170.605178 120.451442 
L 172.101354 121.484808 
L 173.597531 122.47355 
L 175.093708 123.418363 
L 176.589885 124.320077 
L 178.086062 125.179636 
L 179.582238 125.998083 
L 181.078415 126.776546 
L 182.574592 127.516218 
L 184.070769 128.218349 
L 185.566945 128.884227 
L 187.063122 129.51517 
L 188.559299 130.112515 
L 190.055476 130.677605 
L 191.551653 131.211785 
L 193.047829 131.71639 
L 194.544006 132.192741 
L 196.040183 132.642138 
L 197.53636 133.065854 
L 199.032536 133.465135 
L 200.528713 133.841191 
L 202.02489 134.195199 
L 203.521067 134.528294 
L 205.017244 134.841576 
L 206.51342 135.136101 
L 208.009597 135.412885 
L 209.505774 135.672901 
L 211.001951 135.917082 
L 212.498127 136.146319 
L 213.994304 136.36146 
L 215.490481 136.563315 
L 216.986658 136.752655 
L 218.482835 136.930211 
L 219.979011 137.096678 
L 221.475188 137.252713 
L 222.971365 137.398941 
L 224.467542 137.535951 
L 225.963719 137.664302 
L 227.459895 137.78452 
L 228.956072 137.897103 
L 230.452249 138.00252 
" style="fill:none;stroke:#e7298a;stroke-linecap:square;stroke-width:1.5;"/>
   </g>
   <g id="line2d_42">
    <path clip-path="url(#p78fb32734f)" d="M 82.330748 42.238556 
L 83.826924 42.624725 
L 85.323101 43.03465 
L 86.819278 43.469556 
L 88.315455 43.930702 
L 89.811631 44.419374 
L 91.307808 44.936881 
L 92.803985 45.484552 
L 94.300162 46.063726 
L 95.796339 46.675749 
L 97.292515 47.321962 
L 98.788692 48.003695 
L 100.284869 48.722254 
L 101.781046 49.478912 
L 103.277222 50.274896 
L 104.773399 51.111372 
L 106.269576 51.989431 
L 107.765753 52.910076 
L 109.26193 53.874201 
L 110.758106 54.88258 
L 112.254283 55.935843 
L 113.75046 57.034464 
L 115.246637 58.178738 
L 116.742813 59.368769 
L 118.23899 60.604447 
L 119.735167 61.885438 
L 121.231344 63.211165 
L 122.727521 64.580797 
L 124.223697 65.993239 
L 125.719874 67.447122 
L 127.216051 68.940799 
L 128.712228 70.472346 
L 130.208405 72.039558 
L 131.704581 73.639961 
L 133.200758 75.270817 
L 134.696935 76.929142 
L 136.193112 78.61172 
L 137.689288 80.315129 
L 139.185465 82.035765 
L 140.681642 83.769868 
L 142.177819 85.513558 
L 143.673996 87.26287 
L 145.170172 89.013783 
L 146.666349 90.762265 
L 148.162526 92.504305 
L 149.658703 94.23595 
L 151.154879 95.953343 
L 152.651056 97.652754 
L 154.147233 99.330615 
L 155.64341 100.983542 
L 157.139587 102.608367 
L 158.635763 104.202155 
L 160.13194 105.762221 
L 161.628117 107.286146 
L 163.124294 108.771782 
L 164.62047 110.217262 
L 166.116647 111.620996 
L 167.612824 112.981674 
L 169.109001 114.298254 
L 170.605178 115.569959 
L 172.101354 116.796263 
L 173.597531 117.976879 
L 175.093708 119.111743 
L 176.589885 120.201 
L 178.086062 121.244982 
L 179.582238 122.244197 
L 181.078415 123.199308 
L 182.574592 124.111112 
L 184.070769 124.980528 
L 185.566945 125.808579 
L 187.063122 126.596373 
L 188.559299 127.345089 
L 190.055476 128.055964 
L 191.551653 128.73028 
L 193.047829 129.369347 
L 194.544006 129.9745 
L 196.040183 130.547082 
L 197.53636 131.088436 
L 199.032536 131.599901 
L 200.528713 132.082802 
L 202.02489 132.538443 
L 203.521067 132.968107 
L 205.017244 133.373044 
L 206.51342 133.754474 
L 208.009597 134.113581 
L 209.505774 134.451511 
L 211.001951 134.769372 
L 212.498127 135.068231 
L 213.994304 135.349112 
L 215.490481 135.613 
L 216.986658 135.860836 
L 218.482835 136.093521 
L 219.979011 136.311914 
L 221.475188 136.516834 
L 222.971365 136.70906 
L 224.467542 136.889333 
L 225.963719 137.058356 
L 227.459895 137.216796 
L 228.956072 137.365284 
L 230.452249 137.504418 
" style="fill:none;stroke:#66a61e;stroke-linecap:square;stroke-width:1.5;"/>
   </g>
   <g id="patch_3">
    <path d="M 63 144.279132 
L 63 37.379481 
" style="fill:none;stroke:#333333;stroke-linecap:square;stroke-linejoin:miter;"/>
   </g>
   <g id="patch_4">
    <path d="M 63 144.279132 
L 240.545455 144.279132 
" style="fill:none;stroke:#333333;stroke-linecap:square;stroke-linejoin:miter;"/>
   </g>
   <g id="text_7">
    <!-- $m=0$ -->
    <g style="fill:#333333;" transform="translate(63 31.379481)">
     <text>
      <tspan style="font-family:DejaVu Sans;font-size:12px;font-style:oblique;font-weight:oblique;" x="0" y="-0.09375">m</tspan>
      <tspan style="font-family:DejaVu Sans;font-size:12px;font-style:book;font-weight:book;" x="14.027344 26.419922" y="-0.09375">=0</tspan>
     </text>
    </g>
   </g>
  </g>
  <g id="axes_2">
   <g id="patch_5">
    <path d="M 276.054545 144.279132 
L 453.6 144.279132 
L 453.6 37.379481 
L 276.054545 37.379481 
z
" style="fill:#ffffff;"/>
   </g>
   <g id="matplotlib.axis_3">
    <g id="xtick_35">
     <g id="line2d_43">
      <g>
       <use style="fill:#333333;stroke:#333333;stroke-width:0.8;" x="276.054545" xlink:href="#m06ba6fad78" y="144.279132"/>
      </g>
     </g>
    </g>
    <g id="xtick_36">
     <g id="line2d_44">
      <g>
       <use style="fill:#333333;stroke:#333333;stroke-width:0.8;" x="326.781818" xlink:href="#m06ba6fad78" y="144.279132"/>
      </g>
     </g>
    </g>
    <g id="xtick_37">
     <g id="line2d_45">
      <g>
       <use style="fill:#333333;stroke:#333333;stroke-width:0.8;" x="377.509091" xlink:href="#m06ba6fad78" y="144.279132"/>
      </g>
     </g>
    </g>
    <g id="xtick_38">
     <g id="line2d_46">
      <g>
       <use style="fill:#333333;stroke:#333333;stroke-width:0.8;" x="428.236364" xlink:href="#m06ba6fad78" y="144.279132"/>
      </g>
     </g>
    </g>
    <g id="xtick_39">
     <g id="line2d_47">
      <g>
       <use style="fill:#333333;stroke:#333333;stroke-width:0.6;" x="276.054545" xlink:href="#mec1f179dea" y="144.279132"/>
      </g>
     </g>
    </g>
    <g id="xtick_40">
     <g id="line2d_48">
      <g>
       <use style="fill:#333333;stroke:#333333;stroke-width:0.6;" x="291.324976" xlink:href="#mec1f179dea" y="144.279132"/>
      </g>
     </g>
    </g>
    <g id="xtick_41">
     <g id="line2d_49">
      <g>
       <use style="fill:#333333;stroke:#333333;stroke-width:0.6;" x="300.257605" xlink:href="#mec1f179dea" y="144.279132"/>
      </g>
     </g>
    </g>
    <g id="xtick_42">
     <g id="line2d_50">
      <g>
       <use style="fill:#333333;stroke:#333333;stroke-width:0.6;" x="306.595407" xlink:href="#mec1f179dea" y="144.279132"/>
      </g>
     </g>
    </g>
    <g id="xtick_43">
     <g id="line2d_51">
      <g>
       <use style="fill:#333333;stroke:#333333;stroke-width:0.6;" x="311.511387" xlink:href="#mec1f179dea" y="144.279132"/>
      </g>
     </g>
    </g>
    <g id="xtick_44">
     <g id="line2d_52">
      <g>
       <use style="fill:#333333;stroke:#333333;stroke-width:0.6;" x="315.528036" xlink:href="#mec1f179dea" y="144.279132"/>
      </g>
     </g>
    </g>
    <g id="xtick_45">
     <g id="line2d_53">
      <g>
       <use style="fill:#333333;stroke:#333333;stroke-width:0.6;" x="318.924064" xlink:href="#mec1f179dea" y="144.279132"/>
      </g>
     </g>
    </g>
    <g id="xtick_46">
     <g id="line2d_54">
      <g>
       <use style="fill:#333333;stroke:#333333;stroke-width:0.6;" x="321.865838" xlink:href="#mec1f179dea" y="144.279132"/>
      </g>
     </g>
    </g>
    <g id="xtick_47">
     <g id="line2d_55">
      <g>
       <use style="fill:#333333;stroke:#333333;stroke-width:0.6;" x="324.460665" xlink:href="#mec1f179dea" y="144.279132"/>
      </g>
     </g>
    </g>
    <g id="xtick_48">
     <g id="line2d_56">
      <g>
       <use style="fill:#333333;stroke:#333333;stroke-width:0.6;" x="326.781818" xlink:href="#mec1f179dea" y="144.279132"/>
      </g>
     </g>
    </g>
    <g id="xtick_49">
     <g id="line2d_57">
      <g>
       <use style="fill:#333333;stroke:#333333;stroke-width:0.6;" x="342.052249" xlink:href="#mec1f179dea" y="144.279132"/>
      </g>
     </g>
    </g>
    <g id="xtick_50">
     <g id="line2d_58">
      <g>
       <use style="fill:#333333;stroke:#333333;stroke-width:0.6;" x="350.984878" xlink:href="#mec1f179dea" y="144.279132"/>
      </g>
     </g>
    </g>
    <g id="xtick_51">
     <g id="line2d_59">
      <g>
       <use style="fill:#333333;stroke:#333333;stroke-width:0.6;" x="357.32268" xlink:href="#mec1f179dea" y="144.279132"/>
      </g>
     </g>
    </g>
    <g id="xtick_52">
     <g id="line2d_60">
      <g>
       <use style="fill:#333333;stroke:#333333;stroke-width:0.6;" x="362.23866" xlink:href="#mec1f179dea" y="144.279132"/>
      </g>
     </g>
    </g>
    <g id="xtick_53">
     <g id="line2d_61">
      <g>
       <use style="fill:#333333;stroke:#333333;stroke-width:0.6;" x="366.255309" xlink:href="#mec1f179dea" y="144.279132"/>
      </g>
     </g>
    </g>
    <g id="xtick_54">
     <g id="line2d_62">
      <g>
       <use style="fill:#333333;stroke:#333333;stroke-width:0.6;" x="369.651337" xlink:href="#mec1f179dea" y="144.279132"/>
      </g>
     </g>
    </g>
    <g id="xtick_55">
     <g id="line2d_63">
      <g>
       <use style="fill:#333333;stroke:#333333;stroke-width:0.6;" x="372.59311" xlink:href="#mec1f179dea" y="144.279132"/>
      </g>
     </g>
    </g>
    <g id="xtick_56">
     <g id="line2d_64">
      <g>
       <use style="fill:#333333;stroke:#333333;stroke-width:0.6;" x="375.187938" xlink:href="#mec1f179dea" y="144.279132"/>
      </g>
     </g>
    </g>
    <g id="xtick_57">
     <g id="line2d_65">
      <g>
       <use style="fill:#333333;stroke:#333333;stroke-width:0.6;" x="377.509091" xlink:href="#mec1f179dea" y="144.279132"/>
      </g>
     </g>
    </g>
    <g id="xtick_58">
     <g id="line2d_66">
      <g>
       <use style="fill:#333333;stroke:#333333;stroke-width:0.6;" x="392.779522" xlink:href="#mec1f179dea" y="144.279132"/>
      </g>
     </g>
    </g>
    <g id="xtick_59">
     <g id="line2d_67">
      <g>
       <use style="fill:#333333;stroke:#333333;stroke-width:0.6;" x="401.712151" xlink:href="#mec1f179dea" y="144.279132"/>
      </g>
     </g>
    </g>
    <g id="xtick_60">
     <g id="line2d_68">
      <g>
       <use style="fill:#333333;stroke:#333333;stroke-width:0.6;" x="408.049952" xlink:href="#mec1f179dea" y="144.279132"/>
      </g>
     </g>
    </g>
    <g id="xtick_61">
     <g id="line2d_69">
      <g>
       <use style="fill:#333333;stroke:#333333;stroke-width:0.6;" x="412.965933" xlink:href="#mec1f179dea" y="144.279132"/>
      </g>
     </g>
    </g>
    <g id="xtick_62">
     <g id="line2d_70">
      <g>
       <use style="fill:#333333;stroke:#333333;stroke-width:0.6;" x="416.982582" xlink:href="#mec1f179dea" y="144.279132"/>
      </g>
     </g>
    </g>
    <g id="xtick_63">
     <g id="line2d_71">
      <g>
       <use style="fill:#333333;stroke:#333333;stroke-width:0.6;" x="420.37861" xlink:href="#mec1f179dea" y="144.279132"/>
      </g>
     </g>
    </g>
    <g id="xtick_64">
     <g id="line2d_72">
      <g>
       <use style="fill:#333333;stroke:#333333;stroke-width:0.6;" x="423.320383" xlink:href="#mec1f179dea" y="144.279132"/>
      </g>
     </g>
    </g>
    <g id="xtick_65">
     <g id="line2d_73">
      <g>
       <use style="fill:#333333;stroke:#333333;stroke-width:0.6;" x="425.915211" xlink:href="#mec1f179dea" y="144.279132"/>
      </g>
     </g>
    </g>
    <g id="xtick_66">
     <g id="line2d_74">
      <g>
       <use style="fill:#333333;stroke:#333333;stroke-width:0.6;" x="428.236364" xlink:href="#mec1f179dea" y="144.279132"/>
      </g>
     </g>
    </g>
    <g id="xtick_67">
     <g id="line2d_75">
      <g>
       <use style="fill:#333333;stroke:#333333;stroke-width:0.6;" x="443.506794" xlink:href="#mec1f179dea" y="144.279132"/>
      </g>
     </g>
    </g>
    <g id="xtick_68">
     <g id="line2d_76">
      <g>
       <use style="fill:#333333;stroke:#333333;stroke-width:0.6;" x="452.439424" xlink:href="#mec1f179dea" y="144.279132"/>
      </g>
     </g>
    </g>
    <g id="text_8">
     <!-- $\sigma_e$ -->
     <g style="fill:#333333;" transform="translate(357.127273 158.916945)">
      <text>
       <tspan style="font-family:DejaVu Sans;font-size:14px;font-style:oblique;font-weight:oblique;" x="0" y="-0.34375">σ</tspan>
       <tspan style="font-family:DejaVu Sans;font-size:9.8px;font-style:oblique;font-weight:oblique;" x="8.873047" y="1.953125">e</tspan>
      </text>
     </g>
    </g>
   </g>
   <g id="matplotlib.axis_4">
    <g id="ytick_5">
     <g id="line2d_77">
      <g>
       <use style="fill:#333333;stroke:#333333;stroke-width:0.8;" x="276.054545" xlink:href="#m11cdb11dd9" y="139.526713"/>
      </g>
     </g>
    </g>
    <g id="ytick_6">
     <g id="line2d_78">
      <g>
       <use style="fill:#333333;stroke:#333333;stroke-width:0.8;" x="276.054545" xlink:href="#m11cdb11dd9" y="113.742456"/>
      </g>
     </g>
    </g>
    <g id="ytick_7">
     <g id="line2d_79">
      <g>
       <use style="fill:#333333;stroke:#333333;stroke-width:0.8;" x="276.054545" xlink:href="#m11cdb11dd9" y="87.958199"/>
      </g>
     </g>
    </g>
    <g id="ytick_8">
     <g id="line2d_80">
      <g>
       <use style="fill:#333333;stroke:#333333;stroke-width:0.8;" x="276.054545" xlink:href="#m11cdb11dd9" y="62.173942"/>
      </g>
     </g>
    </g>
    <g id="text_9">
     <!-- $p^{G \rightarrow G'}$ -->
     <g style="fill:#333333;" transform="translate(269.114545 110.849307)rotate(-90)">
      <text>
       <tspan style="font-family:DejaVu Sans;font-size:14px;font-style:oblique;font-weight:oblique;" x="0" y="-0.05328125">p</tspan>
       <tspan style="font-family:DejaVu Sans;font-size:9.8px;font-style:oblique;font-weight:oblique;" x="9.538229 29.162155" y="-5.41265625">GG</tspan>
       <tspan style="font-family:DejaVu Sans;font-size:9.8px;font-style:book;font-weight:book;" x="19.041549" y="-5.41265625">→</tspan>
       <tspan style="font-family:cmsy10;font-size:6.86px;font-style:regular;font-weight:regular;" x="37.461849" y="-9.16421875">0</tspan>
      </text>
     </g>
    </g>
   </g>
   <g id="line2d_81">
    <path clip-path="url(#pafa46194ca)" d="M 327.856694 137.130963 
L 329.024876 134.788589 
L 330.193059 132.700843 
L 331.361242 130.850416 
L 332.529425 129.22076 
L 333.697608 127.796073 
L 334.865791 126.56128 
L 336.033973 125.502024 
L 337.202156 124.604647 
L 338.370339 123.856178 
L 339.538522 123.24432 
L 340.706705 122.757432 
L 341.874888 122.384519 
L 343.04307 122.115211 
L 344.211253 121.93975 
L 345.379436 121.848973 
L 346.547619 121.834295 
L 347.715802 121.887687 
L 348.883985 122.001663 
L 350.052167 122.169253 
L 351.22035 122.383991 
L 352.388533 122.639889 
L 353.556716 122.931417 
L 354.724899 123.253482 
L 355.893082 123.60141 
L 357.061264 123.970919 
L 358.229447 124.358101 
L 359.39763 124.759403 
L 360.565813 125.171601 
L 361.733996 125.591784 
L 362.902179 126.017331 
L 364.070361 126.445895 
L 365.238544 126.875382 
L 366.406727 127.30393 
L 367.57491 127.729899 
L 368.743093 128.151847 
L 369.911276 128.568518 
L 371.079458 128.978824 
L 372.247641 129.381835 
L 373.415824 129.776761 
L 374.584007 130.162941 
L 375.75219 130.539831 
L 376.920373 130.906992 
L 378.088555 131.264082 
L 379.256738 131.610843 
L 380.424921 131.947092 
L 381.593104 132.272718 
L 382.761287 132.587665 
L 383.92947 132.891935 
L 385.097653 133.185574 
L 386.265835 133.468669 
L 387.434018 133.741342 
L 388.602201 134.003747 
L 389.770384 134.256062 
L 390.938567 134.498487 
L 392.10675 134.731242 
L 393.274932 134.954559 
L 394.443115 135.168683 
L 395.611298 135.37387 
L 396.779481 135.570381 
L 397.947664 135.758481 
L 399.115847 135.93844 
L 400.284029 136.110529 
L 401.452212 136.275017 
L 402.620395 136.432175 
L 403.788578 136.582268 
L 404.956761 136.725561 
L 406.124944 136.862313 
L 407.293126 136.992778 
L 408.461309 137.117206 
L 409.629492 137.235841 
L 410.797675 137.34892 
L 411.965858 137.456676 
L 413.134041 137.559331 
L 414.302223 137.657104 
L 415.470406 137.750207 
L 416.638589 137.838843 
L 417.806772 137.92321 
L 418.974955 138.003497 
L 420.143138 138.079888 
L 421.31132 138.15256 
L 422.479503 138.221682 
L 423.647686 138.287418 
L 424.815869 138.349924 
L 425.984052 138.409351 
L 427.152235 138.465843 
L 428.320417 138.519539 
L 429.4886 138.57057 
L 430.656783 138.619064 
L 431.824966 138.665142 
L 432.993149 138.708919 
L 434.161332 138.750508 
L 435.329514 138.790013 
L 436.497697 138.827536 
L 437.66588 138.863174 
L 438.834063 138.897018 
L 440.002246 138.929156 
L 441.170429 138.959673 
L 442.338611 138.988649 
L 443.506794 139.016159 
" style="fill:none;stroke:#d95f02;stroke-linecap:square;stroke-width:1.5;"/>
   </g>
   <g id="line2d_82">
    <path clip-path="url(#pafa46194ca)" d="M 342.596241 138.284472 
L 343.61554 136.119503 
L 344.634838 134.156321 
L 345.654137 132.383096 
L 346.673435 130.788446 
L 347.692734 129.361428 
L 348.712032 128.091531 
L 349.731331 126.968666 
L 350.750629 125.983161 
L 351.769928 125.125756 
L 352.789226 124.387588 
L 353.808525 123.760193 
L 354.827823 123.235492 
L 355.847122 122.805788 
L 356.866421 122.463756 
L 357.885719 122.202436 
L 358.905018 122.015225 
L 359.924316 121.895866 
L 360.943615 121.838445 
L 361.962913 121.837376 
L 362.982212 121.887396 
L 364.00151 121.98355 
L 365.020809 122.12119 
L 366.040107 122.295954 
L 367.059406 122.503764 
L 368.078704 122.740812 
L 369.098003 123.003549 
L 370.117301 123.288678 
L 371.1366 123.593136 
L 372.155898 123.914091 
L 373.175197 124.248927 
L 374.194495 124.595233 
L 375.213794 124.950795 
L 376.233092 125.313585 
L 377.252391 125.681747 
L 378.271689 126.053594 
L 379.290988 126.427591 
L 380.310286 126.802351 
L 381.329585 127.176622 
L 382.348883 127.549282 
L 383.368182 127.919326 
L 384.38748 128.285861 
L 385.406779 128.648097 
L 386.426077 129.00534 
L 387.445376 129.356984 
L 388.464675 129.702506 
L 389.483973 130.041455 
L 390.503272 130.373451 
L 391.52257 130.698179 
L 392.541869 131.015378 
L 393.561167 131.324842 
L 394.580466 131.626414 
L 395.599764 131.919976 
L 396.619063 132.205455 
L 397.638361 132.482808 
L 398.65766 132.752027 
L 399.676958 133.01313 
L 400.696257 133.266163 
L 401.715555 133.511191 
L 402.734854 133.748301 
L 403.754152 133.977596 
L 404.773451 134.199194 
L 405.792749 134.413227 
L 406.812048 134.619835 
L 407.831346 134.819171 
L 408.850645 135.011393 
L 409.869943 135.196667 
L 410.889242 135.375162 
L 411.90854 135.547052 
L 412.927839 135.712515 
L 413.947137 135.871728 
L 414.966436 136.024872 
L 415.985734 136.172126 
L 417.005033 136.313669 
L 418.024331 136.449681 
L 419.04363 136.580337 
L 420.062928 136.705813 
L 421.082227 136.826282 
L 422.101526 136.941913 
L 423.120824 137.052873 
L 424.140123 137.159326 
L 425.159421 137.261432 
L 426.17872 137.359348 
L 427.198018 137.453227 
L 428.217317 137.543218 
L 429.236615 137.629467 
L 430.255914 137.712113 
L 431.275212 137.791295 
L 432.294511 137.867146 
L 433.313809 137.939795 
L 434.333108 138.009366 
L 435.352406 138.075982 
L 436.371705 138.13976 
L 437.391003 138.200812 
L 438.410302 138.259248 
L 439.4296 138.315174 
L 440.448899 138.368693 
L 441.468197 138.419901 
L 442.487496 138.468895 
L 443.506794 138.515766 
" style="fill:none;stroke:#7570b3;stroke-linecap:square;stroke-width:1.5;"/>
   </g>
   <g id="line2d_83">
    <path clip-path="url(#pafa46194ca)" d="M 351.349028 138.688314 
L 352.279915 136.669212 
L 353.210801 134.821064 
L 354.141688 133.134754 
L 355.072574 131.601479 
L 356.003461 130.212743 
L 356.934347 128.960355 
L 357.865234 127.83642 
L 358.79612 126.833338 
L 359.727007 125.943795 
L 360.657893 125.160765 
L 361.58878 124.477496 
L 362.519667 123.887516 
L 363.450553 123.384621 
L 364.38144 122.962872 
L 365.312326 122.616592 
L 366.243213 122.34036 
L 367.174099 122.129005 
L 368.104986 121.977602 
L 369.035872 121.881467 
L 369.966759 121.83615 
L 370.897645 121.837429 
L 371.828532 121.881305 
L 372.759418 121.963997 
L 373.690305 122.081933 
L 374.621191 122.231745 
L 375.552078 122.410264 
L 376.482964 122.614509 
L 377.413851 122.841685 
L 378.344737 123.089174 
L 379.275624 123.354528 
L 380.206511 123.635461 
L 381.137397 123.929848 
L 382.068284 124.235708 
L 382.99917 124.551208 
L 383.930057 124.87465 
L 384.860943 125.204464 
L 385.79183 125.539205 
L 386.722716 125.877544 
L 387.653603 126.218264 
L 388.584489 126.560251 
L 389.515376 126.902491 
L 390.446262 127.244061 
L 391.377149 127.584127 
L 392.308035 127.921937 
L 393.238922 128.256814 
L 394.169808 128.588154 
L 395.100695 128.915419 
L 396.031581 129.238135 
L 396.962468 129.555885 
L 397.893355 129.868304 
L 398.824241 130.17508 
L 399.755128 130.475945 
L 400.686014 130.770674 
L 401.616901 131.059081 
L 402.547787 131.341015 
L 403.478674 131.61636 
L 404.40956 131.885027 
L 405.340447 132.146957 
L 406.271333 132.402115 
L 407.20222 132.650488 
L 408.133106 132.892083 
L 409.063993 133.126926 
L 409.994879 133.355061 
L 410.925766 133.576543 
L 411.856652 133.791443 
L 412.787539 133.999842 
L 413.718425 134.201832 
L 414.649312 134.397512 
L 415.580199 134.586992 
L 416.511085 134.770385 
L 417.441972 134.947811 
L 418.372858 135.119396 
L 419.303745 135.285266 
L 420.234631 135.445554 
L 421.165518 135.600392 
L 422.096404 135.749917 
L 423.027291 135.894264 
L 423.958177 136.033571 
L 424.889064 136.167974 
L 425.81995 136.297609 
L 426.750837 136.422614 
L 427.681723 136.543122 
L 428.61261 136.659269 
L 429.543496 136.771184 
L 430.474383 136.879 
L 431.405269 136.982844 
L 432.336156 137.082842 
L 433.267043 137.179119 
L 434.197929 137.271795 
L 435.128816 137.360991 
L 436.059702 137.446821 
L 436.990589 137.5294 
L 437.921475 137.608838 
L 438.852362 137.685244 
L 439.783248 137.758724 
L 440.714135 137.829379 
L 441.645021 137.89731 
L 442.575908 137.962613 
L 443.506794 138.025383 
" style="fill:none;stroke:#e7298a;stroke-linecap:square;stroke-width:1.5;"/>
   </g>
   <g id="line2d_84">
    <path clip-path="url(#pafa46194ca)" d="M 357.596355 138.894019 
L 358.464137 136.990302 
L 359.331919 135.236479 
L 360.199701 133.625111 
L 361.067484 132.149002 
L 361.935266 130.801185 
L 362.803048 129.574926 
L 363.67083 128.463717 
L 364.538613 127.461274 
L 365.406395 126.561532 
L 366.274177 125.758642 
L 367.141959 125.046969 
L 368.009741 124.42109 
L 368.877524 123.875785 
L 369.745306 123.406043 
L 370.613088 123.007049 
L 371.48087 122.674188 
L 372.348653 122.403037 
L 373.216435 122.189365 
L 374.084217 122.029126 
L 374.951999 121.918457 
L 375.819781 121.853673 
L 376.687564 121.831267 
L 377.555346 121.847898 
L 378.423128 121.900395 
L 379.29091 121.985747 
L 380.158692 122.101101 
L 381.026475 122.243758 
L 381.894257 122.411166 
L 382.762039 122.600918 
L 383.629821 122.810744 
L 384.497604 123.038509 
L 385.365386 123.282209 
L 386.233168 123.539962 
L 387.10095 123.810007 
L 387.968732 124.090698 
L 388.836515 124.380499 
L 389.704297 124.677979 
L 390.572079 124.981807 
L 391.439861 125.290751 
L 392.307644 125.603666 
L 393.175426 125.919497 
L 394.043208 126.237272 
L 394.91099 126.556096 
L 395.778772 126.875149 
L 396.646555 127.19368 
L 397.514337 127.511007 
L 398.382119 127.826506 
L 399.249901 128.139616 
L 400.117683 128.44983 
L 400.985466 128.75669 
L 401.853248 129.059792 
L 402.72103 129.358771 
L 403.588812 129.65331 
L 404.456595 129.943127 
L 405.324377 130.22798 
L 406.192159 130.507658 
L 407.059941 130.781986 
L 407.927723 131.050813 
L 408.795506 131.314019 
L 409.663288 131.571506 
L 410.53107 131.823201 
L 411.398852 132.069052 
L 412.266635 132.309024 
L 413.134417 132.543101 
L 414.002199 132.771284 
L 414.869981 132.993585 
L 415.737763 133.210034 
L 416.605546 133.420669 
L 417.473328 133.625539 
L 418.34111 133.824704 
L 419.208892 134.018232 
L 420.076674 134.206197 
L 420.944457 134.388682 
L 421.812239 134.565773 
L 422.680021 134.737564 
L 423.547803 134.90415 
L 424.415586 135.065631 
L 425.283368 135.222112 
L 426.15115 135.373697 
L 427.018932 135.520494 
L 427.886714 135.662611 
L 428.754497 135.80016 
L 429.622279 135.93325 
L 430.490061 136.061993 
L 431.357843 136.186499 
L 432.225626 136.306879 
L 433.093408 136.423243 
L 433.96119 136.5357 
L 434.828972 136.644359 
L 435.696754 136.749328 
L 436.564537 136.85071 
L 437.432319 136.948612 
L 438.300101 137.043136 
L 439.167883 137.134382 
L 440.035665 137.222451 
L 440.903448 137.307439 
L 441.77123 137.389442 
L 442.639012 137.468553 
L 443.506794 137.544864 
" style="fill:none;stroke:#66a61e;stroke-linecap:square;stroke-width:1.5;"/>
   </g>
   <g id="patch_6">
    <path d="M 276.054545 144.279132 
L 276.054545 37.379481 
" style="fill:none;stroke:#333333;stroke-linecap:square;stroke-linejoin:miter;"/>
   </g>
   <g id="patch_7">
    <path d="M 276.054545 144.279132 
L 453.6 144.279132 
" style="fill:none;stroke:#333333;stroke-linecap:square;stroke-linejoin:miter;"/>
   </g>
   <g id="text_10">
    <!-- $m=1$ -->
    <g style="fill:#333333;" transform="translate(276.054545 31.379481)">
     <text>
      <tspan style="font-family:DejaVu Sans;font-size:12px;font-style:oblique;font-weight:oblique;" x="0" y="-0.25">m</tspan>
      <tspan style="font-family:DejaVu Sans;font-size:12px;font-style:book;font-weight:book;" x="14.027344 26.419922" y="-0.25">=1</tspan>
     </text>
    </g>
   </g>
  </g>
  <g id="axes_3">
   <g id="patch_8">
    <path d="M 63 272.558714 
L 240.545455 272.558714 
L 240.545455 165.659063 
L 63 165.659063 
z
" style="fill:#ffffff;"/>
   </g>
   <g id="matplotlib.axis_5">
    <g id="xtick_69">
     <g id="line2d_85">
      <g>
       <use style="fill:#333333;stroke:#333333;stroke-width:0.8;" x="63" xlink:href="#m06ba6fad78" y="272.558714"/>
      </g>
     </g>
     <g id="text_11">
      <!-- $10^{-1}$ -->
      <g style="fill:#333333;" transform="translate(51.25 283.657152)">
       <text>
        <tspan style="font-family:DejaVu Sans;font-size:10px;font-style:book;font-weight:book;" x="0 6.362305" y="-0.0640625">10</tspan>
        <tspan style="font-family:DejaVu Sans;font-size:7px;font-style:book;font-weight:book;" x="12.820312 18.685547" y="-3.8921875">−1</tspan>
       </text>
      </g>
     </g>
    </g>
    <g id="xtick_70">
     <g id="line2d_86">
      <g>
       <use style="fill:#333333;stroke:#333333;stroke-width:0.8;" x="113.727273" xlink:href="#m06ba6fad78" y="272.558714"/>
      </g>
     </g>
     <g id="text_12">
      <!-- $10^{0}$ -->
      <g style="fill:#333333;" transform="translate(104.927273 283.657152)">
       <text>
        <tspan style="font-family:DejaVu Sans;font-size:10px;font-style:book;font-weight:book;" x="0 6.362305" y="-0.9765625">10</tspan>
        <tspan style="font-family:DejaVu Sans;font-size:7px;font-style:book;font-weight:book;" x="12.820312" y="-4.8046875">0</tspan>
       </text>
      </g>
     </g>
    </g>
    <g id="xtick_71">
     <g id="line2d_87">
      <g>
       <use style="fill:#333333;stroke:#333333;stroke-width:0.8;" x="164.454545" xlink:href="#m06ba6fad78" y="272.558714"/>
      </g>
     </g>
     <g id="text_13">
      <!-- $10^{1}$ -->
      <g style="fill:#333333;" transform="translate(155.654545 283.657152)">
       <text>
        <tspan style="font-family:DejaVu Sans;font-size:10px;font-style:book;font-weight:book;" x="0 6.362305" y="-0.0640625">10</tspan>
        <tspan style="font-family:DejaVu Sans;font-size:7px;font-style:book;font-weight:book;" x="12.820312" y="-3.8921875">1</tspan>
       </text>
      </g>
     </g>
    </g>
    <g id="xtick_72">
     <g id="line2d_88">
      <g>
       <use style="fill:#333333;stroke:#333333;stroke-width:0.8;" x="215.181818" xlink:href="#m06ba6fad78" y="272.558714"/>
      </g>
     </g>
     <g id="text_14">
      <!-- $10^{2}$ -->
      <g style="fill:#333333;" transform="translate(206.381818 283.657152)">
       <text>
        <tspan style="font-family:DejaVu Sans;font-size:10px;font-style:book;font-weight:book;" x="0 6.362305" y="-0.9765625">10</tspan>
        <tspan style="font-family:DejaVu Sans;font-size:7px;font-style:book;font-weight:book;" x="12.820312" y="-4.8046875">2</tspan>
       </text>
      </g>
     </g>
    </g>
    <g id="xtick_73">
     <g id="line2d_89">
      <g>
       <use style="fill:#333333;stroke:#333333;stroke-width:0.6;" x="63" xlink:href="#mec1f179dea" y="272.558714"/>
      </g>
     </g>
    </g>
    <g id="xtick_74">
     <g id="line2d_90">
      <g>
       <use style="fill:#333333;stroke:#333333;stroke-width:0.6;" x="78.270431" xlink:href="#mec1f179dea" y="272.558714"/>
      </g>
     </g>
    </g>
    <g id="xtick_75">
     <g id="line2d_91">
      <g>
       <use style="fill:#333333;stroke:#333333;stroke-width:0.6;" x="87.20306" xlink:href="#mec1f179dea" y="272.558714"/>
      </g>
     </g>
    </g>
    <g id="xtick_76">
     <g id="line2d_92">
      <g>
       <use style="fill:#333333;stroke:#333333;stroke-width:0.6;" x="93.540861" xlink:href="#mec1f179dea" y="272.558714"/>
      </g>
     </g>
    </g>
    <g id="xtick_77">
     <g id="line2d_93">
      <g>
       <use style="fill:#333333;stroke:#333333;stroke-width:0.6;" x="98.456842" xlink:href="#mec1f179dea" y="272.558714"/>
      </g>
     </g>
    </g>
    <g id="xtick_78">
     <g id="line2d_94">
      <g>
       <use style="fill:#333333;stroke:#333333;stroke-width:0.6;" x="102.473491" xlink:href="#mec1f179dea" y="272.558714"/>
      </g>
     </g>
    </g>
    <g id="xtick_79">
     <g id="line2d_95">
      <g>
       <use style="fill:#333333;stroke:#333333;stroke-width:0.6;" x="105.869519" xlink:href="#mec1f179dea" y="272.558714"/>
      </g>
     </g>
    </g>
    <g id="xtick_80">
     <g id="line2d_96">
      <g>
       <use style="fill:#333333;stroke:#333333;stroke-width:0.6;" x="108.811292" xlink:href="#mec1f179dea" y="272.558714"/>
      </g>
     </g>
    </g>
    <g id="xtick_81">
     <g id="line2d_97">
      <g>
       <use style="fill:#333333;stroke:#333333;stroke-width:0.6;" x="111.40612" xlink:href="#mec1f179dea" y="272.558714"/>
      </g>
     </g>
    </g>
    <g id="xtick_82">
     <g id="line2d_98">
      <g>
       <use style="fill:#333333;stroke:#333333;stroke-width:0.6;" x="113.727273" xlink:href="#mec1f179dea" y="272.558714"/>
      </g>
     </g>
    </g>
    <g id="xtick_83">
     <g id="line2d_99">
      <g>
       <use style="fill:#333333;stroke:#333333;stroke-width:0.6;" x="128.997703" xlink:href="#mec1f179dea" y="272.558714"/>
      </g>
     </g>
    </g>
    <g id="xtick_84">
     <g id="line2d_100">
      <g>
       <use style="fill:#333333;stroke:#333333;stroke-width:0.6;" x="137.930333" xlink:href="#mec1f179dea" y="272.558714"/>
      </g>
     </g>
    </g>
    <g id="xtick_85">
     <g id="line2d_101">
      <g>
       <use style="fill:#333333;stroke:#333333;stroke-width:0.6;" x="144.268134" xlink:href="#mec1f179dea" y="272.558714"/>
      </g>
     </g>
    </g>
    <g id="xtick_86">
     <g id="line2d_102">
      <g>
       <use style="fill:#333333;stroke:#333333;stroke-width:0.6;" x="149.184115" xlink:href="#mec1f179dea" y="272.558714"/>
      </g>
     </g>
    </g>
    <g id="xtick_87">
     <g id="line2d_103">
      <g>
       <use style="fill:#333333;stroke:#333333;stroke-width:0.6;" x="153.200763" xlink:href="#mec1f179dea" y="272.558714"/>
      </g>
     </g>
    </g>
    <g id="xtick_88">
     <g id="line2d_104">
      <g>
       <use style="fill:#333333;stroke:#333333;stroke-width:0.6;" x="156.596791" xlink:href="#mec1f179dea" y="272.558714"/>
      </g>
     </g>
    </g>
    <g id="xtick_89">
     <g id="line2d_105">
      <g>
       <use style="fill:#333333;stroke:#333333;stroke-width:0.6;" x="159.538565" xlink:href="#mec1f179dea" y="272.558714"/>
      </g>
     </g>
    </g>
    <g id="xtick_90">
     <g id="line2d_106">
      <g>
       <use style="fill:#333333;stroke:#333333;stroke-width:0.6;" x="162.133393" xlink:href="#mec1f179dea" y="272.558714"/>
      </g>
     </g>
    </g>
    <g id="xtick_91">
     <g id="line2d_107">
      <g>
       <use style="fill:#333333;stroke:#333333;stroke-width:0.6;" x="164.454545" xlink:href="#mec1f179dea" y="272.558714"/>
      </g>
     </g>
    </g>
    <g id="xtick_92">
     <g id="line2d_108">
      <g>
       <use style="fill:#333333;stroke:#333333;stroke-width:0.6;" x="179.724976" xlink:href="#mec1f179dea" y="272.558714"/>
      </g>
     </g>
    </g>
    <g id="xtick_93">
     <g id="line2d_109">
      <g>
       <use style="fill:#333333;stroke:#333333;stroke-width:0.6;" x="188.657605" xlink:href="#mec1f179dea" y="272.558714"/>
      </g>
     </g>
    </g>
    <g id="xtick_94">
     <g id="line2d_110">
      <g>
       <use style="fill:#333333;stroke:#333333;stroke-width:0.6;" x="194.995407" xlink:href="#mec1f179dea" y="272.558714"/>
      </g>
     </g>
    </g>
    <g id="xtick_95">
     <g id="line2d_111">
      <g>
       <use style="fill:#333333;stroke:#333333;stroke-width:0.6;" x="199.911387" xlink:href="#mec1f179dea" y="272.558714"/>
      </g>
     </g>
    </g>
    <g id="xtick_96">
     <g id="line2d_112">
      <g>
       <use style="fill:#333333;stroke:#333333;stroke-width:0.6;" x="203.928036" xlink:href="#mec1f179dea" y="272.558714"/>
      </g>
     </g>
    </g>
    <g id="xtick_97">
     <g id="line2d_113">
      <g>
       <use style="fill:#333333;stroke:#333333;stroke-width:0.6;" x="207.324064" xlink:href="#mec1f179dea" y="272.558714"/>
      </g>
     </g>
    </g>
    <g id="xtick_98">
     <g id="line2d_114">
      <g>
       <use style="fill:#333333;stroke:#333333;stroke-width:0.6;" x="210.265838" xlink:href="#mec1f179dea" y="272.558714"/>
      </g>
     </g>
    </g>
    <g id="xtick_99">
     <g id="line2d_115">
      <g>
       <use style="fill:#333333;stroke:#333333;stroke-width:0.6;" x="212.860665" xlink:href="#mec1f179dea" y="272.558714"/>
      </g>
     </g>
    </g>
    <g id="xtick_100">
     <g id="line2d_116">
      <g>
       <use style="fill:#333333;stroke:#333333;stroke-width:0.6;" x="215.181818" xlink:href="#mec1f179dea" y="272.558714"/>
      </g>
     </g>
    </g>
    <g id="xtick_101">
     <g id="line2d_117">
      <g>
       <use style="fill:#333333;stroke:#333333;stroke-width:0.6;" x="230.452249" xlink:href="#mec1f179dea" y="272.558714"/>
      </g>
     </g>
    </g>
    <g id="xtick_102">
     <g id="line2d_118">
      <g>
       <use style="fill:#333333;stroke:#333333;stroke-width:0.6;" x="239.384878" xlink:href="#mec1f179dea" y="272.558714"/>
      </g>
     </g>
    </g>
    <g id="text_15">
     <!-- $\sigma_e$ -->
     <g style="fill:#333333;" transform="translate(144.072727 300.374652)">
      <text>
       <tspan style="font-family:DejaVu Sans;font-size:14px;font-style:oblique;font-weight:oblique;" x="0" y="-0.34375">σ</tspan>
       <tspan style="font-family:DejaVu Sans;font-size:9.8px;font-style:oblique;font-weight:oblique;" x="8.873047" y="1.953125">e</tspan>
      </text>
     </g>
    </g>
   </g>
   <g id="matplotlib.axis_6">
    <g id="ytick_9">
     <g id="line2d_119">
      <g>
       <use style="fill:#333333;stroke:#333333;stroke-width:0.8;" x="63" xlink:href="#m11cdb11dd9" y="267.806295"/>
      </g>
     </g>
     <g id="text_16">
      <text style="fill:#333333;font-family:DejaVu Sans;font-size:10px;font-style:normal;font-weight:normal;text-anchor:end;" transform="rotate(-0, 59.5, 271.605513)" x="59.5" y="271.605513">0.0</text>
     </g>
    </g>
    <g id="ytick_10">
     <g id="line2d_120">
      <g>
       <use style="fill:#333333;stroke:#333333;stroke-width:0.8;" x="63" xlink:href="#m11cdb11dd9" y="242.022038"/>
      </g>
     </g>
     <g id="text_17">
      <text style="fill:#333333;font-family:DejaVu Sans;font-size:10px;font-style:normal;font-weight:normal;text-anchor:end;" transform="rotate(-0, 59.5, 245.821256)" x="59.5" y="245.821256">0.5</text>
     </g>
    </g>
    <g id="ytick_11">
     <g id="line2d_121">
      <g>
       <use style="fill:#333333;stroke:#333333;stroke-width:0.8;" x="63" xlink:href="#m11cdb11dd9" y="216.237781"/>
      </g>
     </g>
     <g id="text_18">
      <text style="fill:#333333;font-family:DejaVu Sans;font-size:10px;font-style:normal;font-weight:normal;text-anchor:end;" transform="rotate(-0, 59.5, 220.036999)" x="59.5" y="220.036999">1.0</text>
     </g>
    </g>
    <g id="ytick_12">
     <g id="line2d_122">
      <g>
       <use style="fill:#333333;stroke:#333333;stroke-width:0.8;" x="63" xlink:href="#m11cdb11dd9" y="190.453524"/>
      </g>
     </g>
     <g id="text_19">
      <text style="fill:#333333;font-family:DejaVu Sans;font-size:10px;font-style:normal;font-weight:normal;text-anchor:end;" transform="rotate(-0, 59.5, 194.252742)" x="59.5" y="194.252742">1.5</text>
     </g>
    </g>
    <g id="text_20">
     <!-- $p^{G \rightarrow G'}$ -->
     <g style="fill:#333333;" transform="translate(36.656875 239.128889)rotate(-90)">
      <text>
       <tspan style="font-family:DejaVu Sans;font-size:14px;font-style:oblique;font-weight:oblique;" x="0" y="-0.05328125">p</tspan>
       <tspan style="font-family:DejaVu Sans;font-size:9.8px;font-style:oblique;font-weight:oblique;" x="9.538229 29.162155" y="-5.41265625">GG</tspan>
       <tspan style="font-family:DejaVu Sans;font-size:9.8px;font-style:book;font-weight:book;" x="19.041549" y="-5.41265625">→</tspan>
       <tspan style="font-family:cmsy10;font-size:6.86px;font-style:regular;font-weight:regular;" x="37.461849" y="-9.16421875">0</tspan>
      </text>
     </g>
    </g>
   </g>
   <g id="line2d_123">
    <path clip-path="url(#pb12991ec90)" d="M 129.541696 266.981528 
L 130.560994 265.561361 
L 131.580293 264.294567 
L 132.599591 263.16994 
L 133.61889 262.176872 
L 134.638188 261.305339 
L 135.657487 260.54588 
L 136.676785 259.889577 
L 137.696084 259.328039 
L 138.715382 258.853377 
L 139.734681 258.45819 
L 140.75398 258.135543 
L 141.773278 257.878948 
L 142.792577 257.682343 
L 143.811875 257.540075 
L 144.831174 257.446878 
L 145.850472 257.397859 
L 146.869771 257.388472 
L 147.889069 257.41451 
L 148.908368 257.472075 
L 149.927666 257.557572 
L 150.946965 257.667686 
L 151.966263 257.799364 
L 152.985562 257.949806 
L 154.00486 258.116442 
L 155.024159 258.296923 
L 156.043457 258.489105 
L 157.062756 258.691034 
L 158.082054 258.900934 
L 159.101353 259.117196 
L 160.120651 259.338366 
L 161.13995 259.56313 
L 162.159248 259.79031 
L 163.178547 260.018847 
L 164.197845 260.247797 
L 165.217144 260.476322 
L 166.236442 260.703675 
L 167.255741 260.929203 
L 168.275039 261.152327 
L 169.294338 261.372548 
L 170.313636 261.589431 
L 171.332935 261.802603 
L 172.352234 262.011747 
L 173.371532 262.216597 
L 174.390831 262.416932 
L 175.410129 262.612576 
L 176.429428 262.803385 
L 177.448726 262.989253 
L 178.468025 263.170103 
L 179.487323 263.345884 
L 180.506622 263.516571 
L 181.52592 263.682158 
L 182.545219 263.842659 
L 183.564517 263.998106 
L 184.583816 264.148544 
L 185.603114 264.294031 
L 186.622413 264.434637 
L 187.641711 264.570439 
L 188.66101 264.701524 
L 189.680308 264.827986 
L 190.699607 264.949924 
L 191.718905 265.067441 
L 192.738204 265.180645 
L 193.757502 265.289646 
L 194.776801 265.394556 
L 195.796099 265.495489 
L 196.815398 265.592559 
L 197.834696 265.685881 
L 198.853995 265.775569 
L 199.873293 265.861738 
L 200.892592 265.944501 
L 201.91189 266.023969 
L 202.931189 266.100254 
L 203.950487 266.173463 
L 204.969786 266.243704 
L 205.989085 266.311081 
L 207.008383 266.375697 
L 208.027682 266.437652 
L 209.04698 266.497043 
L 210.066279 266.553967 
L 211.085577 266.608515 
L 212.104876 266.660778 
L 213.124174 266.710844 
L 214.143473 266.758797 
L 215.162771 266.80472 
L 216.18207 266.848692 
L 217.201368 266.890791 
L 218.220667 266.931092 
L 219.239965 266.969666 
L 220.259264 267.006584 
L 221.278562 267.041912 
L 222.297861 267.075716 
L 223.317159 267.108058 
L 224.336458 267.138998 
L 225.355756 267.168594 
L 226.375055 267.196903 
L 227.394353 267.223978 
L 228.413652 267.24987 
L 229.43295 267.274631 
L 230.452249 267.298306 
" style="fill:none;stroke:#d95f02;stroke-linecap:square;stroke-width:1.5;"/>
   </g>
   <g id="line2d_124">
    <path clip-path="url(#pb12991ec90)" d="M 144.541809 267.38537 
L 145.409592 266.129828 
L 146.277374 264.988934 
L 147.145156 263.955587 
L 148.012938 263.023007 
L 148.88072 262.184729 
L 149.748503 261.434589 
L 150.616285 260.766722 
L 151.484067 260.175549 
L 152.351849 259.65577 
L 153.219632 259.202356 
L 154.087414 258.810537 
L 154.955196 258.475799 
L 155.822978 258.193868 
L 156.69076 257.96071 
L 157.558543 257.772512 
L 158.426325 257.625682 
L 159.294107 257.516838 
L 160.161889 257.442796 
L 161.029671 257.400566 
L 161.897454 257.387342 
L 162.765236 257.400493 
L 163.633018 257.437556 
L 164.5008 257.496229 
L 165.368583 257.574361 
L 166.236365 257.669948 
L 167.104147 257.781122 
L 167.971929 257.906146 
L 168.839711 258.043407 
L 169.707494 258.191408 
L 170.575276 258.348764 
L 171.443058 258.514194 
L 172.31084 258.686515 
L 173.178623 258.864639 
L 174.046405 259.047562 
L 174.914187 259.234364 
L 175.781969 259.424202 
L 176.649751 259.616305 
L 177.517534 259.809968 
L 178.385316 260.004552 
L 179.253098 260.199474 
L 180.12088 260.394208 
L 180.988662 260.588278 
L 181.856445 260.781257 
L 182.724227 260.972762 
L 183.592009 261.162449 
L 184.459791 261.350015 
L 185.327574 261.535191 
L 186.195356 261.71774 
L 187.063138 261.897456 
L 187.93092 262.074161 
L 188.798702 262.247701 
L 189.666485 262.417947 
L 190.534267 262.584791 
L 191.402049 262.748143 
L 192.269831 262.907934 
L 193.137614 263.064109 
L 194.005396 263.216629 
L 194.873178 263.365469 
L 195.74096 263.510614 
L 196.608742 263.652063 
L 197.476525 263.789823 
L 198.344307 263.92391 
L 199.212089 264.054349 
L 200.079871 264.181173 
L 200.947653 264.304418 
L 201.815436 264.424128 
L 202.683218 264.540353 
L 203.551 264.653144 
L 204.418782 264.762558 
L 205.286565 264.868655 
L 206.154347 264.971498 
L 207.022129 265.07115 
L 207.889911 265.167678 
L 208.757693 265.261151 
L 209.625476 265.351637 
L 210.493258 265.439205 
L 211.36104 265.523928 
L 212.228822 265.605874 
L 213.096605 265.685116 
L 213.964387 265.761723 
L 214.832169 265.835767 
L 215.699951 265.907316 
L 216.567733 265.976442 
L 217.435516 266.043211 
L 218.303298 266.107693 
L 219.17108 266.169953 
L 220.038862 266.230059 
L 220.906644 266.288073 
L 221.774427 266.344061 
L 222.642209 266.398085 
L 223.509991 266.450205 
L 224.377773 266.500482 
L 225.245556 266.548974 
L 226.113338 266.595739 
L 226.98112 266.640832 
L 227.848902 266.684308 
L 228.716684 266.726221 
L 229.584467 266.766621 
L 230.452249 266.805559 
" style="fill:none;stroke:#7570b3;stroke-linecap:square;stroke-width:1.5;"/>
   </g>
   <g id="line2d_125">
    <path clip-path="url(#pb12991ec90)" d="M 153.383591 267.52374 
L 154.162062 266.380818 
L 154.940533 265.331374 
L 155.719005 264.370221 
L 156.497476 263.492382 
L 157.275947 262.693084 
L 158.054419 261.967756 
L 158.83289 261.312018 
L 159.611361 260.721684 
L 160.389832 260.192753 
L 161.168304 259.721401 
L 161.946775 259.303982 
L 162.725246 258.93702 
L 163.503718 258.617202 
L 164.282189 258.341377 
L 165.06066 258.106547 
L 165.839132 257.909865 
L 166.617603 257.748628 
L 167.396074 257.620272 
L 168.174545 257.52237 
L 168.953017 257.452622 
L 169.731488 257.408855 
L 170.509959 257.389014 
L 171.288431 257.391162 
L 172.066902 257.413469 
L 172.845373 257.454215 
L 173.623844 257.511779 
L 174.402316 257.584637 
L 175.180787 257.671359 
L 175.959258 257.770603 
L 176.73773 257.881113 
L 177.516201 258.00171 
L 178.294672 258.131295 
L 179.073144 258.268841 
L 179.851615 258.413389 
L 180.630086 258.564048 
L 181.408557 258.719986 
L 182.187029 258.880435 
L 182.9655 259.044677 
L 183.743971 259.212051 
L 184.522443 259.381944 
L 185.300914 259.553792 
L 186.079385 259.727073 
L 186.857856 259.901308 
L 187.636328 260.076057 
L 188.414799 260.250917 
L 189.19327 260.42552 
L 189.971742 260.599531 
L 190.750213 260.772644 
L 191.528684 260.944583 
L 192.307155 261.115098 
L 193.085627 261.283963 
L 193.864098 261.450978 
L 194.642569 261.615963 
L 195.421041 261.778758 
L 196.199512 261.939221 
L 196.977983 262.09723 
L 197.756455 262.252677 
L 198.534926 262.40547 
L 199.313397 262.55553 
L 200.091868 262.702792 
L 200.87034 262.847203 
L 201.648811 262.988718 
L 202.427282 263.127306 
L 203.205754 263.262943 
L 203.984225 263.395613 
L 204.762696 263.525309 
L 205.541167 263.65203 
L 206.319639 263.775782 
L 207.09811 263.896578 
L 207.876581 264.014432 
L 208.655053 264.129369 
L 209.433524 264.241412 
L 210.211995 264.350592 
L 210.990467 264.456943 
L 211.768938 264.560499 
L 212.547409 264.6613 
L 213.32588 264.759387 
L 214.104352 264.854803 
L 214.882823 264.947593 
L 215.661294 265.037803 
L 216.439766 265.125481 
L 217.218237 265.210675 
L 217.996708 265.293436 
L 218.775179 265.373813 
L 219.553651 265.451856 
L 220.332122 265.527617 
L 221.110593 265.601147 
L 221.889065 265.672496 
L 222.667536 265.741717 
L 223.446007 265.808859 
L 224.224479 265.873974 
L 225.00295 265.937112 
L 225.781421 265.998322 
L 226.559892 266.057654 
L 227.338364 266.115157 
L 228.116835 266.170878 
L 228.895306 266.224866 
L 229.673778 266.277168 
L 230.452249 266.327828 
" style="fill:none;stroke:#e7298a;stroke-linecap:square;stroke-width:1.5;"/>
   </g>
   <g id="line2d_126">
    <path clip-path="url(#pb12991ec90)" d="M 159.675827 267.593647 
L 160.390741 266.535273 
L 161.105654 265.556362 
L 161.820567 264.652867 
L 162.535481 263.82089 
L 163.250394 263.056681 
L 163.965307 262.356632 
L 164.680221 261.717277 
L 165.395134 261.135287 
L 166.110048 260.607466 
L 166.824961 260.13075 
L 167.539874 259.7022 
L 168.254788 259.319005 
L 168.969701 258.978471 
L 169.684614 258.678024 
L 170.399528 258.415202 
L 171.114441 258.187657 
L 171.829354 257.993144 
L 172.544268 257.829526 
L 173.259181 257.694765 
L 173.974094 257.586922 
L 174.689008 257.504152 
L 175.403921 257.4447 
L 176.118834 257.4069 
L 176.833748 257.389171 
L 177.548661 257.390014 
L 178.263574 257.408008 
L 178.978488 257.441808 
L 179.693401 257.490141 
L 180.408314 257.551807 
L 181.123228 257.625668 
L 181.838141 257.710656 
L 182.553055 257.805759 
L 183.267968 257.910029 
L 183.982881 258.022571 
L 184.697795 258.142544 
L 185.412708 258.269161 
L 186.127621 258.40168 
L 186.842535 258.53941 
L 187.557448 258.681702 
L 188.272361 258.82795 
L 188.987275 258.977587 
L 189.702188 259.130087 
L 190.417101 259.284958 
L 191.132015 259.441743 
L 191.846928 259.600019 
L 192.561841 259.759391 
L 193.276755 259.919495 
L 193.991668 260.079997 
L 194.706581 260.240584 
L 195.421495 260.400972 
L 196.136408 260.560898 
L 196.851321 260.720121 
L 197.566235 260.878423 
L 198.281148 261.035602 
L 198.996062 261.191476 
L 199.710975 261.34588 
L 200.425888 261.498665 
L 201.140802 261.649697 
L 201.855715 261.798855 
L 202.570628 261.946034 
L 203.285542 262.091139 
L 204.000455 262.234085 
L 204.715368 262.374802 
L 205.430282 262.513227 
L 206.145195 262.649307 
L 206.860108 262.782996 
L 207.575022 262.914259 
L 208.289935 263.043067 
L 209.004848 263.169397 
L 209.719762 263.293233 
L 210.434675 263.414565 
L 211.149588 263.533388 
L 211.864502 263.649702 
L 212.579415 263.763512 
L 213.294329 263.874827 
L 214.009242 263.98366 
L 214.724155 264.090025 
L 215.439069 264.193943 
L 216.153982 264.295435 
L 216.868895 264.394526 
L 217.583809 264.491242 
L 218.298722 264.585612 
L 219.013635 264.677667 
L 219.728549 264.767439 
L 220.443462 264.854961 
L 221.158375 264.940268 
L 221.873289 265.023397 
L 222.588202 265.104383 
L 223.303115 265.183265 
L 224.018029 265.260081 
L 224.732942 265.334869 
L 225.447855 265.407668 
L 226.162769 265.478517 
L 226.877682 265.547457 
L 227.592595 265.614526 
L 228.307509 265.679765 
L 229.022422 265.743213 
L 229.737336 265.804909 
L 230.452249 265.864892 
" style="fill:none;stroke:#66a61e;stroke-linecap:square;stroke-width:1.5;"/>
   </g>
   <g id="patch_9">
    <path d="M 63 272.558714 
L 63 165.659063 
" style="fill:none;stroke:#333333;stroke-linecap:square;stroke-linejoin:miter;"/>
   </g>
   <g id="patch_10">
    <path d="M 63 272.558714 
L 240.545455 272.558714 
" style="fill:none;stroke:#333333;stroke-linecap:square;stroke-linejoin:miter;"/>
   </g>
   <g id="text_21">
    <!-- $m=2$ -->
    <g style="fill:#333333;" transform="translate(63 159.659063)">
     <text>
      <tspan style="font-family:DejaVu Sans;font-size:12px;font-style:oblique;font-weight:oblique;" x="0" y="-0.09375">m</tspan>
      <tspan style="font-family:DejaVu Sans;font-size:12px;font-style:book;font-weight:book;" x="14.027344 26.419922" y="-0.09375">=2</tspan>
     </text>
    </g>
   </g>
  </g>
  <g id="axes_4">
   <g id="patch_11">
    <path d="M 276.054545 272.558714 
L 453.6 272.558714 
L 453.6 165.659063 
L 276.054545 165.659063 
z
" style="fill:#ffffff;"/>
   </g>
   <g id="matplotlib.axis_7">
    <g id="xtick_103">
     <g id="line2d_127">
      <g>
       <use style="fill:#333333;stroke:#333333;stroke-width:0.8;" x="276.054545" xlink:href="#m06ba6fad78" y="272.558714"/>
      </g>
     </g>
     <g id="text_22">
      <!-- $10^{-1}$ -->
      <g style="fill:#333333;" transform="translate(264.304545 283.657152)">
       <text>
        <tspan style="font-family:DejaVu Sans;font-size:10px;font-style:book;font-weight:book;" x="0 6.362305" y="-0.0640625">10</tspan>
        <tspan style="font-family:DejaVu Sans;font-size:7px;font-style:book;font-weight:book;" x="12.820312 18.685547" y="-3.8921875">−1</tspan>
       </text>
      </g>
     </g>
    </g>
    <g id="xtick_104">
     <g id="line2d_128">
      <g>
       <use style="fill:#333333;stroke:#333333;stroke-width:0.8;" x="326.781818" xlink:href="#m06ba6fad78" y="272.558714"/>
      </g>
     </g>
     <g id="text_23">
      <!-- $10^{0}$ -->
      <g style="fill:#333333;" transform="translate(317.981818 283.657152)">
       <text>
        <tspan style="font-family:DejaVu Sans;font-size:10px;font-style:book;font-weight:book;" x="0 6.362305" y="-0.9765625">10</tspan>
        <tspan style="font-family:DejaVu Sans;font-size:7px;font-style:book;font-weight:book;" x="12.820312" y="-4.8046875">0</tspan>
       </text>
      </g>
     </g>
    </g>
    <g id="xtick_105">
     <g id="line2d_129">
      <g>
       <use style="fill:#333333;stroke:#333333;stroke-width:0.8;" x="377.509091" xlink:href="#m06ba6fad78" y="272.558714"/>
      </g>
     </g>
     <g id="text_24">
      <!-- $10^{1}$ -->
      <g style="fill:#333333;" transform="translate(368.709091 283.657152)">
       <text>
        <tspan style="font-family:DejaVu Sans;font-size:10px;font-style:book;font-weight:book;" x="0 6.362305" y="-0.0640625">10</tspan>
        <tspan style="font-family:DejaVu Sans;font-size:7px;font-style:book;font-weight:book;" x="12.820312" y="-3.8921875">1</tspan>
       </text>
      </g>
     </g>
    </g>
    <g id="xtick_106">
     <g id="line2d_130">
      <g>
       <use style="fill:#333333;stroke:#333333;stroke-width:0.8;" x="428.236364" xlink:href="#m06ba6fad78" y="272.558714"/>
      </g>
     </g>
     <g id="text_25">
      <!-- $10^{2}$ -->
      <g style="fill:#333333;" transform="translate(419.436364 283.657152)">
       <text>
        <tspan style="font-family:DejaVu Sans;font-size:10px;font-style:book;font-weight:book;" x="0 6.362305" y="-0.9765625">10</tspan>
        <tspan style="font-family:DejaVu Sans;font-size:7px;font-style:book;font-weight:book;" x="12.820312" y="-4.8046875">2</tspan>
       </text>
      </g>
     </g>
    </g>
    <g id="xtick_107">
     <g id="line2d_131">
      <g>
       <use style="fill:#333333;stroke:#333333;stroke-width:0.6;" x="276.054545" xlink:href="#mec1f179dea" y="272.558714"/>
      </g>
     </g>
    </g>
    <g id="xtick_108">
     <g id="line2d_132">
      <g>
       <use style="fill:#333333;stroke:#333333;stroke-width:0.6;" x="291.324976" xlink:href="#mec1f179dea" y="272.558714"/>
      </g>
     </g>
    </g>
    <g id="xtick_109">
     <g id="line2d_133">
      <g>
       <use style="fill:#333333;stroke:#333333;stroke-width:0.6;" x="300.257605" xlink:href="#mec1f179dea" y="272.558714"/>
      </g>
     </g>
    </g>
    <g id="xtick_110">
     <g id="line2d_134">
      <g>
       <use style="fill:#333333;stroke:#333333;stroke-width:0.6;" x="306.595407" xlink:href="#mec1f179dea" y="272.558714"/>
      </g>
     </g>
    </g>
    <g id="xtick_111">
     <g id="line2d_135">
      <g>
       <use style="fill:#333333;stroke:#333333;stroke-width:0.6;" x="311.511387" xlink:href="#mec1f179dea" y="272.558714"/>
      </g>
     </g>
    </g>
    <g id="xtick_112">
     <g id="line2d_136">
      <g>
       <use style="fill:#333333;stroke:#333333;stroke-width:0.6;" x="315.528036" xlink:href="#mec1f179dea" y="272.558714"/>
      </g>
     </g>
    </g>
    <g id="xtick_113">
     <g id="line2d_137">
      <g>
       <use style="fill:#333333;stroke:#333333;stroke-width:0.6;" x="318.924064" xlink:href="#mec1f179dea" y="272.558714"/>
      </g>
     </g>
    </g>
    <g id="xtick_114">
     <g id="line2d_138">
      <g>
       <use style="fill:#333333;stroke:#333333;stroke-width:0.6;" x="321.865838" xlink:href="#mec1f179dea" y="272.558714"/>
      </g>
     </g>
    </g>
    <g id="xtick_115">
     <g id="line2d_139">
      <g>
       <use style="fill:#333333;stroke:#333333;stroke-width:0.6;" x="324.460665" xlink:href="#mec1f179dea" y="272.558714"/>
      </g>
     </g>
    </g>
    <g id="xtick_116">
     <g id="line2d_140">
      <g>
       <use style="fill:#333333;stroke:#333333;stroke-width:0.6;" x="326.781818" xlink:href="#mec1f179dea" y="272.558714"/>
      </g>
     </g>
    </g>
    <g id="xtick_117">
     <g id="line2d_141">
      <g>
       <use style="fill:#333333;stroke:#333333;stroke-width:0.6;" x="342.052249" xlink:href="#mec1f179dea" y="272.558714"/>
      </g>
     </g>
    </g>
    <g id="xtick_118">
     <g id="line2d_142">
      <g>
       <use style="fill:#333333;stroke:#333333;stroke-width:0.6;" x="350.984878" xlink:href="#mec1f179dea" y="272.558714"/>
      </g>
     </g>
    </g>
    <g id="xtick_119">
     <g id="line2d_143">
      <g>
       <use style="fill:#333333;stroke:#333333;stroke-width:0.6;" x="357.32268" xlink:href="#mec1f179dea" y="272.558714"/>
      </g>
     </g>
    </g>
    <g id="xtick_120">
     <g id="line2d_144">
      <g>
       <use style="fill:#333333;stroke:#333333;stroke-width:0.6;" x="362.23866" xlink:href="#mec1f179dea" y="272.558714"/>
      </g>
     </g>
    </g>
    <g id="xtick_121">
     <g id="line2d_145">
      <g>
       <use style="fill:#333333;stroke:#333333;stroke-width:0.6;" x="366.255309" xlink:href="#mec1f179dea" y="272.558714"/>
      </g>
     </g>
    </g>
    <g id="xtick_122">
     <g id="line2d_146">
      <g>
       <use style="fill:#333333;stroke:#333333;stroke-width:0.6;" x="369.651337" xlink:href="#mec1f179dea" y="272.558714"/>
      </g>
     </g>
    </g>
    <g id="xtick_123">
     <g id="line2d_147">
      <g>
       <use style="fill:#333333;stroke:#333333;stroke-width:0.6;" x="372.59311" xlink:href="#mec1f179dea" y="272.558714"/>
      </g>
     </g>
    </g>
    <g id="xtick_124">
     <g id="line2d_148">
      <g>
       <use style="fill:#333333;stroke:#333333;stroke-width:0.6;" x="375.187938" xlink:href="#mec1f179dea" y="272.558714"/>
      </g>
     </g>
    </g>
    <g id="xtick_125">
     <g id="line2d_149">
      <g>
       <use style="fill:#333333;stroke:#333333;stroke-width:0.6;" x="377.509091" xlink:href="#mec1f179dea" y="272.558714"/>
      </g>
     </g>
    </g>
    <g id="xtick_126">
     <g id="line2d_150">
      <g>
       <use style="fill:#333333;stroke:#333333;stroke-width:0.6;" x="392.779522" xlink:href="#mec1f179dea" y="272.558714"/>
      </g>
     </g>
    </g>
    <g id="xtick_127">
     <g id="line2d_151">
      <g>
       <use style="fill:#333333;stroke:#333333;stroke-width:0.6;" x="401.712151" xlink:href="#mec1f179dea" y="272.558714"/>
      </g>
     </g>
    </g>
    <g id="xtick_128">
     <g id="line2d_152">
      <g>
       <use style="fill:#333333;stroke:#333333;stroke-width:0.6;" x="408.049952" xlink:href="#mec1f179dea" y="272.558714"/>
      </g>
     </g>
    </g>
    <g id="xtick_129">
     <g id="line2d_153">
      <g>
       <use style="fill:#333333;stroke:#333333;stroke-width:0.6;" x="412.965933" xlink:href="#mec1f179dea" y="272.558714"/>
      </g>
     </g>
    </g>
    <g id="xtick_130">
     <g id="line2d_154">
      <g>
       <use style="fill:#333333;stroke:#333333;stroke-width:0.6;" x="416.982582" xlink:href="#mec1f179dea" y="272.558714"/>
      </g>
     </g>
    </g>
    <g id="xtick_131">
     <g id="line2d_155">
      <g>
       <use style="fill:#333333;stroke:#333333;stroke-width:0.6;" x="420.37861" xlink:href="#mec1f179dea" y="272.558714"/>
      </g>
     </g>
    </g>
    <g id="xtick_132">
     <g id="line2d_156">
      <g>
       <use style="fill:#333333;stroke:#333333;stroke-width:0.6;" x="423.320383" xlink:href="#mec1f179dea" y="272.558714"/>
      </g>
     </g>
    </g>
    <g id="xtick_133">
     <g id="line2d_157">
      <g>
       <use style="fill:#333333;stroke:#333333;stroke-width:0.6;" x="425.915211" xlink:href="#mec1f179dea" y="272.558714"/>
      </g>
     </g>
    </g>
    <g id="xtick_134">
     <g id="line2d_158">
      <g>
       <use style="fill:#333333;stroke:#333333;stroke-width:0.6;" x="428.236364" xlink:href="#mec1f179dea" y="272.558714"/>
      </g>
     </g>
    </g>
    <g id="xtick_135">
     <g id="line2d_159">
      <g>
       <use style="fill:#333333;stroke:#333333;stroke-width:0.6;" x="443.506794" xlink:href="#mec1f179dea" y="272.558714"/>
      </g>
     </g>
    </g>
    <g id="xtick_136">
     <g id="line2d_160">
      <g>
       <use style="fill:#333333;stroke:#333333;stroke-width:0.6;" x="452.439424" xlink:href="#mec1f179dea" y="272.558714"/>
      </g>
     </g>
    </g>
    <g id="text_26">
     <!-- $\sigma_e$ -->
     <g style="fill:#333333;" transform="translate(357.127273 300.374652)">
      <text>
       <tspan style="font-family:DejaVu Sans;font-size:14px;font-style:oblique;font-weight:oblique;" x="0" y="-0.34375">σ</tspan>
       <tspan style="font-family:DejaVu Sans;font-size:9.8px;font-style:oblique;font-weight:oblique;" x="8.873047" y="1.953125">e</tspan>
      </text>
     </g>
    </g>
   </g>
   <g id="matplotlib.axis_8">
    <g id="ytick_13">
     <g id="line2d_161">
      <g>
       <use style="fill:#333333;stroke:#333333;stroke-width:0.8;" x="276.054545" xlink:href="#m11cdb11dd9" y="267.806295"/>
      </g>
     </g>
    </g>
    <g id="ytick_14">
     <g id="line2d_162">
      <g>
       <use style="fill:#333333;stroke:#333333;stroke-width:0.8;" x="276.054545" xlink:href="#m11cdb11dd9" y="242.022038"/>
      </g>
     </g>
    </g>
    <g id="ytick_15">
     <g id="line2d_163">
      <g>
       <use style="fill:#333333;stroke:#333333;stroke-width:0.8;" x="276.054545" xlink:href="#m11cdb11dd9" y="216.237781"/>
      </g>
     </g>
    </g>
    <g id="ytick_16">
     <g id="line2d_164">
      <g>
       <use style="fill:#333333;stroke:#333333;stroke-width:0.8;" x="276.054545" xlink:href="#m11cdb11dd9" y="190.453524"/>
      </g>
     </g>
    </g>
    <g id="text_27">
     <!-- $p^{G \rightarrow G'}$ -->
     <g style="fill:#333333;" transform="translate(269.114545 239.128889)rotate(-90)">
      <text>
       <tspan style="font-family:DejaVu Sans;font-size:14px;font-style:oblique;font-weight:oblique;" x="0" y="-0.05328125">p</tspan>
       <tspan style="font-family:DejaVu Sans;font-size:9.8px;font-style:oblique;font-weight:oblique;" x="9.538229 29.162155" y="-5.41265625">GG</tspan>
       <tspan style="font-family:DejaVu Sans;font-size:9.8px;font-style:book;font-weight:book;" x="19.041549" y="-5.41265625">→</tspan>
       <tspan style="font-family:cmsy10;font-size:6.86px;font-style:regular;font-weight:regular;" x="37.461849" y="-9.16421875">0</tspan>
      </text>
     </g>
    </g>
   </g>
   <g id="line2d_165">
    <path clip-path="url(#p82e657a438)" d="M 351.349028 267.38882 
L 352.279915 266.398231 
L 353.210801 265.511389 
L 354.141688 264.720663 
L 355.072574 264.018862 
L 356.003461 263.399214 
L 356.934347 262.855356 
L 357.865234 262.381307 
L 358.79612 261.971461 
L 359.727007 261.620561 
L 360.657893 261.323688 
L 361.58878 261.076244 
L 362.519667 260.873933 
L 363.450553 260.712751 
L 364.38144 260.588965 
L 365.312326 260.499106 
L 366.243213 260.439944 
L 367.174099 260.408487 
L 368.104986 260.401958 
L 369.035872 260.417786 
L 369.966759 260.453596 
L 370.897645 260.507194 
L 371.828532 260.576555 
L 372.759418 260.659818 
L 373.690305 260.755269 
L 374.621191 260.861336 
L 375.552078 260.976578 
L 376.482964 261.099676 
L 377.413851 261.229424 
L 378.344737 261.364724 
L 379.275624 261.504576 
L 380.206511 261.648072 
L 381.137397 261.794388 
L 382.068284 261.94278 
L 382.99917 262.092576 
L 383.930057 262.243172 
L 384.860943 262.394025 
L 385.79183 262.544652 
L 386.722716 262.694619 
L 387.653603 262.843545 
L 388.584489 262.991089 
L 389.515376 263.136955 
L 390.446262 263.280883 
L 391.377149 263.422645 
L 392.308035 263.562048 
L 393.238922 263.698926 
L 394.169808 263.833137 
L 395.100695 263.964567 
L 396.031581 264.093118 
L 396.962468 264.218717 
L 397.893355 264.341303 
L 398.824241 264.460836 
L 399.755128 264.577286 
L 400.686014 264.690638 
L 401.616901 264.800888 
L 402.547787 264.908041 
L 403.478674 265.012112 
L 404.40956 265.113125 
L 405.340447 265.211108 
L 406.271333 265.306098 
L 407.20222 265.398136 
L 408.133106 265.487268 
L 409.063993 265.573543 
L 409.994879 265.657015 
L 410.925766 265.73774 
L 411.856652 265.815775 
L 412.787539 265.891182 
L 413.718425 265.964021 
L 414.649312 266.034356 
L 415.580199 266.102249 
L 416.511085 266.167765 
L 417.441972 266.230968 
L 418.372858 266.291922 
L 419.303745 266.350691 
L 420.234631 266.40734 
L 421.165518 266.46193 
L 422.096404 266.514525 
L 423.027291 266.565186 
L 423.958177 266.613974 
L 424.889064 266.660949 
L 425.81995 266.706169 
L 426.750837 266.749692 
L 427.681723 266.791574 
L 428.61261 266.83187 
L 429.543496 266.870635 
L 430.474383 266.90792 
L 431.405269 266.943777 
L 432.336156 266.978257 
L 433.267043 267.011406 
L 434.197929 267.043274 
L 435.128816 267.073905 
L 436.059702 267.103344 
L 436.990589 267.131634 
L 437.921475 267.158818 
L 438.852362 267.184936 
L 439.783248 267.210028 
L 440.714135 267.234131 
L 441.645021 267.257282 
L 442.575908 267.279518 
L 443.506794 267.300872 
" style="fill:none;stroke:#d95f02;stroke-linecap:square;stroke-width:1.5;"/>
   </g>
   <g id="line2d_166">
    <path clip-path="url(#p82e657a438)" d="M 366.438136 267.594525 
L 367.216608 266.741032 
L 367.995079 265.962077 
L 368.77355 265.25308 
L 369.552021 264.609682 
L 370.330493 264.027735 
L 371.108964 263.503297 
L 371.887435 263.032624 
L 372.665907 262.612161 
L 373.444378 262.238539 
L 374.222849 261.908564 
L 375.001321 261.619214 
L 375.779792 261.367628 
L 376.558263 261.151102 
L 377.336734 260.967084 
L 378.115206 260.813163 
L 378.893677 260.687068 
L 379.672148 260.586659 
L 380.45062 260.509919 
L 381.229091 260.454955 
L 382.007562 260.419985 
L 382.786033 260.403337 
L 383.564505 260.403443 
L 384.342976 260.418834 
L 385.121447 260.448133 
L 385.899919 260.490052 
L 386.67839 260.543388 
L 387.456861 260.607019 
L 388.235332 260.679897 
L 389.013804 260.761045 
L 389.792275 260.849555 
L 390.570746 260.944583 
L 391.349218 261.045343 
L 392.127689 261.15111 
L 392.90616 261.261208 
L 393.684632 261.375015 
L 394.463103 261.491953 
L 395.241574 261.611493 
L 396.020045 261.733144 
L 396.798517 261.856455 
L 397.576988 261.981014 
L 398.355459 262.106441 
L 399.133931 262.23239 
L 399.912402 262.358543 
L 400.690873 262.484613 
L 401.469344 262.610338 
L 402.247816 262.73548 
L 403.026287 262.859825 
L 403.804758 262.983179 
L 404.58323 263.105369 
L 405.361701 263.22624 
L 406.140172 263.345654 
L 406.918644 263.463489 
L 407.697115 263.579638 
L 408.475586 263.694007 
L 409.254057 263.806514 
L 410.032529 263.91709 
L 410.811 264.025675 
L 411.589471 264.132222 
L 412.367943 264.236688 
L 413.146414 264.339044 
L 413.924885 264.439263 
L 414.703356 264.53733 
L 415.481828 264.633233 
L 416.260299 264.726966 
L 417.03877 264.81853 
L 417.817242 264.90793 
L 418.595713 264.995174 
L 419.374184 265.080277 
L 420.152656 265.163253 
L 420.931127 265.244123 
L 421.709598 265.322909 
L 422.488069 265.399636 
L 423.266541 265.474331 
L 424.045012 265.547023 
L 424.823483 265.617743 
L 425.601955 265.686522 
L 426.380426 265.753395 
L 427.158897 265.818396 
L 427.937368 265.881559 
L 428.71584 265.942921 
L 429.494311 266.002518 
L 430.272782 266.060388 
L 431.051254 266.116568 
L 431.829725 266.171094 
L 432.608196 266.224006 
L 433.386668 266.275339 
L 434.165139 266.325133 
L 434.94361 266.373423 
L 435.722081 266.420248 
L 436.500553 266.465644 
L 437.279024 266.509648 
L 438.057495 266.552295 
L 438.835967 266.593621 
L 439.614438 266.633661 
L 440.392909 266.67245 
L 441.17138 266.710023 
L 441.949852 266.746412 
L 442.728323 266.78165 
L 443.506794 266.815771 
" style="fill:none;stroke:#7570b3;stroke-linecap:square;stroke-width:1.5;"/>
   </g>
   <g id="line2d_167">
    <path clip-path="url(#p82e657a438)" d="M 375.309992 267.664431 
L 375.998848 266.899959 
L 376.687705 266.194561 
L 377.376561 265.545026 
L 378.065418 264.948278 
L 378.754275 264.401373 
L 379.443131 263.901496 
L 380.131988 263.445954 
L 380.820844 263.032178 
L 381.509701 262.657713 
L 382.198557 262.320216 
L 382.887414 262.017455 
L 383.576271 261.747301 
L 384.265127 261.507729 
L 384.953984 261.296809 
L 385.64284 261.112708 
L 386.331697 260.953682 
L 387.020554 260.818074 
L 387.70941 260.704313 
L 388.398267 260.610908 
L 389.087123 260.536444 
L 389.77598 260.479583 
L 390.464837 260.439056 
L 391.153693 260.413664 
L 391.84255 260.402272 
L 392.531406 260.40381 
L 393.220263 260.417265 
L 393.90912 260.441683 
L 394.597976 260.476165 
L 395.286833 260.519863 
L 395.975689 260.57198 
L 396.664546 260.631764 
L 397.353403 260.698512 
L 398.042259 260.77156 
L 398.731116 260.850289 
L 399.419972 260.934114 
L 400.108829 261.022492 
L 400.797686 261.114911 
L 401.486542 261.210895 
L 402.175399 261.309997 
L 402.864255 261.411804 
L 403.553112 261.515927 
L 404.241968 261.622005 
L 404.930825 261.729705 
L 405.619682 261.838713 
L 406.308538 261.948743 
L 406.997395 262.059526 
L 407.686251 262.170815 
L 408.375108 262.282383 
L 409.063965 262.394019 
L 409.752821 262.505529 
L 410.441678 262.616737 
L 411.130534 262.727479 
L 411.819391 262.837606 
L 412.508248 262.946984 
L 413.197104 263.055488 
L 413.885961 263.163007 
L 414.574817 263.26944 
L 415.263674 263.374697 
L 415.952531 263.478695 
L 416.641387 263.581362 
L 417.330244 263.682634 
L 418.0191 263.782454 
L 418.707957 263.880774 
L 419.396814 263.977549 
L 420.08567 264.072743 
L 420.774527 264.166325 
L 421.463383 264.258271 
L 422.15224 264.348558 
L 422.841097 264.437172 
L 423.529953 264.5241 
L 424.21881 264.609334 
L 424.907666 264.69287 
L 425.596523 264.774708 
L 426.285379 264.854848 
L 426.974236 264.933296 
L 427.663093 265.010058 
L 428.351949 265.085145 
L 429.040806 265.158569 
L 429.729662 265.230342 
L 430.418519 265.30048 
L 431.107376 265.369 
L 431.796232 265.435921 
L 432.485089 265.501261 
L 433.173945 265.565041 
L 433.862802 265.627283 
L 434.551659 265.68801 
L 435.240515 265.747243 
L 435.929372 265.805009 
L 436.618228 265.86133 
L 437.307085 265.916231 
L 437.995942 265.969738 
L 438.684798 266.021876 
L 439.373655 266.072671 
L 440.062511 266.122149 
L 440.751368 266.170336 
L 441.440225 266.217257 
L 442.129081 266.26294 
L 442.817938 266.307409 
L 443.506794 266.350691 
" style="fill:none;stroke:#e7298a;stroke-linecap:square;stroke-width:1.5;"/>
   </g>
   <g id="line2d_168">
    <path clip-path="url(#p82e657a438)" d="M 381.617343 267.699639 
L 382.242489 267.000897 
L 382.867635 266.351175 
L 383.492781 265.748056 
L 384.117927 265.189212 
L 384.743073 264.672407 
L 385.368219 264.195493 
L 385.993365 263.756408 
L 386.618511 263.353172 
L 387.243657 262.983888 
L 387.868803 262.646735 
L 388.493949 262.339969 
L 389.119095 262.061919 
L 389.744241 261.810988 
L 390.369387 261.585646 
L 390.994533 261.38443 
L 391.619679 261.205942 
L 392.244824 261.048848 
L 392.86997 260.911872 
L 393.495116 260.793799 
L 394.120262 260.693468 
L 394.745408 260.609775 
L 395.370554 260.541664 
L 395.9957 260.488135 
L 396.620846 260.448233 
L 397.245992 260.42105 
L 397.871138 260.405724 
L 398.496284 260.401435 
L 399.12143 260.407405 
L 399.746576 260.422897 
L 400.371722 260.44721 
L 400.996868 260.47968 
L 401.622014 260.519681 
L 402.24716 260.566616 
L 402.872306 260.619924 
L 403.497452 260.679073 
L 404.122598 260.743561 
L 404.747744 260.812913 
L 405.37289 260.886683 
L 405.998036 260.964449 
L 406.623182 261.045813 
L 407.248328 261.130402 
L 407.873474 261.217864 
L 408.49862 261.30787 
L 409.123766 261.40011 
L 409.748912 261.494291 
L 410.374058 261.590143 
L 410.999204 261.687409 
L 411.62435 261.785852 
L 412.249496 261.885247 
L 412.874642 261.985388 
L 413.499788 262.086079 
L 414.124934 262.187142 
L 414.75008 262.288407 
L 415.375226 262.389719 
L 416.000371 262.490933 
L 416.625517 262.591916 
L 417.250663 262.692545 
L 417.875809 262.792705 
L 418.500955 262.892291 
L 419.126101 262.991208 
L 419.751247 263.089366 
L 420.376393 263.186687 
L 421.001539 263.283095 
L 421.626685 263.378525 
L 422.251831 263.472917 
L 422.876977 263.566215 
L 423.502123 263.658372 
L 424.127269 263.749344 
L 424.752415 263.839092 
L 425.377561 263.927582 
L 426.002707 264.014786 
L 426.627853 264.100678 
L 427.252999 264.185235 
L 427.878145 264.26844 
L 428.503291 264.350278 
L 429.128437 264.430738 
L 429.753583 264.509809 
L 430.378729 264.587487 
L 431.003875 264.663766 
L 431.629021 264.738647 
L 432.254167 264.812128 
L 432.879313 264.884214 
L 433.504459 264.954907 
L 434.129605 265.024215 
L 434.754751 265.092144 
L 435.379897 265.158705 
L 436.005043 265.223906 
L 436.630189 265.287759 
L 437.255335 265.350277 
L 437.880481 265.411474 
L 438.505627 265.471362 
L 439.130773 265.529958 
L 439.755918 265.587278 
L 440.381064 265.643337 
L 441.00621 265.698153 
L 441.631356 265.751743 
L 442.256502 265.804125 
L 442.881648 265.855317 
L 443.506794 265.905338 
" style="fill:none;stroke:#66a61e;stroke-linecap:square;stroke-width:1.5;"/>
   </g>
   <g id="patch_12">
    <path d="M 276.054545 272.558714 
L 276.054545 165.659063 
" style="fill:none;stroke:#333333;stroke-linecap:square;stroke-linejoin:miter;"/>
   </g>
   <g id="patch_13">
    <path d="M 276.054545 272.558714 
L 453.6 272.558714 
" style="fill:none;stroke:#333333;stroke-linecap:square;stroke-linejoin:miter;"/>
   </g>
   <g id="text_28">
    <!-- $m=3$ -->
    <g style="fill:#333333;" transform="translate(276.054545 159.659063)">
     <text>
      <tspan style="font-family:DejaVu Sans;font-size:12px;font-style:oblique;font-weight:oblique;" x="0" y="-0.09375">m</tspan>
      <tspan style="font-family:DejaVu Sans;font-size:12px;font-style:book;font-weight:book;" x="14.027344 26.419922" y="-0.09375">=3</tspan>
     </text>
    </g>
   </g>
   <g id="legend_1">
    <g id="patch_14">
     <path d="M 460.6 247.049688 
L 486.9625 247.049688 
Q 488.9625 247.049688 488.9625 245.049688 
L 488.9625 172.659063 
Q 488.9625 170.659063 486.9625 170.659063 
L 460.6 170.659063 
Q 458.6 170.659063 458.6 172.659063 
L 458.6 245.049688 
Q 458.6 247.049688 460.6 247.049688 
z
" style="fill:#ffffff;opacity:0.8;stroke:#ffffff;stroke-linejoin:miter;"/>
    </g>
    <g id="text_29">
     <!-- $n=$ -->
     <g style="fill:#333333;" transform="translate(464.43125 182.2575)">
      <text>
       <tspan style="font-family:DejaVu Sans;font-size:10px;font-style:oblique;font-weight:oblique;" x="0" y="-0.40625">n</tspan>
       <tspan style="font-family:DejaVu Sans;font-size:10px;font-style:book;font-weight:book;" x="8.286133" y="-0.40625">=</tspan>
      </text>
     </g>
    </g>
    <g id="line2d_169">
     <path d="M 462.6 193.435625 
L 470.6 193.435625 
" style="fill:none;stroke:#d95f02;stroke-linecap:square;stroke-width:1.5;"/>
    </g>
    <g id="line2d_170"/>
    <g id="text_30">
     <text style="fill:#333333;font-family:DejaVu Sans;font-size:10px;font-style:normal;font-weight:normal;text-anchor:start;" transform="rotate(-0, 478.6, 196.935625)" x="478.6" y="196.935625">1</text>
    </g>
    <g id="line2d_171">
     <path d="M 462.6 208.11375 
L 470.6 208.11375 
" style="fill:none;stroke:#7570b3;stroke-linecap:square;stroke-width:1.5;"/>
    </g>
    <g id="line2d_172"/>
    <g id="text_31">
     <text style="fill:#333333;font-family:DejaVu Sans;font-size:10px;font-style:normal;font-weight:normal;text-anchor:start;" transform="rotate(-0, 478.6, 211.61375)" x="478.6" y="211.61375">2</text>
    </g>
    <g id="line2d_173">
     <path d="M 462.6 222.791875 
L 470.6 222.791875 
" style="fill:none;stroke:#e7298a;stroke-linecap:square;stroke-width:1.5;"/>
    </g>
    <g id="line2d_174"/>
    <g id="text_32">
     <text style="fill:#333333;font-family:DejaVu Sans;font-size:10px;font-style:normal;font-weight:normal;text-anchor:start;" transform="rotate(-0, 478.6, 226.291875)" x="478.6" y="226.291875">3</text>
    </g>
    <g id="line2d_175">
     <path d="M 462.6 237.47 
L 470.6 237.47 
" style="fill:none;stroke:#66a61e;stroke-linecap:square;stroke-width:1.5;"/>
    </g>
    <g id="line2d_176"/>
    <g id="text_33">
     <text style="fill:#333333;font-family:DejaVu Sans;font-size:10px;font-style:normal;font-weight:normal;text-anchor:start;" transform="rotate(-0, 478.6, 240.97)" x="478.6" y="240.97">4</text>
    </g>
   </g>
  </g>
 </g>
 <defs>
  <clipPath id="p78fb32734f">
   <rect height="106.899652" width="177.545455" x="63" y="37.379481"/>
  </clipPath>
  <clipPath id="pafa46194ca">
   <rect height="106.899652" width="177.545455" x="276.054545" y="37.379481"/>
  </clipPath>
  <clipPath id="pb12991ec90">
   <rect height="106.899652" width="177.545455" x="63" y="165.659063"/>
  </clipPath>
  <clipPath id="p82e657a438">
   <rect height="106.899652" width="177.545455" x="276.054545" y="165.659063"/>
  </clipPath>
 </defs>
</svg>
