<?xml version="1.0" encoding="utf-8" standalone="no"?>
<!DOCTYPE svg PUBLIC "-//W3C//DTD SVG 1.1//EN"
  "http://www.w3.org/Graphics/SVG/1.1/DTD/svg11.dtd">
<!-- Created with matplotlib (http://matplotlib.org/) -->
<svg height="288pt" version="1.1" viewBox="0 0 21.6 288" width="21.6pt" xmlns="http://www.w3.org/2000/svg" xmlns:xlink="http://www.w3.org/1999/xlink">
 <defs>
  <style type="text/css">
*{stroke-linecap:butt;stroke-linejoin:round;}
  </style>
 </defs>
 <g id="figure_1">
  <g id="patch_1">
   <path d="M 0 288 
L 21.6 288 
L 21.6 0 
L 0 0 
z
" style="fill:#ffffff;"/>
  </g>
  <g id="axes_1">
   <g id="patch_2">
    <path d="M 2.7 252 
L 19.44 252 
L 19.44 34.56 
L 2.7 34.56 
z
" style="fill:#ffffff;"/>
   </g>
   <g id="patch_3">
    <path clip-path="url(#p2937df9a63)" d="M 3.460909 242.116364 
L 3.460909 222.349091 
L 18.679091 222.349091 
L 18.679091 242.116364 
z
" style="fill:#5e4fa2;stroke:#5e4fa2;stroke-linejoin:miter;"/>
   </g>
   <g id="patch_4">
    <path clip-path="url(#p2937df9a63)" d="M 3.460909 222.349091 
L 3.460909 202.581818 
L 18.679091 202.581818 
L 18.679091 222.349091 
z
" style="fill:#3288bd;stroke:#3288bd;stroke-linejoin:miter;"/>
   </g>
   <g id="patch_5">
    <path clip-path="url(#p2937df9a63)" d="M 3.460909 202.581818 
L 3.460909 182.814545 
L 18.679091 182.814545 
L 18.679091 202.581818 
z
" style="fill:#66c2a5;stroke:#66c2a5;stroke-linejoin:miter;"/>
   </g>
   <g id="patch_6">
    <path clip-path="url(#p2937df9a63)" d="M 3.460909 182.814545 
L 3.460909 163.047273 
L 18.679091 163.047273 
L 18.679091 182.814545 
z
" style="fill:#abdda4;stroke:#abdda4;stroke-linejoin:miter;"/>
   </g>
   <g id="patch_7">
    <path clip-path="url(#p2937df9a63)" d="M 3.460909 163.047273 
L 3.460909 143.28 
L 18.679091 143.28 
L 18.679091 163.047273 
z
" style="fill:#e6f598;stroke:#e6f598;stroke-linejoin:miter;"/>
   </g>
   <g id="patch_8">
    <path clip-path="url(#p2937df9a63)" d="M 3.460909 143.28 
L 3.460909 123.512727 
L 18.679091 123.512727 
L 18.679091 143.28 
z
" style="fill:#fee08b;stroke:#fee08b;stroke-linejoin:miter;"/>
   </g>
   <g id="patch_9">
    <path clip-path="url(#p2937df9a63)" d="M 3.460909 123.512727 
L 3.460909 103.745455 
L 18.679091 103.745455 
L 18.679091 123.512727 
z
" style="fill:#fdae61;stroke:#fdae61;stroke-linejoin:miter;"/>
   </g>
   <g id="patch_10">
    <path clip-path="url(#p2937df9a63)" d="M 3.460909 103.745455 
L 3.460909 83.978182 
L 18.679091 83.978182 
L 18.679091 103.745455 
z
" style="fill:#f46d43;stroke:#f46d43;stroke-linejoin:miter;"/>
   </g>
   <g id="patch_11">
    <path clip-path="url(#p2937df9a63)" d="M 3.460909 83.978182 
L 3.460909 64.210909 
L 18.679091 64.210909 
L 18.679091 83.978182 
z
" style="fill:#d53e4f;stroke:#d53e4f;stroke-linejoin:miter;"/>
   </g>
   <g id="patch_12">
    <path clip-path="url(#p2937df9a63)" d="M 3.460909 64.210909 
L 3.460909 44.443636 
L 18.679091 44.443636 
L 18.679091 64.210909 
z
" style="fill:#9e0142;stroke:#9e0142;stroke-linejoin:miter;"/>
   </g>
   <g id="matplotlib.axis_1">
    <g id="ytick_1">
     <g id="line2d_1">
      <defs>
       <path d="M 0 0 
L 4 0 
" id="m6bd1db2a46" style="stroke:#333333;stroke-width:0.8;"/>
      </defs>
      <g>
       <use style="fill:#333333;stroke:#333333;stroke-width:0.8;" x="2.7" xlink:href="#m6bd1db2a46" y="242.116364"/>
      </g>
     </g>
     <g id="text_1">
      <text style="fill:#333333;font-family:Arial;font-size:10px;font-style:normal;font-weight:normal;text-anchor:end;" transform="rotate(-0, -0.8, 245.69527)" x="-0.8" y="245.69527">0.0</text>
     </g>
    </g>
    <g id="ytick_2">
     <g id="line2d_2">
      <g>
       <use style="fill:#333333;stroke:#333333;stroke-width:0.8;" x="2.7" xlink:href="#m6bd1db2a46" y="202.581818"/>
      </g>
     </g>
     <g id="text_2">
      <text style="fill:#333333;font-family:Arial;font-size:10px;font-style:normal;font-weight:normal;text-anchor:end;" transform="rotate(-0, -0.8, 206.160724)" x="-0.8" y="206.160724">0.2</text>
     </g>
    </g>
    <g id="ytick_3">
     <g id="line2d_3">
      <g>
       <use style="fill:#333333;stroke:#333333;stroke-width:0.8;" x="2.7" xlink:href="#m6bd1db2a46" y="163.047273"/>
      </g>
     </g>
     <g id="text_3">
      <text style="fill:#333333;font-family:Arial;font-size:10px;font-style:normal;font-weight:normal;text-anchor:end;" transform="rotate(-0, -0.8, 166.626179)" x="-0.8" y="166.626179">0.4</text>
     </g>
    </g>
    <g id="ytick_4">
     <g id="line2d_4">
      <g>
       <use style="fill:#333333;stroke:#333333;stroke-width:0.8;" x="2.7" xlink:href="#m6bd1db2a46" y="123.512727"/>
      </g>
     </g>
     <g id="text_4">
      <text style="fill:#333333;font-family:Arial;font-size:10px;font-style:normal;font-weight:normal;text-anchor:end;" transform="rotate(-0, -0.8, 127.091634)" x="-0.8" y="127.091634">0.6</text>
     </g>
    </g>
    <g id="ytick_5">
     <g id="line2d_5">
      <g>
       <use style="fill:#333333;stroke:#333333;stroke-width:0.8;" x="2.7" xlink:href="#m6bd1db2a46" y="83.978182"/>
      </g>
     </g>
     <g id="text_5">
      <text style="fill:#333333;font-family:Arial;font-size:10px;font-style:normal;font-weight:normal;text-anchor:end;" transform="rotate(-0, -0.8, 87.557088)" x="-0.8" y="87.557088">0.8</text>
     </g>
    </g>
    <g id="ytick_6">
     <g id="line2d_6">
      <g>
       <use style="fill:#333333;stroke:#333333;stroke-width:0.8;" x="2.7" xlink:href="#m6bd1db2a46" y="44.443636"/>
      </g>
     </g>
     <g id="text_6">
      <text style="fill:#333333;font-family:Arial;font-size:10px;font-style:normal;font-weight:normal;text-anchor:end;" transform="rotate(-0, -0.8, 48.022543)" x="-0.8" y="48.022543">1.0</text>
     </g>
    </g>
    <g id="text_7">
     <text style="fill:#333333;font-family:Arial;font-size:10px;font-style:normal;font-weight:normal;text-anchor:middle;" transform="rotate(-90, -20.6875, 143.28)" x="-20.6875" y="143.28">Node fraction</text>
    </g>
   </g>
   <g id="patch_13">
    <path d="M 2.7 252 
L 2.7 34.56 
" style="fill:none;stroke:#333333;stroke-linecap:square;stroke-linejoin:miter;"/>
   </g>
   <g id="patch_14">
    <path d="M 2.7 252 
L 19.44 252 
" style="fill:none;stroke:#333333;stroke-linecap:square;stroke-linejoin:miter;"/>
   </g>
  </g>
 </g>
 <defs>
  <clipPath id="p2937df9a63">
   <rect height="217.44" width="16.74" x="2.7" y="34.56"/>
  </clipPath>
 </defs>
</svg>
