<?xml version="1.0" encoding="utf-8" standalone="no"?>
<!DOCTYPE svg PUBLIC "-//W3C//DTD SVG 1.1//EN"
  "http://www.w3.org/Graphics/SVG/1.1/DTD/svg11.dtd">
<!-- Created with matplotlib (http://matplotlib.org/) -->
<svg height="155.747837pt" version="1.1" viewBox="0 0 216 155.747837" width="216pt" xmlns="http://www.w3.org/2000/svg" xmlns:xlink="http://www.w3.org/1999/xlink">
 <defs>
  <style type="text/css">
*{stroke-linecap:butt;stroke-linejoin:round;}
  </style>
 </defs>
 <g id="figure_1">
  <g id="patch_1">
   <path d="M 0 155.747837 
L 216 155.747837 
L 216 0 
L 0 0 
z
" style="fill:#ffffff;"/>
  </g>
  <g id="axes_1">
   <g id="patch_2">
    <path d="M 27 136.279357 
L 194.4 136.279357 
L 194.4 18.68974 
L 27 18.68974 
z
" style="fill:#ffffff;"/>
   </g>
   <g id="PolyCollection_1">
    <defs>
     <path d="M 51.138905 -27.040826 
L 44.711095 -27.040826 
L 44.473919 -28.075147 
L 44.248503 -29.109468 
L 44.037641 -30.14379 
L 43.843529 -31.178111 
L 43.667675 -32.212432 
L 43.510834 -33.246754 
L 43.372983 -34.281075 
L 43.253332 -35.315396 
L 43.150348 -36.349718 
L 43.061823 -37.384039 
L 42.984939 -38.41836 
L 42.916359 -39.452682 
L 42.852323 -40.487003 
L 42.788747 -41.521324 
L 42.721343 -42.555646 
L 42.645732 -43.589967 
L 42.557585 -44.624289 
L 42.452768 -45.65861 
L 42.327503 -46.692931 
L 42.178546 -47.727253 
L 42.003361 -48.761574 
L 41.800301 -49.795895 
L 41.56877 -50.830217 
L 41.30935 -51.864538 
L 41.0239 -52.898859 
L 40.715579 -53.933181 
L 40.388821 -54.967502 
L 40.049221 -56.001823 
L 39.703362 -57.036145 
L 39.358561 -58.070466 
L 39.022575 -59.104787 
L 38.703256 -60.139109 
L 38.408205 -61.17343 
L 38.144419 -62.207751 
L 37.91798 -63.242073 
L 37.73379 -64.276394 
L 37.595377 -65.310715 
L 37.504777 -66.345037 
L 37.4625 -67.379358 
L 37.467572 -68.413679 
L 37.517657 -69.448001 
L 37.609234 -70.482322 
L 37.737818 -71.516643 
L 37.898216 -72.550965 
L 38.084788 -73.585286 
L 38.291712 -74.619607 
L 38.513232 -75.653929 
L 38.743885 -76.68825 
L 38.978694 -77.722571 
L 39.213335 -78.756893 
L 39.444253 -79.791214 
L 39.668754 -80.825535 
L 39.885049 -81.859857 
L 40.092263 -82.894178 
L 40.290399 -83.928499 
L 40.480272 -84.962821 
L 40.663398 -85.997142 
L 40.841858 -87.031463 
L 41.018126 -88.065785 
L 41.194886 -89.100106 
L 41.374837 -90.134427 
L 41.560489 -91.168749 
L 41.753989 -92.20307 
L 41.95696 -93.237391 
L 42.170384 -94.271713 
L 42.394526 -95.306034 
L 42.628907 -96.340355 
L 42.872339 -97.374677 
L 43.122996 -98.408998 
L 43.378539 -99.443319 
L 43.636258 -100.477641 
L 43.893252 -101.511962 
L 44.146593 -102.546283 
L 44.393499 -103.580605 
L 44.631468 -104.614926 
L 44.858399 -105.649247 
L 45.072658 -106.683569 
L 45.27312 -107.71789 
L 45.459163 -108.752211 
L 45.630633 -109.786533 
L 45.787788 -110.820854 
L 45.931214 -111.855175 
L 46.06175 -112.889497 
L 46.1804 -113.923818 
L 46.28826 -114.958139 
L 46.386459 -115.992461 
L 46.476115 -117.026782 
L 46.5583 -118.061103 
L 46.63403 -119.095425 
L 46.704252 -120.129746 
L 46.769852 -121.164067 
L 46.83165 -122.198389 
L 46.890403 -123.23271 
L 46.946805 -124.267031 
L 47.001474 -125.301353 
L 47.054947 -126.335674 
L 47.107663 -127.369995 
L 47.159949 -128.404317 
L 47.21201 -129.438638 
L 48.63799 -129.438638 
L 48.63799 -129.438638 
L 48.690051 -128.404317 
L 48.742337 -127.369995 
L 48.795053 -126.335674 
L 48.848526 -125.301353 
L 48.903195 -124.267031 
L 48.959597 -123.23271 
L 49.01835 -122.198389 
L 49.080148 -121.164067 
L 49.145748 -120.129746 
L 49.21597 -119.095425 
L 49.2917 -118.061103 
L 49.373885 -117.026782 
L 49.463541 -115.992461 
L 49.56174 -114.958139 
L 49.6696 -113.923818 
L 49.78825 -112.889497 
L 49.918786 -111.855175 
L 50.062212 -110.820854 
L 50.219367 -109.786533 
L 50.390837 -108.752211 
L 50.57688 -107.71789 
L 50.777342 -106.683569 
L 50.991601 -105.649247 
L 51.218532 -104.614926 
L 51.456501 -103.580605 
L 51.703407 -102.546283 
L 51.956748 -101.511962 
L 52.213742 -100.477641 
L 52.471461 -99.443319 
L 52.727004 -98.408998 
L 52.977661 -97.374677 
L 53.221093 -96.340355 
L 53.455474 -95.306034 
L 53.679616 -94.271713 
L 53.89304 -93.237391 
L 54.096011 -92.20307 
L 54.289511 -91.168749 
L 54.475163 -90.134427 
L 54.655114 -89.100106 
L 54.831874 -88.065785 
L 55.008142 -87.031463 
L 55.186602 -85.997142 
L 55.369728 -84.962821 
L 55.559601 -83.928499 
L 55.757737 -82.894178 
L 55.964951 -81.859857 
L 56.181246 -80.825535 
L 56.405747 -79.791214 
L 56.636665 -78.756893 
L 56.871306 -77.722571 
L 57.106115 -76.68825 
L 57.336768 -75.653929 
L 57.558288 -74.619607 
L 57.765212 -73.585286 
L 57.951784 -72.550965 
L 58.112182 -71.516643 
L 58.240766 -70.482322 
L 58.332343 -69.448001 
L 58.382428 -68.413679 
L 58.3875 -67.379358 
L 58.345223 -66.345037 
L 58.254623 -65.310715 
L 58.11621 -64.276394 
L 57.93202 -63.242073 
L 57.705581 -62.207751 
L 57.441795 -61.17343 
L 57.146744 -60.139109 
L 56.827425 -59.104787 
L 56.491439 -58.070466 
L 56.146638 -57.036145 
L 55.800779 -56.001823 
L 55.461179 -54.967502 
L 55.134421 -53.933181 
L 54.8261 -52.898859 
L 54.54065 -51.864538 
L 54.28123 -50.830217 
L 54.049699 -49.795895 
L 53.846639 -48.761574 
L 53.671454 -47.727253 
L 53.522497 -46.692931 
L 53.397232 -45.65861 
L 53.292415 -44.624289 
L 53.204268 -43.589967 
L 53.128657 -42.555646 
L 53.061253 -41.521324 
L 52.997677 -40.487003 
L 52.933641 -39.452682 
L 52.865061 -38.41836 
L 52.788177 -37.384039 
L 52.699652 -36.349718 
L 52.596668 -35.315396 
L 52.477017 -34.281075 
L 52.339166 -33.246754 
L 52.182325 -32.212432 
L 52.006471 -31.178111 
L 51.812359 -30.14379 
L 51.601497 -29.109468 
L 51.376081 -28.075147 
L 51.138905 -27.040826 
z
" id="m75b3fc1935" style="stroke:#ffffff;"/>
    </defs>
    <g clip-path="url(#pfef42ba6fe)">
     <use style="fill:#66a61e;stroke:#ffffff;" x="0" xlink:href="#m75b3fc1935" y="155.747837"/>
    </g>
   </g>
   <g id="PolyCollection_2">
    <defs>
     <path d="M 96.755319 -24.746733 
L 82.794681 -24.746733 
L 82.060049 -25.648601 
L 81.377404 -26.550468 
L 80.768378 -27.452336 
L 80.251518 -28.354204 
L 79.841086 -29.256071 
L 79.546235 -30.157939 
L 79.370624 -31.059807 
L 79.3125 -31.961675 
L 79.365209 -32.863542 
L 79.518061 -33.76541 
L 79.757431 -34.667278 
L 80.067983 -35.569145 
L 80.43386 -36.471013 
L 80.839749 -37.372881 
L 81.271727 -38.274749 
L 81.717822 -39.176616 
L 82.168288 -40.078484 
L 82.615601 -40.980352 
L 83.054236 -41.882219 
L 83.480287 -42.784087 
L 83.891014 -43.685955 
L 84.284401 -44.587822 
L 84.65878 -45.48969 
L 85.012586 -46.391558 
L 85.344241 -47.293426 
L 85.652182 -48.195293 
L 85.934992 -49.097161 
L 86.191602 -49.999029 
L 86.421507 -50.900896 
L 86.624942 -51.802764 
L 86.802998 -52.704632 
L 86.957637 -53.6065 
L 87.091604 -54.508367 
L 87.208251 -55.410235 
L 87.311291 -56.312103 
L 87.404513 -57.21397 
L 87.491502 -58.115838 
L 87.575387 -59.017706 
L 87.658646 -59.919573 
L 87.74299 -60.821441 
L 87.829329 -61.723309 
L 87.917811 -62.625177 
L 88.007929 -63.527044 
L 88.098671 -64.428912 
L 88.188696 -65.33078 
L 88.276507 -66.232647 
L 88.360611 -67.134515 
L 88.439643 -68.036383 
L 88.512461 -68.938251 
L 88.578196 -69.840118 
L 88.636266 -70.741986 
L 88.686377 -71.643854 
L 88.728493 -72.545721 
L 88.762819 -73.447589 
L 88.789767 -74.349457 
L 88.809949 -75.251324 
L 88.824159 -76.153192 
L 88.83337 -77.05506 
L 88.838726 -77.956928 
L 88.841514 -78.858795 
L 88.843139 -79.760663 
L 88.845057 -80.662531 
L 88.848704 -81.564398 
L 88.855404 -82.466266 
L 88.866264 -83.368134 
L 88.882087 -84.270002 
L 88.903294 -85.171869 
L 88.92988 -86.073737 
L 88.961418 -86.975605 
L 88.997097 -87.877472 
L 89.035815 -88.77934 
L 89.0763 -89.681208 
L 89.117245 -90.583075 
L 89.157453 -91.484943 
L 89.19595 -92.386811 
L 89.23207 -93.288679 
L 89.265486 -94.190546 
L 89.296195 -95.092414 
L 89.324451 -95.994282 
L 89.350669 -96.896149 
L 89.375313 -97.798017 
L 89.398785 -98.699885 
L 89.421339 -99.601753 
L 89.443029 -100.50362 
L 89.463703 -101.405488 
L 89.483035 -102.307356 
L 89.500593 -103.209223 
L 89.515935 -104.111091 
L 89.528698 -105.012959 
L 89.538687 -105.914826 
L 89.545935 -106.816694 
L 89.550728 -107.718562 
L 89.553594 -108.62043 
L 89.555253 -109.522297 
L 89.556543 -110.424165 
L 89.558326 -111.326033 
L 89.561396 -112.2279 
L 89.566387 -113.129768 
L 89.573718 -114.031636 
L 89.976282 -114.031636 
L 89.976282 -114.031636 
L 89.983613 -113.129768 
L 89.988604 -112.2279 
L 89.991674 -111.326033 
L 89.993457 -110.424165 
L 89.994747 -109.522297 
L 89.996406 -108.62043 
L 89.999272 -107.718562 
L 90.004065 -106.816694 
L 90.011313 -105.914826 
L 90.021302 -105.012959 
L 90.034065 -104.111091 
L 90.049407 -103.209223 
L 90.066965 -102.307356 
L 90.086297 -101.405488 
L 90.106971 -100.50362 
L 90.128661 -99.601753 
L 90.151215 -98.699885 
L 90.174687 -97.798017 
L 90.199331 -96.896149 
L 90.225549 -95.994282 
L 90.253805 -95.092414 
L 90.284514 -94.190546 
L 90.31793 -93.288679 
L 90.35405 -92.386811 
L 90.392547 -91.484943 
L 90.432755 -90.583075 
L 90.4737 -89.681208 
L 90.514185 -88.77934 
L 90.552903 -87.877472 
L 90.588582 -86.975605 
L 90.62012 -86.073737 
L 90.646706 -85.171869 
L 90.667913 -84.270002 
L 90.683736 -83.368134 
L 90.694596 -82.466266 
L 90.701296 -81.564398 
L 90.704943 -80.662531 
L 90.706861 -79.760663 
L 90.708486 -78.858795 
L 90.711274 -77.956928 
L 90.71663 -77.05506 
L 90.725841 -76.153192 
L 90.740051 -75.251324 
L 90.760233 -74.349457 
L 90.787181 -73.447589 
L 90.821507 -72.545721 
L 90.863623 -71.643854 
L 90.913734 -70.741986 
L 90.971804 -69.840118 
L 91.037539 -68.938251 
L 91.110357 -68.036383 
L 91.189389 -67.134515 
L 91.273493 -66.232647 
L 91.361304 -65.33078 
L 91.451329 -64.428912 
L 91.542071 -63.527044 
L 91.632189 -62.625177 
L 91.720671 -61.723309 
L 91.80701 -60.821441 
L 91.891354 -59.919573 
L 91.974613 -59.017706 
L 92.058498 -58.115838 
L 92.145487 -57.21397 
L 92.238709 -56.312103 
L 92.341749 -55.410235 
L 92.458396 -54.508367 
L 92.592363 -53.6065 
L 92.747002 -52.704632 
L 92.925058 -51.802764 
L 93.128493 -50.900896 
L 93.358398 -49.999029 
L 93.615008 -49.097161 
L 93.897818 -48.195293 
L 94.205759 -47.293426 
L 94.537414 -46.391558 
L 94.89122 -45.48969 
L 95.265599 -44.587822 
L 95.658986 -43.685955 
L 96.069713 -42.784087 
L 96.495764 -41.882219 
L 96.934399 -40.980352 
L 97.381712 -40.078484 
L 97.832178 -39.176616 
L 98.278273 -38.274749 
L 98.710251 -37.372881 
L 99.11614 -36.471013 
L 99.482017 -35.569145 
L 99.792569 -34.667278 
L 100.031939 -33.76541 
L 100.184791 -32.863542 
L 100.2375 -31.961675 
L 100.179376 -31.059807 
L 100.003765 -30.157939 
L 99.708914 -29.256071 
L 99.298482 -28.354204 
L 98.781622 -27.452336 
L 98.172596 -26.550468 
L 97.489951 -25.648601 
L 96.755319 -24.746733 
z
" id="m8d5b30753e" style="stroke:#ffffff;"/>
    </defs>
    <g clip-path="url(#pfef42ba6fe)">
     <use style="fill:#66a61e;stroke:#ffffff;" x="0" xlink:href="#m8d5b30753e" y="155.747837"/>
    </g>
   </g>
   <g id="PolyCollection_3">
    <defs>
     <path d="M 138.897806 -24.381112 
L 124.352194 -24.381112 
L 123.544113 -25.358192 
L 122.811396 -26.335273 
L 122.185046 -27.312354 
L 121.691403 -28.289435 
L 121.350138 -29.266516 
L 121.172862 -30.243597 
L 121.1625 -31.220678 
L 121.31344 -32.197758 
L 121.612398 -33.174839 
L 122.039839 -34.15192 
L 122.571739 -35.129001 
L 123.181504 -36.106082 
L 123.84183 -37.083163 
L 124.526359 -38.060243 
L 125.211043 -39.037324 
L 125.875146 -40.014405 
L 126.50189 -40.991486 
L 127.078758 -41.968567 
L 127.597494 -42.945648 
L 128.053852 -43.922728 
L 128.447159 -44.899809 
L 128.779736 -45.87689 
L 129.056242 -46.853971 
L 129.283006 -47.831052 
L 129.467368 -48.808133 
L 129.617099 -49.785214 
L 129.739888 -50.762294 
L 129.842952 -51.739375 
L 129.932726 -52.716456 
L 130.01467 -53.693537 
L 130.093148 -54.670618 
L 130.171386 -55.647699 
L 130.251493 -56.624779 
L 130.334529 -57.60186 
L 130.420615 -58.578941 
L 130.509079 -59.556022 
L 130.598631 -60.533103 
L 130.68754 -61.510184 
L 130.773833 -62.487265 
L 130.855474 -63.464345 
L 130.930529 -64.441426 
L 130.997307 -65.418507 
L 131.054462 -66.395588 
L 131.10107 -67.372669 
L 131.13667 -68.34975 
L 131.161275 -69.32683 
L 131.17537 -70.303911 
L 131.179879 -71.280992 
L 131.176122 -72.258073 
L 131.165745 -73.235154 
L 131.150643 -74.212235 
L 131.132855 -75.189315 
L 131.114452 -76.166396 
L 131.097409 -77.143477 
L 131.083487 -78.120558 
L 131.074123 -79.097639 
L 131.070346 -80.07472 
L 131.072731 -81.051801 
L 131.081388 -82.028881 
L 131.096006 -83.005962 
L 131.115919 -83.983043 
L 131.140214 -84.960124 
L 131.167843 -85.937205 
L 131.197735 -86.914286 
L 131.228896 -87.891366 
L 131.260474 -88.868447 
L 131.291799 -89.845528 
L 131.322379 -90.822609 
L 131.351875 -91.79969 
L 131.380057 -92.776771 
L 131.406747 -93.753851 
L 131.431769 -94.730932 
L 131.454916 -95.708013 
L 131.475931 -96.685094 
L 131.494507 -97.662175 
L 131.510319 -98.639256 
L 131.523051 -99.616337 
L 131.532444 -100.593417 
L 131.538338 -101.570498 
L 131.540705 -102.547579 
L 131.539676 -103.52466 
L 131.535541 -104.501741 
L 131.528743 -105.478822 
L 131.519848 -106.455902 
L 131.509503 -107.432983 
L 131.498386 -108.410064 
L 131.487156 -109.387145 
L 131.476405 -110.364226 
L 131.466627 -111.341307 
L 131.458198 -112.318387 
L 131.451379 -113.295468 
L 131.44633 -114.272549 
L 131.44314 -115.24963 
L 131.441852 -116.226711 
L 131.442489 -117.203792 
L 131.445068 -118.180873 
L 131.449593 -119.157953 
L 131.456049 -120.135034 
L 131.464372 -121.112115 
L 131.785628 -121.112115 
L 131.785628 -121.112115 
L 131.793951 -120.135034 
L 131.800407 -119.157953 
L 131.804932 -118.180873 
L 131.807511 -117.203792 
L 131.808148 -116.226711 
L 131.80686 -115.24963 
L 131.80367 -114.272549 
L 131.798621 -113.295468 
L 131.791802 -112.318387 
L 131.783373 -111.341307 
L 131.773595 -110.364226 
L 131.762844 -109.387145 
L 131.751614 -108.410064 
L 131.740497 -107.432983 
L 131.730152 -106.455902 
L 131.721257 -105.478822 
L 131.714459 -104.501741 
L 131.710324 -103.52466 
L 131.709295 -102.547579 
L 131.711662 -101.570498 
L 131.717556 -100.593417 
L 131.726949 -99.616337 
L 131.739681 -98.639256 
L 131.755493 -97.662175 
L 131.774069 -96.685094 
L 131.795084 -95.708013 
L 131.818231 -94.730932 
L 131.843253 -93.753851 
L 131.869943 -92.776771 
L 131.898125 -91.79969 
L 131.927621 -90.822609 
L 131.958201 -89.845528 
L 131.989526 -88.868447 
L 132.021104 -87.891366 
L 132.052265 -86.914286 
L 132.082157 -85.937205 
L 132.109786 -84.960124 
L 132.134081 -83.983043 
L 132.153994 -83.005962 
L 132.168612 -82.028881 
L 132.177269 -81.051801 
L 132.179654 -80.07472 
L 132.175877 -79.097639 
L 132.166513 -78.120558 
L 132.152591 -77.143477 
L 132.135548 -76.166396 
L 132.117145 -75.189315 
L 132.099357 -74.212235 
L 132.084255 -73.235154 
L 132.073878 -72.258073 
L 132.070121 -71.280992 
L 132.07463 -70.303911 
L 132.088725 -69.32683 
L 132.11333 -68.34975 
L 132.14893 -67.372669 
L 132.195538 -66.395588 
L 132.252693 -65.418507 
L 132.319471 -64.441426 
L 132.394526 -63.464345 
L 132.476167 -62.487265 
L 132.56246 -61.510184 
L 132.651369 -60.533103 
L 132.740921 -59.556022 
L 132.829385 -58.578941 
L 132.915471 -57.60186 
L 132.998507 -56.624779 
L 133.078614 -55.647699 
L 133.156852 -54.670618 
L 133.23533 -53.693537 
L 133.317274 -52.716456 
L 133.407048 -51.739375 
L 133.510112 -50.762294 
L 133.632901 -49.785214 
L 133.782632 -48.808133 
L 133.966994 -47.831052 
L 134.193758 -46.853971 
L 134.470264 -45.87689 
L 134.802841 -44.899809 
L 135.196148 -43.922728 
L 135.652506 -42.945648 
L 136.171242 -41.968567 
L 136.74811 -40.991486 
L 137.374854 -40.014405 
L 138.038957 -39.037324 
L 138.723641 -38.060243 
L 139.40817 -37.083163 
L 140.068496 -36.106082 
L 140.678261 -35.129001 
L 141.210161 -34.15192 
L 141.637602 -33.174839 
L 141.93656 -32.197758 
L 142.0875 -31.220678 
L 142.077138 -30.243597 
L 141.899862 -29.266516 
L 141.558597 -28.289435 
L 141.064954 -27.312354 
L 140.438604 -26.335273 
L 139.705887 -25.358192 
L 138.897806 -24.381112 
z
" id="m902d77018e" style="stroke:#ffffff;"/>
    </defs>
    <g clip-path="url(#pfef42ba6fe)">
     <use style="fill:#d95f02;stroke:#ffffff;" x="0" xlink:href="#m902d77018e" y="155.747837"/>
    </g>
   </g>
   <g id="PolyCollection_4">
    <defs>
     <path d="M 179.638206 -24.600572 
L 167.311794 -24.600572 
L 166.715176 -25.392128 
L 166.133703 -26.183685 
L 165.578367 -26.975241 
L 165.059598 -27.766797 
L 164.586826 -28.558354 
L 164.168094 -29.34991 
L 163.809758 -30.141467 
L 163.516286 -30.933023 
L 163.290168 -31.724579 
L 163.131948 -32.516136 
L 163.040349 -33.307692 
L 163.0125 -34.099248 
L 163.044218 -34.890805 
L 163.130339 -35.682361 
L 163.265061 -36.473918 
L 163.44227 -37.265474 
L 163.655832 -38.05703 
L 163.899828 -38.848587 
L 164.168735 -39.640143 
L 164.45752 -40.4317 
L 164.761688 -41.223256 
L 165.077266 -42.014812 
L 165.400739 -42.806369 
L 165.728977 -43.597925 
L 166.059137 -44.389482 
L 166.388587 -45.181038 
L 166.714836 -45.972594 
L 167.035509 -46.764151 
L 167.348333 -47.555707 
L 167.65117 -48.347264 
L 167.94206 -49.13882 
L 168.219282 -49.930376 
L 168.481417 -50.721933 
L 168.7274 -51.513489 
L 168.956564 -52.305046 
L 169.168647 -53.096602 
L 169.363785 -53.888158 
L 169.542484 -54.679715 
L 169.705559 -55.471271 
L 169.854081 -56.262828 
L 169.989299 -57.054384 
L 170.112582 -57.84594 
L 170.22536 -58.637497 
L 170.329078 -59.429053 
L 170.425166 -60.22061 
L 170.515016 -61.012166 
L 170.599967 -61.803722 
L 170.681297 -62.595279 
L 170.760203 -63.386835 
L 170.837782 -64.178392 
L 170.914998 -64.969948 
L 170.992645 -65.761504 
L 171.071299 -66.553061 
L 171.151279 -67.344617 
L 171.232601 -68.136174 
L 171.314957 -68.92773 
L 171.397715 -69.719286 
L 171.479934 -70.510843 
L 171.560416 -71.302399 
L 171.637786 -72.093956 
L 171.710583 -72.885512 
L 171.777378 -73.677068 
L 171.836888 -74.468625 
L 171.888085 -75.260181 
L 171.93029 -76.051737 
L 171.963236 -76.843294 
L 171.987097 -77.63485 
L 172.002488 -78.426407 
L 172.010417 -79.217963 
L 172.012216 -80.009519 
L 172.009447 -80.801076 
L 172.003793 -81.592632 
L 171.996948 -82.384189 
L 171.990521 -83.175745 
L 171.985952 -83.967301 
L 171.984454 -84.758858 
L 171.986986 -85.550414 
L 171.994241 -86.341971 
L 172.006671 -87.133527 
L 172.024512 -87.925083 
L 172.047826 -88.71664 
L 172.076548 -89.508196 
L 172.110516 -90.299753 
L 172.149505 -91.091309 
L 172.193238 -91.882865 
L 172.241395 -92.674422 
L 172.293612 -93.465978 
L 172.349466 -94.257535 
L 172.408476 -95.049091 
L 172.47009 -95.840647 
L 172.533691 -96.632204 
L 172.598606 -97.42376 
L 172.664119 -98.215317 
L 172.729499 -99.006873 
L 172.794023 -99.798429 
L 172.857008 -100.589986 
L 172.917833 -101.381542 
L 172.975962 -102.173099 
L 173.030957 -102.964655 
L 173.919043 -102.964655 
L 173.919043 -102.964655 
L 173.974038 -102.173099 
L 174.032167 -101.381542 
L 174.092992 -100.589986 
L 174.155977 -99.798429 
L 174.220501 -99.006873 
L 174.285881 -98.215317 
L 174.351394 -97.42376 
L 174.416309 -96.632204 
L 174.47991 -95.840647 
L 174.541524 -95.049091 
L 174.600534 -94.257535 
L 174.656388 -93.465978 
L 174.708605 -92.674422 
L 174.756762 -91.882865 
L 174.800495 -91.091309 
L 174.839484 -90.299753 
L 174.873452 -89.508196 
L 174.902174 -88.71664 
L 174.925488 -87.925083 
L 174.943329 -87.133527 
L 174.955759 -86.341971 
L 174.963014 -85.550414 
L 174.965546 -84.758858 
L 174.964048 -83.967301 
L 174.959479 -83.175745 
L 174.953052 -82.384189 
L 174.946207 -81.592632 
L 174.940553 -80.801076 
L 174.937784 -80.009519 
L 174.939583 -79.217963 
L 174.947512 -78.426407 
L 174.962903 -77.63485 
L 174.986764 -76.843294 
L 175.01971 -76.051737 
L 175.061915 -75.260181 
L 175.113112 -74.468625 
L 175.172622 -73.677068 
L 175.239417 -72.885512 
L 175.312214 -72.093956 
L 175.389584 -71.302399 
L 175.470066 -70.510843 
L 175.552285 -69.719286 
L 175.635043 -68.92773 
L 175.717399 -68.136174 
L 175.798721 -67.344617 
L 175.878701 -66.553061 
L 175.957355 -65.761504 
L 176.035002 -64.969948 
L 176.112218 -64.178392 
L 176.189797 -63.386835 
L 176.268703 -62.595279 
L 176.350033 -61.803722 
L 176.434984 -61.012166 
L 176.524834 -60.22061 
L 176.620922 -59.429053 
L 176.72464 -58.637497 
L 176.837418 -57.84594 
L 176.960701 -57.054384 
L 177.095919 -56.262828 
L 177.244441 -55.471271 
L 177.407516 -54.679715 
L 177.586215 -53.888158 
L 177.781353 -53.096602 
L 177.993436 -52.305046 
L 178.2226 -51.513489 
L 178.468583 -50.721933 
L 178.730718 -49.930376 
L 179.00794 -49.13882 
L 179.29883 -48.347264 
L 179.601667 -47.555707 
L 179.914491 -46.764151 
L 180.235164 -45.972594 
L 180.561413 -45.181038 
L 180.890863 -44.389482 
L 181.221023 -43.597925 
L 181.549261 -42.806369 
L 181.872734 -42.014812 
L 182.188312 -41.223256 
L 182.49248 -40.4317 
L 182.781265 -39.640143 
L 183.050172 -38.848587 
L 183.294168 -38.05703 
L 183.50773 -37.265474 
L 183.684939 -36.473918 
L 183.819661 -35.682361 
L 183.905782 -34.890805 
L 183.9375 -34.099248 
L 183.909651 -33.307692 
L 183.818052 -32.516136 
L 183.659832 -31.724579 
L 183.433714 -30.933023 
L 183.140242 -30.141467 
L 182.781906 -29.34991 
L 182.363174 -28.558354 
L 181.890402 -27.766797 
L 181.371633 -26.975241 
L 180.816297 -26.183685 
L 180.234824 -25.392128 
L 179.638206 -24.600572 
z
" id="mc9b3999581" style="stroke:#ffffff;"/>
    </defs>
    <g clip-path="url(#pfef42ba6fe)">
     <use style="fill:#d95f02;stroke:#ffffff;" x="0" xlink:href="#mc9b3999581" y="155.747837"/>
    </g>
   </g>
   <g id="matplotlib.axis_1">
    <g id="xtick_1">
     <g id="line2d_1">
      <defs>
       <path d="M 0 0 
L 0 -4 
" id="md6bca95716" style="stroke:#333333;stroke-width:0.8;"/>
      </defs>
      <g>
       <use style="fill:#333333;stroke:#333333;stroke-width:0.8;" x="47.925" xlink:href="#md6bca95716" y="136.279357"/>
      </g>
     </g>
     <g id="text_1">
      <!-- $m=0$ -->
      <g style="fill:#333333;" transform="translate(33.725 146.93717)">
       <text>
        <tspan style="font-family:DejaVu Sans;font-size:10px;font-style:oblique;font-weight:oblique;" x="0" y="-0.578125">m</tspan>
        <tspan style="font-family:DejaVu Sans;font-size:10px;font-style:book;font-weight:book;" x="11.689453 22.016602" y="-0.578125">=0</tspan>
       </text>
      </g>
      <!-- $\sigma_G/e \leq 2$ -->
      <g style="fill:#333333;" transform="translate(27.825 157.69967)">
       <text>
        <tspan style="font-family:DejaVu Sans;font-size:10px;font-style:oblique;font-weight:oblique;" x="0 15.404785" y="-0.578125">σe</tspan>
        <tspan style="font-family:DejaVu Sans;font-size:7px;font-style:oblique;font-weight:oblique;" x="6.337891" y="1.0625">G</tspan>
        <tspan style="font-family:DejaVu Sans;font-size:10px;font-style:book;font-weight:book;" x="12.035645 23.505371 33.83252" y="-0.578125">/≤2</tspan>
       </text>
      </g>
     </g>
    </g>
    <g id="xtick_2">
     <g id="line2d_2">
      <g>
       <use style="fill:#333333;stroke:#333333;stroke-width:0.8;" x="89.775" xlink:href="#md6bca95716" y="136.279357"/>
      </g>
     </g>
     <g id="text_2">
      <!-- $m=0$ -->
      <g style="fill:#333333;" transform="translate(75.575 146.93717)">
       <text>
        <tspan style="font-family:DejaVu Sans;font-size:10px;font-style:oblique;font-weight:oblique;" x="0" y="-0.578125">m</tspan>
        <tspan style="font-family:DejaVu Sans;font-size:10px;font-style:book;font-weight:book;" x="11.689453 22.016602" y="-0.578125">=0</tspan>
       </text>
      </g>
      <!-- $\sigma_G/e &gt; 2$ -->
      <g style="fill:#333333;" transform="translate(69.675 157.69967)">
       <text>
        <tspan style="font-family:DejaVu Sans;font-size:10px;font-style:oblique;font-weight:oblique;" x="0 15.404785" y="-0.578125">σe</tspan>
        <tspan style="font-family:DejaVu Sans;font-size:7px;font-style:oblique;font-weight:oblique;" x="6.337891" y="1.0625">G</tspan>
        <tspan style="font-family:DejaVu Sans;font-size:10px;font-style:book;font-weight:book;" x="12.035645 23.505371 33.83252" y="-0.578125">/&gt;2</tspan>
       </text>
      </g>
     </g>
    </g>
    <g id="xtick_3">
     <g id="line2d_3">
      <g>
       <use style="fill:#333333;stroke:#333333;stroke-width:0.8;" x="131.625" xlink:href="#md6bca95716" y="136.279357"/>
      </g>
     </g>
     <g id="text_3">
      <!-- $m=1$ -->
      <g style="fill:#333333;" transform="translate(117.425 146.93717)">
       <text>
        <tspan style="font-family:DejaVu Sans;font-size:10px;font-style:oblique;font-weight:oblique;" x="0" y="-0.703125">m</tspan>
        <tspan style="font-family:DejaVu Sans;font-size:10px;font-style:book;font-weight:book;" x="11.689453 22.016602" y="-0.703125">=1</tspan>
       </text>
      </g>
      <!-- $\sigma_G/e \leq 2$ -->
      <g style="fill:#333333;" transform="translate(111.525 157.69967)">
       <text>
        <tspan style="font-family:DejaVu Sans;font-size:10px;font-style:oblique;font-weight:oblique;" x="0 15.404785" y="-0.578125">σe</tspan>
        <tspan style="font-family:DejaVu Sans;font-size:7px;font-style:oblique;font-weight:oblique;" x="6.337891" y="1.0625">G</tspan>
        <tspan style="font-family:DejaVu Sans;font-size:10px;font-style:book;font-weight:book;" x="12.035645 23.505371 33.83252" y="-0.578125">/≤2</tspan>
       </text>
      </g>
     </g>
    </g>
    <g id="xtick_4">
     <g id="line2d_4">
      <g>
       <use style="fill:#333333;stroke:#333333;stroke-width:0.8;" x="173.475" xlink:href="#md6bca95716" y="136.279357"/>
      </g>
     </g>
     <g id="text_4">
      <!-- $m=1$ -->
      <g style="fill:#333333;" transform="translate(159.275 146.93717)">
       <text>
        <tspan style="font-family:DejaVu Sans;font-size:10px;font-style:oblique;font-weight:oblique;" x="0" y="-0.703125">m</tspan>
        <tspan style="font-family:DejaVu Sans;font-size:10px;font-style:book;font-weight:book;" x="11.689453 22.016602" y="-0.703125">=1</tspan>
       </text>
      </g>
      <!-- $\sigma_G/e &gt; 2$ -->
      <g style="fill:#333333;" transform="translate(153.375 157.69967)">
       <text>
        <tspan style="font-family:DejaVu Sans;font-size:10px;font-style:oblique;font-weight:oblique;" x="0 15.404785" y="-0.578125">σe</tspan>
        <tspan style="font-family:DejaVu Sans;font-size:7px;font-style:oblique;font-weight:oblique;" x="6.337891" y="1.0625">G</tspan>
        <tspan style="font-family:DejaVu Sans;font-size:10px;font-style:book;font-weight:book;" x="12.035645 23.505371 33.83252" y="-0.578125">/&gt;2</tspan>
       </text>
      </g>
     </g>
    </g>
   </g>
   <g id="matplotlib.axis_2">
    <g id="ytick_1">
     <g id="line2d_5">
      <defs>
       <path d="M 0 0 
L 4 0 
" id="mee2718400b" style="stroke:#333333;stroke-width:0.8;"/>
      </defs>
      <g>
       <use style="fill:#333333;stroke:#333333;stroke-width:0.8;" x="27" xlink:href="#mee2718400b" y="131.405176"/>
      </g>
     </g>
     <g id="text_5">
      <text style="fill:#333333;font-family:Arial;font-size:10px;font-style:normal;font-weight:normal;text-anchor:end;" transform="rotate(-0, 23.5, 134.984082)" x="23.5" y="134.984082">0.0</text>
     </g>
    </g>
    <g id="ytick_2">
     <g id="line2d_6">
      <g>
       <use style="fill:#333333;stroke:#333333;stroke-width:0.8;" x="27" xlink:href="#mee2718400b" y="100.941545"/>
      </g>
     </g>
     <g id="text_6">
      <text style="fill:#333333;font-family:Arial;font-size:10px;font-style:normal;font-weight:normal;text-anchor:end;" transform="rotate(-0, 23.5, 104.520451)" x="23.5" y="104.520451">0.5</text>
     </g>
    </g>
    <g id="ytick_3">
     <g id="line2d_7">
      <g>
       <use style="fill:#333333;stroke:#333333;stroke-width:0.8;" x="27" xlink:href="#mee2718400b" y="70.477914"/>
      </g>
     </g>
     <g id="text_7">
      <text style="fill:#333333;font-family:Arial;font-size:10px;font-style:normal;font-weight:normal;text-anchor:end;" transform="rotate(-0, 23.5, 74.05682)" x="23.5" y="74.05682">1.0</text>
     </g>
    </g>
    <g id="ytick_4">
     <g id="line2d_8">
      <g>
       <use style="fill:#333333;stroke:#333333;stroke-width:0.8;" x="27" xlink:href="#mee2718400b" y="40.014282"/>
      </g>
     </g>
     <g id="text_8">
      <text style="fill:#333333;font-family:Arial;font-size:10px;font-style:normal;font-weight:normal;text-anchor:end;" transform="rotate(-0, 23.5, 43.593189)" x="23.5" y="43.593189">1.5</text>
     </g>
    </g>
    <g id="text_9">
     <!-- $p_{G \rightarrow G'}$ -->
     <g style="fill:#333333;" transform="translate(2.66 97.224549)rotate(-90)">
      <text>
       <tspan style="font-family:DejaVu Sans;font-size:14px;font-style:oblique;font-weight:oblique;" x="0" y="-0.15625">p</tspan>
       <tspan style="font-family:DejaVu Sans;font-size:9.8px;font-style:oblique;font-weight:oblique;" x="8.886719 28.510645" y="2.140625">GG</tspan>
       <tspan style="font-family:DejaVu Sans;font-size:9.8px;font-style:book;font-weight:book;" x="18.390039" y="2.140625">→</tspan>
       <tspan style="font-family:cmsy10;font-size:6.86px;font-style:regular;font-weight:regular;" x="36.810339" y="-1.6109375">0</tspan>
      </text>
     </g>
    </g>
   </g>
   <g id="line2d_9">
    <path clip-path="url(#pfef42ba6fe)" d="M 43.74 100.338264 
L 52.11 100.338264 
" style="fill:none;stroke:#ffffff;stroke-linecap:square;stroke-width:1.2;"/>
   </g>
   <g id="line2d_10">
    <path clip-path="url(#pfef42ba6fe)" d="M 43.74 70.587683 
L 52.11 70.587683 
" style="fill:none;stroke:#ffffff;stroke-linecap:square;stroke-width:1.2;"/>
   </g>
   <g id="line2d_11">
    <path clip-path="url(#pfef42ba6fe)" d="M 41.6475 88.972859 
L 54.2025 88.972859 
" style="fill:none;stroke:#ffffff;stroke-linecap:square;stroke-width:1.5;"/>
   </g>
   <g id="line2d_12">
    <path clip-path="url(#pfef42ba6fe)" d="M 47.925 100.338264 
L 47.925 70.587683 
" style="fill:none;stroke:#ffffff;stroke-linecap:square;"/>
   </g>
   <g id="line2d_13">
    <path clip-path="url(#pfef42ba6fe)" d="M 85.59 126.230938 
L 93.96 126.230938 
" style="fill:none;stroke:#ffffff;stroke-linecap:square;stroke-width:1.2;"/>
   </g>
   <g id="line2d_14">
    <path clip-path="url(#pfef42ba6fe)" d="M 85.59 109.355024 
L 93.96 109.355024 
" style="fill:none;stroke:#ffffff;stroke-linecap:square;stroke-width:1.2;"/>
   </g>
   <g id="line2d_15">
    <path clip-path="url(#pfef42ba6fe)" d="M 83.4975 120.470378 
L 96.0525 120.470378 
" style="fill:none;stroke:#ffffff;stroke-linecap:square;stroke-width:1.5;"/>
   </g>
   <g id="line2d_16">
    <path clip-path="url(#pfef42ba6fe)" d="M 89.775 126.230938 
L 89.775 109.355024 
" style="fill:none;stroke:#ffffff;stroke-linecap:square;"/>
   </g>
   <g id="line2d_17">
    <path clip-path="url(#pfef42ba6fe)" d="M 127.44 127.309089 
L 135.81 127.309089 
" style="fill:none;stroke:#ffffff;stroke-linecap:square;stroke-width:1.2;"/>
   </g>
   <g id="line2d_18">
    <path clip-path="url(#pfef42ba6fe)" d="M 127.44 117.231308 
L 135.81 117.231308 
" style="fill:none;stroke:#ffffff;stroke-linecap:square;stroke-width:1.2;"/>
   </g>
   <g id="line2d_19">
    <path clip-path="url(#pfef42ba6fe)" d="M 125.3475 123.701428 
L 137.9025 123.701428 
" style="fill:none;stroke:#ffffff;stroke-linecap:square;stroke-width:1.5;"/>
   </g>
   <g id="line2d_20">
    <path clip-path="url(#pfef42ba6fe)" d="M 131.625 127.309089 
L 131.625 117.231308 
" style="fill:none;stroke:#ffffff;stroke-linecap:square;"/>
   </g>
   <g id="line2d_21">
    <path clip-path="url(#pfef42ba6fe)" d="M 169.29 124.250153 
L 177.66 124.250153 
" style="fill:none;stroke:#ffffff;stroke-linecap:square;stroke-width:1.2;"/>
   </g>
   <g id="line2d_22">
    <path clip-path="url(#pfef42ba6fe)" d="M 169.29 101.453826 
L 177.66 101.453826 
" style="fill:none;stroke:#ffffff;stroke-linecap:square;stroke-width:1.2;"/>
   </g>
   <g id="line2d_23">
    <path clip-path="url(#pfef42ba6fe)" d="M 167.1975 116.554882 
L 179.7525 116.554882 
" style="fill:none;stroke:#ffffff;stroke-linecap:square;stroke-width:1.5;"/>
   </g>
   <g id="line2d_24">
    <path clip-path="url(#pfef42ba6fe)" d="M 173.475 124.250153 
L 173.475 101.453826 
" style="fill:none;stroke:#ffffff;stroke-linecap:square;"/>
   </g>
   <g id="line2d_25">
    <path clip-path="url(#pfef42ba6fe)" d="M 56.295 58.292461 
L 85.59 58.292461 
" style="fill:none;stroke:#333333;stroke-linecap:square;stroke-width:1.5;"/>
   </g>
   <g id="line2d_26">
    <path clip-path="url(#pfef42ba6fe)" d="M 56.295 46.107009 
L 127.44 46.107009 
" style="fill:none;stroke:#333333;stroke-linecap:square;stroke-width:1.5;"/>
   </g>
   <g id="line2d_27">
    <path clip-path="url(#pfef42ba6fe)" d="M 56.295 33.921556 
L 169.29 33.921556 
" style="fill:none;stroke:#333333;stroke-linecap:square;stroke-width:1.5;"/>
   </g>
   <g id="patch_3">
    <path d="M 27 136.279357 
L 27 18.68974 
" style="fill:none;stroke:#333333;stroke-linecap:square;stroke-linejoin:miter;"/>
   </g>
   <g id="patch_4">
    <path d="M 27 136.279357 
L 194.4 136.279357 
" style="fill:none;stroke:#333333;stroke-linecap:square;stroke-linejoin:miter;"/>
   </g>
   <g id="text_10">
    <text style="fill:#333333;font-family:Arial;font-size:10px;font-style:normal;font-weight:normal;text-anchor:middle;" transform="rotate(-0, 70.9425, 57.683188)" x="70.9425" y="57.683188">***</text>
   </g>
   <g id="text_11">
    <text style="fill:#333333;font-family:Arial;font-size:10px;font-style:normal;font-weight:normal;text-anchor:middle;" transform="rotate(-0, 112.7925, 45.497736)" x="112.7925" y="45.497736">***</text>
   </g>
   <g id="text_12">
    <text style="fill:#333333;font-family:Arial;font-size:10px;font-style:normal;font-weight:normal;text-anchor:middle;" transform="rotate(-0, 154.6425, 33.312283)" x="154.6425" y="33.312283">***</text>
   </g>
  </g>
 </g>
 <defs>
  <clipPath id="pfef42ba6fe">
   <rect height="117.589617" width="167.4" x="27" y="18.68974"/>
  </clipPath>
 </defs>
</svg>
