<?xml version="1.0" encoding="utf-8" standalone="no"?>
<!DOCTYPE svg PUBLIC "-//W3C//DTD SVG 1.1//EN"
  "http://www.w3.org/Graphics/SVG/1.1/DTD/svg11.dtd">
<!-- Created with matplotlib (http://matplotlib.org/) -->
<svg height="155.747837pt" version="1.1" viewBox="0 0 216 155.747837" width="216pt" xmlns="http://www.w3.org/2000/svg" xmlns:xlink="http://www.w3.org/1999/xlink">
 <defs>
  <style type="text/css">
*{stroke-linecap:butt;stroke-linejoin:round;}
  </style>
 </defs>
 <g id="figure_1">
  <g id="patch_1">
   <path d="M 0 155.747837 
L 216 155.747837 
L 216 0 
L 0 0 
z
" style="fill:#ffffff;"/>
  </g>
  <g id="axes_1">
   <g id="patch_2">
    <path d="M 27 136.279357 
L 194.4 136.279357 
L 194.4 18.68974 
L 27 18.68974 
z
" style="fill:#ffffff;"/>
   </g>
   <g id="PolyCollection_1">
    <defs>
     <path d="M 49.332189 -31.932645 
L 46.517811 -31.932645 
L 46.419389 -32.883577 
L 46.320106 -33.834509 
L 46.219275 -34.785441 
L 46.115952 -35.736372 
L 46.008957 -36.687304 
L 45.8969 -37.638236 
L 45.778212 -38.589168 
L 45.651167 -39.5401 
L 45.513913 -40.491032 
L 45.364497 -41.441963 
L 45.200904 -42.392895 
L 45.021093 -43.343827 
L 44.823059 -44.294759 
L 44.604902 -45.245691 
L 44.364925 -46.196622 
L 44.101742 -47.147554 
L 43.814406 -48.098486 
L 43.502541 -49.049418 
L 43.166475 -50.00035 
L 42.807351 -50.951282 
L 42.427219 -51.902213 
L 42.029078 -52.853145 
L 41.616872 -53.804077 
L 41.19543 -54.755009 
L 40.770338 -55.705941 
L 40.347764 -56.656873 
L 39.93423 -57.607804 
L 39.536348 -58.558736 
L 39.16055 -59.509668 
L 38.81281 -60.4606 
L 38.498405 -61.411532 
L 38.221709 -62.362463 
L 37.986048 -63.313395 
L 37.793626 -64.264327 
L 37.645516 -65.215259 
L 37.541724 -66.166191 
L 37.4813 -67.117123 
L 37.4625 -68.068054 
L 37.482961 -69.018986 
L 37.539891 -69.969918 
L 37.630236 -70.92085 
L 37.750829 -71.871782 
L 37.898498 -72.822713 
L 38.070138 -73.773645 
L 38.262748 -74.724577 
L 38.473428 -75.675509 
L 38.699373 -76.626441 
L 38.937849 -77.577373 
L 39.186169 -78.528304 
L 39.441701 -79.479236 
L 39.701873 -80.430168 
L 39.964225 -81.3811 
L 40.22646 -82.332032 
L 40.486527 -83.282963 
L 40.742701 -84.233895 
L 40.993662 -85.184827 
L 41.238557 -86.135759 
L 41.477037 -87.086691 
L 41.709259 -88.037623 
L 41.935861 -88.988554 
L 42.157886 -89.939486 
L 42.376683 -90.890418 
L 42.593783 -91.84135 
L 42.810757 -92.792282 
L 43.02907 -93.743213 
L 43.249948 -94.694145 
L 43.474264 -95.645077 
L 43.702451 -96.596009 
L 43.934455 -97.546941 
L 44.169725 -98.497873 
L 44.407239 -99.448804 
L 44.645566 -100.399736 
L 44.882953 -101.350668 
L 45.117429 -102.3016 
L 45.346917 -103.252532 
L 45.569342 -104.203463 
L 45.782733 -105.154395 
L 45.985305 -106.105327 
L 46.175524 -107.056259 
L 46.352145 -108.007191 
L 46.514241 -108.958123 
L 46.661204 -109.909054 
L 46.792741 -110.859986 
L 46.908857 -111.810918 
L 47.009833 -112.76185 
L 47.096207 -113.712782 
L 47.168749 -114.663713 
L 47.22844 -115.614645 
L 47.276446 -116.565577 
L 47.314092 -117.516509 
L 47.342835 -118.467441 
L 47.364226 -119.418373 
L 47.379867 -120.369304 
L 47.391368 -121.320236 
L 47.400292 -122.271168 
L 47.408101 -123.2221 
L 47.41611 -124.173032 
L 47.425432 -125.123963 
L 47.43695 -126.074895 
L 48.41305 -126.074895 
L 48.41305 -126.074895 
L 48.424568 -125.123963 
L 48.43389 -124.173032 
L 48.441899 -123.2221 
L 48.449708 -122.271168 
L 48.458632 -121.320236 
L 48.470133 -120.369304 
L 48.485774 -119.418373 
L 48.507165 -118.467441 
L 48.535908 -117.516509 
L 48.573554 -116.565577 
L 48.62156 -115.614645 
L 48.681251 -114.663713 
L 48.753793 -113.712782 
L 48.840167 -112.76185 
L 48.941143 -111.810918 
L 49.057259 -110.859986 
L 49.188796 -109.909054 
L 49.335759 -108.958123 
L 49.497855 -108.007191 
L 49.674476 -107.056259 
L 49.864695 -106.105327 
L 50.067267 -105.154395 
L 50.280658 -104.203463 
L 50.503083 -103.252532 
L 50.732571 -102.3016 
L 50.967047 -101.350668 
L 51.204434 -100.399736 
L 51.442761 -99.448804 
L 51.680275 -98.497873 
L 51.915545 -97.546941 
L 52.147549 -96.596009 
L 52.375736 -95.645077 
L 52.600052 -94.694145 
L 52.82093 -93.743213 
L 53.039243 -92.792282 
L 53.256217 -91.84135 
L 53.473317 -90.890418 
L 53.692114 -89.939486 
L 53.914139 -88.988554 
L 54.140741 -88.037623 
L 54.372963 -87.086691 
L 54.611443 -86.135759 
L 54.856338 -85.184827 
L 55.107299 -84.233895 
L 55.363473 -83.282963 
L 55.62354 -82.332032 
L 55.885775 -81.3811 
L 56.148127 -80.430168 
L 56.408299 -79.479236 
L 56.663831 -78.528304 
L 56.912151 -77.577373 
L 57.150627 -76.626441 
L 57.376572 -75.675509 
L 57.587252 -74.724577 
L 57.779862 -73.773645 
L 57.951502 -72.822713 
L 58.099171 -71.871782 
L 58.219764 -70.92085 
L 58.310109 -69.969918 
L 58.367039 -69.018986 
L 58.3875 -68.068054 
L 58.3687 -67.117123 
L 58.308276 -66.166191 
L 58.204484 -65.215259 
L 58.056374 -64.264327 
L 57.863952 -63.313395 
L 57.628291 -62.362463 
L 57.351595 -61.411532 
L 57.03719 -60.4606 
L 56.68945 -59.509668 
L 56.313652 -58.558736 
L 55.91577 -57.607804 
L 55.502236 -56.656873 
L 55.079662 -55.705941 
L 54.65457 -54.755009 
L 54.233128 -53.804077 
L 53.820922 -52.853145 
L 53.422781 -51.902213 
L 53.042649 -50.951282 
L 52.683525 -50.00035 
L 52.347459 -49.049418 
L 52.035594 -48.098486 
L 51.748258 -47.147554 
L 51.485075 -46.196622 
L 51.245098 -45.245691 
L 51.026941 -44.294759 
L 50.828907 -43.343827 
L 50.649096 -42.392895 
L 50.485503 -41.441963 
L 50.336087 -40.491032 
L 50.198833 -39.5401 
L 50.071788 -38.589168 
L 49.9531 -37.638236 
L 49.841043 -36.687304 
L 49.734048 -35.736372 
L 49.630725 -34.785441 
L 49.529894 -33.834509 
L 49.430611 -32.883577 
L 49.332189 -31.932645 
z
" id="mc10d204ea0" style="stroke:#ffffff;"/>
    </defs>
    <g clip-path="url(#pcd9d1a5fc1)">
     <use style="fill:#666666;stroke:#ffffff;" x="0" xlink:href="#mc10d204ea0" y="155.747837"/>
    </g>
   </g>
   <g id="PolyCollection_2">
    <defs>
     <path d="M 96.875837 -24.746733 
L 82.674163 -24.746733 
L 81.91396 -25.505627 
L 81.213163 -26.264521 
L 80.596431 -27.023415 
L 80.084903 -27.782309 
L 79.694736 -28.541203 
L 79.43607 -29.300097 
L 79.3125 -30.058991 
L 79.321102 -30.817885 
L 79.452954 -31.576779 
L 79.694086 -32.335673 
L 80.02673 -33.094567 
L 80.430736 -33.853461 
L 80.885036 -34.612355 
L 81.369028 -35.371249 
L 81.863794 -36.130143 
L 82.353085 -36.889037 
L 82.824017 -37.647931 
L 83.267461 -38.406825 
L 83.67811 -39.165719 
L 84.054241 -39.924613 
L 84.397211 -40.683507 
L 84.710728 -41.442401 
L 84.999994 -42.201295 
L 85.270791 -42.960189 
L 85.528628 -43.719083 
L 85.778014 -44.477977 
L 86.021956 -45.236871 
L 86.261696 -45.995765 
L 86.496727 -46.754659 
L 86.725032 -47.513553 
L 86.943514 -48.272447 
L 87.148533 -49.031341 
L 87.336477 -49.790235 
L 87.504274 -50.549129 
L 87.649822 -51.308023 
L 87.772253 -52.066917 
L 87.872059 -52.825811 
L 87.951054 -53.584705 
L 88.012205 -54.343599 
L 88.059365 -55.102493 
L 88.09694 -55.861387 
L 88.12952 -56.620281 
L 88.161523 -57.379175 
L 88.196865 -58.138068 
L 88.238689 -58.896962 
L 88.289173 -59.655856 
L 88.349427 -60.41475 
L 88.419483 -61.173644 
L 88.498379 -61.932538 
L 88.584319 -62.691432 
L 88.674902 -63.450326 
L 88.767377 -64.20922 
L 88.858918 -64.968114 
L 88.946867 -65.727008 
L 89.028945 -66.485902 
L 89.103396 -67.244796 
L 89.169068 -68.00369 
L 89.225419 -68.762584 
L 89.272475 -69.521478 
L 89.310729 -70.280372 
L 89.341025 -71.039266 
L 89.364425 -71.79816 
L 89.382083 -72.557054 
L 89.395142 -73.315948 
L 89.404648 -74.074842 
L 89.411495 -74.833736 
L 89.416404 -75.59263 
L 89.419917 -76.351524 
L 89.422418 -77.110418 
L 89.424166 -77.869312 
L 89.425337 -78.628206 
L 89.426073 -79.3871 
L 89.42652 -80.145994 
L 89.426869 -80.904888 
L 89.427377 -81.663782 
L 89.428372 -82.422676 
L 89.430246 -83.18157 
L 89.433423 -83.940464 
L 89.438315 -84.699358 
L 89.445269 -85.458252 
L 89.454514 -86.217146 
L 89.46611 -86.97604 
L 89.479918 -87.734934 
L 89.49559 -88.493828 
L 89.512584 -89.252722 
L 89.530209 -90.011616 
L 89.547686 -90.77051 
L 89.56423 -91.529404 
L 89.579136 -92.288298 
L 89.591852 -93.047192 
L 89.602048 -93.806086 
L 89.609648 -94.56498 
L 89.614839 -95.323874 
L 89.618049 -96.082768 
L 89.619887 -96.841662 
L 89.621076 -97.600556 
L 89.622368 -98.35945 
L 89.624452 -99.118344 
L 89.62789 -99.877238 
L 89.92211 -99.877238 
L 89.92211 -99.877238 
L 89.925548 -99.118344 
L 89.927632 -98.35945 
L 89.928924 -97.600556 
L 89.930113 -96.841662 
L 89.931951 -96.082768 
L 89.935161 -95.323874 
L 89.940352 -94.56498 
L 89.947952 -93.806086 
L 89.958148 -93.047192 
L 89.970864 -92.288298 
L 89.98577 -91.529404 
L 90.002314 -90.77051 
L 90.019791 -90.011616 
L 90.037416 -89.252722 
L 90.05441 -88.493828 
L 90.070082 -87.734934 
L 90.08389 -86.97604 
L 90.095486 -86.217146 
L 90.104731 -85.458252 
L 90.111685 -84.699358 
L 90.116577 -83.940464 
L 90.119754 -83.18157 
L 90.121628 -82.422676 
L 90.122623 -81.663782 
L 90.123131 -80.904888 
L 90.12348 -80.145994 
L 90.123927 -79.3871 
L 90.124663 -78.628206 
L 90.125834 -77.869312 
L 90.127582 -77.110418 
L 90.130083 -76.351524 
L 90.133596 -75.59263 
L 90.138505 -74.833736 
L 90.145352 -74.074842 
L 90.154858 -73.315948 
L 90.167917 -72.557054 
L 90.185575 -71.79816 
L 90.208975 -71.039266 
L 90.239271 -70.280372 
L 90.277525 -69.521478 
L 90.324581 -68.762584 
L 90.380932 -68.00369 
L 90.446604 -67.244796 
L 90.521055 -66.485902 
L 90.603133 -65.727008 
L 90.691082 -64.968114 
L 90.782623 -64.20922 
L 90.875098 -63.450326 
L 90.965681 -62.691432 
L 91.051621 -61.932538 
L 91.130517 -61.173644 
L 91.200573 -60.41475 
L 91.260827 -59.655856 
L 91.311311 -58.896962 
L 91.353135 -58.138068 
L 91.388477 -57.379175 
L 91.42048 -56.620281 
L 91.45306 -55.861387 
L 91.490635 -55.102493 
L 91.537795 -54.343599 
L 91.598946 -53.584705 
L 91.677941 -52.825811 
L 91.777747 -52.066917 
L 91.900178 -51.308023 
L 92.045726 -50.549129 
L 92.213523 -49.790235 
L 92.401467 -49.031341 
L 92.606486 -48.272447 
L 92.824968 -47.513553 
L 93.053273 -46.754659 
L 93.288304 -45.995765 
L 93.528044 -45.236871 
L 93.771986 -44.477977 
L 94.021372 -43.719083 
L 94.279209 -42.960189 
L 94.550006 -42.201295 
L 94.839272 -41.442401 
L 95.152789 -40.683507 
L 95.495759 -39.924613 
L 95.87189 -39.165719 
L 96.282539 -38.406825 
L 96.725983 -37.647931 
L 97.196915 -36.889037 
L 97.686206 -36.130143 
L 98.180972 -35.371249 
L 98.664964 -34.612355 
L 99.119264 -33.853461 
L 99.52327 -33.094567 
L 99.855914 -32.335673 
L 100.097046 -31.576779 
L 100.228898 -30.817885 
L 100.2375 -30.058991 
L 100.11393 -29.300097 
L 99.855264 -28.541203 
L 99.465097 -27.782309 
L 98.953569 -27.023415 
L 98.336837 -26.264521 
L 97.63604 -25.505627 
L 96.875837 -24.746733 
z
" id="m65eb3d86c8" style="stroke:#ffffff;"/>
    </defs>
    <g clip-path="url(#pcd9d1a5fc1)">
     <use style="fill:#666666;stroke:#ffffff;" x="0" xlink:href="#m65eb3d86c8" y="155.747837"/>
    </g>
   </g>
   <g id="PolyCollection_3">
    <defs>
     <path d="M 137.937301 -24.381112 
L 125.312699 -24.381112 
L 124.59505 -24.944858 
L 123.903985 -25.508604 
L 123.258968 -26.07235 
L 122.678156 -26.636096 
L 122.177318 -27.199842 
L 121.768921 -27.763588 
L 121.461495 -28.327335 
L 121.259329 -28.891081 
L 121.1625 -29.454827 
L 121.167247 -30.018573 
L 121.266595 -30.582319 
L 121.451172 -31.146065 
L 121.710097 -31.709811 
L 122.031853 -32.273558 
L 122.405037 -32.837304 
L 122.818939 -33.40105 
L 123.263911 -33.964796 
L 123.731511 -34.528542 
L 124.214476 -35.092288 
L 124.706548 -35.656034 
L 125.20223 -36.219781 
L 125.696529 -36.783527 
L 126.184737 -37.347273 
L 126.6623 -37.911019 
L 127.124768 -38.474765 
L 127.567853 -39.038511 
L 127.987557 -39.602257 
L 128.380349 -40.166004 
L 128.743344 -40.72975 
L 129.074463 -41.293496 
L 129.372538 -41.857242 
L 129.637346 -42.420988 
L 129.869565 -42.984734 
L 130.070664 -43.54848 
L 130.242737 -44.112226 
L 130.388311 -44.675973 
L 130.510145 -45.239719 
L 130.611052 -45.803465 
L 130.693753 -46.367211 
L 130.760778 -46.930957 
L 130.81442 -47.494703 
L 130.856725 -48.058449 
L 130.889524 -48.622196 
L 130.91448 -49.185942 
L 130.933141 -49.749688 
L 130.946982 -50.313434 
L 130.957437 -50.87718 
L 130.9659 -51.440926 
L 130.973713 -52.004672 
L 130.982126 -52.568419 
L 130.992255 -53.132165 
L 131.005033 -53.695911 
L 131.021161 -54.259657 
L 131.041081 -54.823403 
L 131.064956 -55.387149 
L 131.092672 -55.950895 
L 131.123854 -56.514642 
L 131.157903 -57.078388 
L 131.194035 -57.642134 
L 131.231331 -58.20588 
L 131.268796 -58.769626 
L 131.305403 -59.333372 
L 131.340155 -59.897118 
L 131.372123 -60.460865 
L 131.400492 -61.024611 
L 131.424597 -61.588357 
L 131.443952 -62.152103 
L 131.458271 -62.715849 
L 131.467475 -63.279595 
L 131.471698 -63.843341 
L 131.471273 -64.407087 
L 131.466706 -64.970834 
L 131.458647 -65.53458 
L 131.447838 -66.098326 
L 131.435067 -66.662072 
L 131.421114 -67.225818 
L 131.406697 -67.789564 
L 131.392433 -68.35331 
L 131.378807 -68.917057 
L 131.366158 -69.480803 
L 131.354678 -70.044549 
L 131.344433 -70.608295 
L 131.335389 -71.172041 
L 131.327452 -71.735787 
L 131.320505 -72.299533 
L 131.314445 -72.86328 
L 131.309208 -73.427026 
L 131.304791 -73.990772 
L 131.301261 -74.554518 
L 131.298746 -75.118264 
L 131.297432 -75.68201 
L 131.297543 -76.245756 
L 131.299323 -76.809503 
L 131.303008 -77.373249 
L 131.308811 -77.936995 
L 131.316893 -78.500741 
L 131.327344 -79.064487 
L 131.340168 -79.628233 
L 131.355265 -80.191979 
L 131.894735 -80.191979 
L 131.894735 -80.191979 
L 131.909832 -79.628233 
L 131.922656 -79.064487 
L 131.933107 -78.500741 
L 131.941189 -77.936995 
L 131.946992 -77.373249 
L 131.950677 -76.809503 
L 131.952457 -76.245756 
L 131.952568 -75.68201 
L 131.951254 -75.118264 
L 131.948739 -74.554518 
L 131.945209 -73.990772 
L 131.940792 -73.427026 
L 131.935555 -72.86328 
L 131.929495 -72.299533 
L 131.922548 -71.735787 
L 131.914611 -71.172041 
L 131.905567 -70.608295 
L 131.895322 -70.044549 
L 131.883842 -69.480803 
L 131.871193 -68.917057 
L 131.857567 -68.35331 
L 131.843303 -67.789564 
L 131.828886 -67.225818 
L 131.814933 -66.662072 
L 131.802162 -66.098326 
L 131.791353 -65.53458 
L 131.783294 -64.970834 
L 131.778727 -64.407087 
L 131.778302 -63.843341 
L 131.782525 -63.279595 
L 131.791729 -62.715849 
L 131.806048 -62.152103 
L 131.825403 -61.588357 
L 131.849508 -61.024611 
L 131.877877 -60.460865 
L 131.909845 -59.897118 
L 131.944597 -59.333372 
L 131.981204 -58.769626 
L 132.018669 -58.20588 
L 132.055965 -57.642134 
L 132.092097 -57.078388 
L 132.126146 -56.514642 
L 132.157328 -55.950895 
L 132.185044 -55.387149 
L 132.208919 -54.823403 
L 132.228839 -54.259657 
L 132.244967 -53.695911 
L 132.257745 -53.132165 
L 132.267874 -52.568419 
L 132.276287 -52.004672 
L 132.2841 -51.440926 
L 132.292563 -50.87718 
L 132.303018 -50.313434 
L 132.316859 -49.749688 
L 132.33552 -49.185942 
L 132.360476 -48.622196 
L 132.393275 -48.058449 
L 132.43558 -47.494703 
L 132.489222 -46.930957 
L 132.556247 -46.367211 
L 132.638948 -45.803465 
L 132.739855 -45.239719 
L 132.861689 -44.675973 
L 133.007263 -44.112226 
L 133.179336 -43.54848 
L 133.380435 -42.984734 
L 133.612654 -42.420988 
L 133.877462 -41.857242 
L 134.175537 -41.293496 
L 134.506656 -40.72975 
L 134.869651 -40.166004 
L 135.262443 -39.602257 
L 135.682147 -39.038511 
L 136.125232 -38.474765 
L 136.5877 -37.911019 
L 137.065263 -37.347273 
L 137.553471 -36.783527 
L 138.04777 -36.219781 
L 138.543452 -35.656034 
L 139.035524 -35.092288 
L 139.518489 -34.528542 
L 139.986089 -33.964796 
L 140.431061 -33.40105 
L 140.844963 -32.837304 
L 141.218147 -32.273558 
L 141.539903 -31.709811 
L 141.798828 -31.146065 
L 141.983405 -30.582319 
L 142.082753 -30.018573 
L 142.0875 -29.454827 
L 141.990671 -28.891081 
L 141.788505 -28.327335 
L 141.481079 -27.763588 
L 141.072682 -27.199842 
L 140.571844 -26.636096 
L 139.991032 -26.07235 
L 139.346015 -25.508604 
L 138.65495 -24.944858 
L 137.937301 -24.381112 
z
" id="m73111031bc" style="stroke:#ffffff;"/>
    </defs>
    <g clip-path="url(#pcd9d1a5fc1)">
     <use style="fill:#e7298a;stroke:#ffffff;" x="0" xlink:href="#m73111031bc" y="155.747837"/>
    </g>
   </g>
   <g id="PolyCollection_4">
    <defs>
     <path d="M 179.704031 -24.600572 
L 167.245969 -24.600572 
L 166.591339 -25.321519 
L 165.95717 -26.042467 
L 165.358053 -26.763414 
L 164.807657 -27.484362 
L 164.318021 -28.205309 
L 163.898972 -28.926257 
L 163.557687 -29.647204 
L 163.298443 -30.368152 
L 163.122566 -31.0891 
L 163.028578 -31.810047 
L 163.0125 -32.530995 
L 163.068298 -33.251942 
L 163.188409 -33.97289 
L 163.3643 -34.693837 
L 163.587022 -35.414785 
L 163.847706 -36.135732 
L 164.137979 -36.85668 
L 164.450283 -37.577627 
L 164.778078 -38.298575 
L 165.115943 -39.019522 
L 165.459579 -39.74047 
L 165.805731 -40.461417 
L 166.152051 -41.182365 
L 166.49692 -41.903313 
L 166.839258 -42.62426 
L 167.178329 -43.345208 
L 167.513568 -44.066155 
L 167.844439 -44.787103 
L 168.170332 -45.50805 
L 168.4905 -46.228998 
L 168.804042 -46.949945 
L 169.109916 -47.670893 
L 169.406981 -48.39184 
L 169.69406 -49.112788 
L 169.969998 -49.833735 
L 170.233727 -50.554683 
L 170.484321 -51.27563 
L 170.721028 -51.996578 
L 170.943293 -52.717526 
L 171.150771 -53.438473 
L 171.343317 -54.159421 
L 171.520978 -54.880368 
L 171.683977 -55.601316 
L 171.832687 -56.322263 
L 171.967617 -57.043211 
L 172.089383 -57.764158 
L 172.19869 -58.485106 
L 172.296311 -59.206053 
L 172.383062 -59.927001 
L 172.459784 -60.647948 
L 172.52733 -61.368896 
L 172.586546 -62.089843 
L 172.63826 -62.810791 
L 172.683278 -63.531739 
L 172.722372 -64.252686 
L 172.756276 -64.973634 
L 172.785677 -65.694581 
L 172.811205 -66.415529 
L 172.833424 -67.136476 
L 172.85282 -67.857424 
L 172.86979 -68.578371 
L 172.88464 -69.299319 
L 172.89758 -70.020266 
L 172.908736 -70.741214 
L 172.918161 -71.462161 
L 172.925859 -72.183109 
L 172.931811 -72.904056 
L 172.936008 -73.625004 
L 172.938475 -74.345952 
L 172.939303 -75.066899 
L 172.938662 -75.787847 
L 172.936818 -76.508794 
L 172.934125 -77.229742 
L 172.931022 -77.950689 
L 172.928014 -78.671637 
L 172.925639 -79.392584 
L 172.924442 -80.113532 
L 172.924932 -80.834479 
L 172.927554 -81.555427 
L 172.932644 -82.276374 
L 172.940409 -82.997322 
L 172.950901 -83.718269 
L 172.964009 -84.439217 
L 172.979466 -85.160165 
L 172.99686 -85.881112 
L 173.01567 -86.60206 
L 173.035308 -87.323007 
L 173.055167 -88.043955 
L 173.074675 -88.764902 
L 173.093349 -89.48585 
L 173.110833 -90.206797 
L 173.126933 -90.927745 
L 173.141627 -91.648692 
L 173.155059 -92.36964 
L 173.167518 -93.090587 
L 173.179393 -93.811535 
L 173.191129 -94.532482 
L 173.203169 -95.25343 
L 173.215903 -95.974378 
L 173.734097 -95.974378 
L 173.734097 -95.974378 
L 173.746831 -95.25343 
L 173.758871 -94.532482 
L 173.770607 -93.811535 
L 173.782482 -93.090587 
L 173.794941 -92.36964 
L 173.808373 -91.648692 
L 173.823067 -90.927745 
L 173.839167 -90.206797 
L 173.856651 -89.48585 
L 173.875325 -88.764902 
L 173.894833 -88.043955 
L 173.914692 -87.323007 
L 173.93433 -86.60206 
L 173.95314 -85.881112 
L 173.970534 -85.160165 
L 173.985991 -84.439217 
L 173.999099 -83.718269 
L 174.009591 -82.997322 
L 174.017356 -82.276374 
L 174.022446 -81.555427 
L 174.025068 -80.834479 
L 174.025558 -80.113532 
L 174.024361 -79.392584 
L 174.021986 -78.671637 
L 174.018978 -77.950689 
L 174.015875 -77.229742 
L 174.013182 -76.508794 
L 174.011338 -75.787847 
L 174.010697 -75.066899 
L 174.011525 -74.345952 
L 174.013992 -73.625004 
L 174.018189 -72.904056 
L 174.024141 -72.183109 
L 174.031839 -71.462161 
L 174.041264 -70.741214 
L 174.05242 -70.020266 
L 174.06536 -69.299319 
L 174.08021 -68.578371 
L 174.09718 -67.857424 
L 174.116576 -67.136476 
L 174.138795 -66.415529 
L 174.164323 -65.694581 
L 174.193724 -64.973634 
L 174.227628 -64.252686 
L 174.266722 -63.531739 
L 174.31174 -62.810791 
L 174.363454 -62.089843 
L 174.42267 -61.368896 
L 174.490216 -60.647948 
L 174.566938 -59.927001 
L 174.653689 -59.206053 
L 174.75131 -58.485106 
L 174.860617 -57.764158 
L 174.982383 -57.043211 
L 175.117313 -56.322263 
L 175.266023 -55.601316 
L 175.429022 -54.880368 
L 175.606683 -54.159421 
L 175.799229 -53.438473 
L 176.006707 -52.717526 
L 176.228972 -51.996578 
L 176.465679 -51.27563 
L 176.716273 -50.554683 
L 176.980002 -49.833735 
L 177.25594 -49.112788 
L 177.543019 -48.39184 
L 177.840084 -47.670893 
L 178.145958 -46.949945 
L 178.4595 -46.228998 
L 178.779668 -45.50805 
L 179.105561 -44.787103 
L 179.436432 -44.066155 
L 179.771671 -43.345208 
L 180.110742 -42.62426 
L 180.45308 -41.903313 
L 180.797949 -41.182365 
L 181.144269 -40.461417 
L 181.490421 -39.74047 
L 181.834057 -39.019522 
L 182.171922 -38.298575 
L 182.499717 -37.577627 
L 182.812021 -36.85668 
L 183.102294 -36.135732 
L 183.362978 -35.414785 
L 183.5857 -34.693837 
L 183.761591 -33.97289 
L 183.881702 -33.251942 
L 183.9375 -32.530995 
L 183.921422 -31.810047 
L 183.827434 -31.0891 
L 183.651557 -30.368152 
L 183.392313 -29.647204 
L 183.051028 -28.926257 
L 182.631979 -28.205309 
L 182.142343 -27.484362 
L 181.591947 -26.763414 
L 180.99283 -26.042467 
L 180.358661 -25.321519 
L 179.704031 -24.600572 
z
" id="mda48223514" style="stroke:#ffffff;"/>
    </defs>
    <g clip-path="url(#pcd9d1a5fc1)">
     <use style="fill:#e7298a;stroke:#ffffff;" x="0" xlink:href="#mda48223514" y="155.747837"/>
    </g>
   </g>
   <g id="matplotlib.axis_1">
    <g id="xtick_1">
     <g id="line2d_1">
      <defs>
       <path d="M 0 0 
L 0 -4 
" id="mb04bb9fa12" style="stroke:#333333;stroke-width:0.8;"/>
      </defs>
      <g>
       <use style="fill:#333333;stroke:#333333;stroke-width:0.8;" x="47.925" xlink:href="#mb04bb9fa12" y="136.279357"/>
      </g>
     </g>
     <g id="text_1">
      <!-- $m=0$ -->
      <g style="fill:#333333;" transform="translate(33.725 146.93717)">
       <text>
        <tspan style="font-family:DejaVu Sans;font-size:10px;font-style:oblique;font-weight:oblique;" x="0" y="-0.578125">m</tspan>
        <tspan style="font-family:DejaVu Sans;font-size:10px;font-style:book;font-weight:book;" x="11.689453 22.016602" y="-0.578125">=0</tspan>
       </text>
      </g>
      <!-- $\sigma_G/e \leq 2$ -->
      <g style="fill:#333333;" transform="translate(27.825 157.69967)">
       <text>
        <tspan style="font-family:DejaVu Sans;font-size:10px;font-style:oblique;font-weight:oblique;" x="0 15.404785" y="-0.578125">σe</tspan>
        <tspan style="font-family:DejaVu Sans;font-size:7px;font-style:oblique;font-weight:oblique;" x="6.337891" y="1.0625">G</tspan>
        <tspan style="font-family:DejaVu Sans;font-size:10px;font-style:book;font-weight:book;" x="12.035645 23.505371 33.83252" y="-0.578125">/≤2</tspan>
       </text>
      </g>
     </g>
    </g>
    <g id="xtick_2">
     <g id="line2d_2">
      <g>
       <use style="fill:#333333;stroke:#333333;stroke-width:0.8;" x="89.775" xlink:href="#mb04bb9fa12" y="136.279357"/>
      </g>
     </g>
     <g id="text_2">
      <!-- $m=0$ -->
      <g style="fill:#333333;" transform="translate(75.575 146.93717)">
       <text>
        <tspan style="font-family:DejaVu Sans;font-size:10px;font-style:oblique;font-weight:oblique;" x="0" y="-0.578125">m</tspan>
        <tspan style="font-family:DejaVu Sans;font-size:10px;font-style:book;font-weight:book;" x="11.689453 22.016602" y="-0.578125">=0</tspan>
       </text>
      </g>
      <!-- $\sigma_G/e &gt; 2$ -->
      <g style="fill:#333333;" transform="translate(69.675 157.69967)">
       <text>
        <tspan style="font-family:DejaVu Sans;font-size:10px;font-style:oblique;font-weight:oblique;" x="0 15.404785" y="-0.578125">σe</tspan>
        <tspan style="font-family:DejaVu Sans;font-size:7px;font-style:oblique;font-weight:oblique;" x="6.337891" y="1.0625">G</tspan>
        <tspan style="font-family:DejaVu Sans;font-size:10px;font-style:book;font-weight:book;" x="12.035645 23.505371 33.83252" y="-0.578125">/&gt;2</tspan>
       </text>
      </g>
     </g>
    </g>
    <g id="xtick_3">
     <g id="line2d_3">
      <g>
       <use style="fill:#333333;stroke:#333333;stroke-width:0.8;" x="131.625" xlink:href="#mb04bb9fa12" y="136.279357"/>
      </g>
     </g>
     <g id="text_3">
      <!-- $m=1$ -->
      <g style="fill:#333333;" transform="translate(117.425 146.93717)">
       <text>
        <tspan style="font-family:DejaVu Sans;font-size:10px;font-style:oblique;font-weight:oblique;" x="0" y="-0.703125">m</tspan>
        <tspan style="font-family:DejaVu Sans;font-size:10px;font-style:book;font-weight:book;" x="11.689453 22.016602" y="-0.703125">=1</tspan>
       </text>
      </g>
      <!-- $\sigma_G/e \leq 2$ -->
      <g style="fill:#333333;" transform="translate(111.525 157.69967)">
       <text>
        <tspan style="font-family:DejaVu Sans;font-size:10px;font-style:oblique;font-weight:oblique;" x="0 15.404785" y="-0.578125">σe</tspan>
        <tspan style="font-family:DejaVu Sans;font-size:7px;font-style:oblique;font-weight:oblique;" x="6.337891" y="1.0625">G</tspan>
        <tspan style="font-family:DejaVu Sans;font-size:10px;font-style:book;font-weight:book;" x="12.035645 23.505371 33.83252" y="-0.578125">/≤2</tspan>
       </text>
      </g>
     </g>
    </g>
    <g id="xtick_4">
     <g id="line2d_4">
      <g>
       <use style="fill:#333333;stroke:#333333;stroke-width:0.8;" x="173.475" xlink:href="#mb04bb9fa12" y="136.279357"/>
      </g>
     </g>
     <g id="text_4">
      <!-- $m=1$ -->
      <g style="fill:#333333;" transform="translate(159.275 146.93717)">
       <text>
        <tspan style="font-family:DejaVu Sans;font-size:10px;font-style:oblique;font-weight:oblique;" x="0" y="-0.703125">m</tspan>
        <tspan style="font-family:DejaVu Sans;font-size:10px;font-style:book;font-weight:book;" x="11.689453 22.016602" y="-0.703125">=1</tspan>
       </text>
      </g>
      <!-- $\sigma_G/e &gt; 2$ -->
      <g style="fill:#333333;" transform="translate(153.375 157.69967)">
       <text>
        <tspan style="font-family:DejaVu Sans;font-size:10px;font-style:oblique;font-weight:oblique;" x="0 15.404785" y="-0.578125">σe</tspan>
        <tspan style="font-family:DejaVu Sans;font-size:7px;font-style:oblique;font-weight:oblique;" x="6.337891" y="1.0625">G</tspan>
        <tspan style="font-family:DejaVu Sans;font-size:10px;font-style:book;font-weight:book;" x="12.035645 23.505371 33.83252" y="-0.578125">/&gt;2</tspan>
       </text>
      </g>
     </g>
    </g>
   </g>
   <g id="matplotlib.axis_2">
    <g id="ytick_1">
     <g id="line2d_5">
      <defs>
       <path d="M 0 0 
L 4 0 
" id="mc17d4074bc" style="stroke:#333333;stroke-width:0.8;"/>
      </defs>
      <g>
       <use style="fill:#333333;stroke:#333333;stroke-width:0.8;" x="27" xlink:href="#mc17d4074bc" y="131.405176"/>
      </g>
     </g>
     <g id="text_5">
      <text style="fill:#333333;font-family:Arial;font-size:10px;font-style:normal;font-weight:normal;text-anchor:end;" transform="rotate(-0, 23.5, 134.984082)" x="23.5" y="134.984082">0.0</text>
     </g>
    </g>
    <g id="ytick_2">
     <g id="line2d_6">
      <g>
       <use style="fill:#333333;stroke:#333333;stroke-width:0.8;" x="27" xlink:href="#mc17d4074bc" y="100.941545"/>
      </g>
     </g>
     <g id="text_6">
      <text style="fill:#333333;font-family:Arial;font-size:10px;font-style:normal;font-weight:normal;text-anchor:end;" transform="rotate(-0, 23.5, 104.520451)" x="23.5" y="104.520451">0.5</text>
     </g>
    </g>
    <g id="ytick_3">
     <g id="line2d_7">
      <g>
       <use style="fill:#333333;stroke:#333333;stroke-width:0.8;" x="27" xlink:href="#mc17d4074bc" y="70.477914"/>
      </g>
     </g>
     <g id="text_7">
      <text style="fill:#333333;font-family:Arial;font-size:10px;font-style:normal;font-weight:normal;text-anchor:end;" transform="rotate(-0, 23.5, 74.05682)" x="23.5" y="74.05682">1.0</text>
     </g>
    </g>
    <g id="ytick_4">
     <g id="line2d_8">
      <g>
       <use style="fill:#333333;stroke:#333333;stroke-width:0.8;" x="27" xlink:href="#mc17d4074bc" y="40.014282"/>
      </g>
     </g>
     <g id="text_8">
      <text style="fill:#333333;font-family:Arial;font-size:10px;font-style:normal;font-weight:normal;text-anchor:end;" transform="rotate(-0, 23.5, 43.593189)" x="23.5" y="43.593189">1.5</text>
     </g>
    </g>
    <g id="text_9">
     <!-- $p_{G \rightarrow G'}$ -->
     <g style="fill:#333333;" transform="translate(2.66 97.224549)rotate(-90)">
      <text>
       <tspan style="font-family:DejaVu Sans;font-size:14px;font-style:oblique;font-weight:oblique;" x="0" y="-0.15625">p</tspan>
       <tspan style="font-family:DejaVu Sans;font-size:9.8px;font-style:oblique;font-weight:oblique;" x="8.886719 28.510645" y="2.140625">GG</tspan>
       <tspan style="font-family:DejaVu Sans;font-size:9.8px;font-style:book;font-weight:book;" x="18.390039" y="2.140625">→</tspan>
       <tspan style="font-family:cmsy10;font-size:6.86px;font-style:regular;font-weight:regular;" x="36.810339" y="-1.6109375">0</tspan>
      </text>
     </g>
    </g>
   </g>
   <g id="line2d_9">
    <path clip-path="url(#pcd9d1a5fc1)" d="M 43.74 93.991788 
L 52.11 93.991788 
" style="fill:none;stroke:#ffffff;stroke-linecap:square;stroke-width:1.2;"/>
   </g>
   <g id="line2d_10">
    <path clip-path="url(#pcd9d1a5fc1)" d="M 43.74 74.390352 
L 52.11 74.390352 
" style="fill:none;stroke:#ffffff;stroke-linecap:square;stroke-width:1.2;"/>
   </g>
   <g id="line2d_11">
    <path clip-path="url(#pcd9d1a5fc1)" d="M 41.6475 84.717262 
L 54.2025 84.717262 
" style="fill:none;stroke:#ffffff;stroke-linecap:square;stroke-width:1.5;"/>
   </g>
   <g id="line2d_12">
    <path clip-path="url(#pcd9d1a5fc1)" d="M 47.925 93.991788 
L 47.925 74.390352 
" style="fill:none;stroke:#ffffff;stroke-linecap:square;"/>
   </g>
   <g id="line2d_13">
    <path clip-path="url(#pcd9d1a5fc1)" d="M 85.59 127.205202 
L 93.96 127.205202 
" style="fill:none;stroke:#ffffff;stroke-linecap:square;stroke-width:1.2;"/>
   </g>
   <g id="line2d_14">
    <path clip-path="url(#pcd9d1a5fc1)" d="M 85.59 112.270369 
L 93.96 112.270369 
" style="fill:none;stroke:#ffffff;stroke-linecap:square;stroke-width:1.2;"/>
   </g>
   <g id="line2d_15">
    <path clip-path="url(#pcd9d1a5fc1)" d="M 83.4975 122.735213 
L 96.0525 122.735213 
" style="fill:none;stroke:#ffffff;stroke-linecap:square;stroke-width:1.5;"/>
   </g>
   <g id="line2d_16">
    <path clip-path="url(#pcd9d1a5fc1)" d="M 89.775 127.205202 
L 89.775 112.270369 
" style="fill:none;stroke:#ffffff;stroke-linecap:square;"/>
   </g>
   <g id="line2d_17">
    <path clip-path="url(#pcd9d1a5fc1)" d="M 127.44 127.868845 
L 135.81 127.868845 
" style="fill:none;stroke:#ffffff;stroke-linecap:square;stroke-width:1.2;"/>
   </g>
   <g id="line2d_18">
    <path clip-path="url(#pcd9d1a5fc1)" d="M 127.44 120.646428 
L 135.81 120.646428 
" style="fill:none;stroke:#ffffff;stroke-linecap:square;stroke-width:1.2;"/>
   </g>
   <g id="line2d_19">
    <path clip-path="url(#pcd9d1a5fc1)" d="M 125.3475 124.973173 
L 137.9025 124.973173 
" style="fill:none;stroke:#ffffff;stroke-linecap:square;stroke-width:1.5;"/>
   </g>
   <g id="line2d_20">
    <path clip-path="url(#pcd9d1a5fc1)" d="M 131.625 127.868845 
L 131.625 120.646428 
" style="fill:none;stroke:#ffffff;stroke-linecap:square;"/>
   </g>
   <g id="line2d_21">
    <path clip-path="url(#pcd9d1a5fc1)" d="M 169.29 125.782853 
L 177.66 125.782853 
" style="fill:none;stroke:#ffffff;stroke-linecap:square;stroke-width:1.2;"/>
   </g>
   <g id="line2d_22">
    <path clip-path="url(#pcd9d1a5fc1)" d="M 169.29 112.196574 
L 177.66 112.196574 
" style="fill:none;stroke:#ffffff;stroke-linecap:square;stroke-width:1.2;"/>
   </g>
   <g id="line2d_23">
    <path clip-path="url(#pcd9d1a5fc1)" d="M 167.1975 120.418982 
L 179.7525 120.418982 
" style="fill:none;stroke:#ffffff;stroke-linecap:square;stroke-width:1.5;"/>
   </g>
   <g id="line2d_24">
    <path clip-path="url(#pcd9d1a5fc1)" d="M 173.475 125.782853 
L 173.475 112.196574 
" style="fill:none;stroke:#ffffff;stroke-linecap:square;"/>
   </g>
   <g id="line2d_25">
    <path clip-path="url(#pcd9d1a5fc1)" d="M 56.295 58.292461 
L 85.59 58.292461 
" style="fill:none;stroke:#333333;stroke-linecap:square;stroke-width:1.5;"/>
   </g>
   <g id="line2d_26">
    <path clip-path="url(#pcd9d1a5fc1)" d="M 56.295 46.107009 
L 127.44 46.107009 
" style="fill:none;stroke:#333333;stroke-linecap:square;stroke-width:1.5;"/>
   </g>
   <g id="line2d_27">
    <path clip-path="url(#pcd9d1a5fc1)" d="M 56.295 33.921556 
L 169.29 33.921556 
" style="fill:none;stroke:#333333;stroke-linecap:square;stroke-width:1.5;"/>
   </g>
   <g id="patch_3">
    <path d="M 27 136.279357 
L 27 18.68974 
" style="fill:none;stroke:#333333;stroke-linecap:square;stroke-linejoin:miter;"/>
   </g>
   <g id="patch_4">
    <path d="M 27 136.279357 
L 194.4 136.279357 
" style="fill:none;stroke:#333333;stroke-linecap:square;stroke-linejoin:miter;"/>
   </g>
   <g id="text_10">
    <text style="fill:#333333;font-family:Arial;font-size:10px;font-style:normal;font-weight:normal;text-anchor:middle;" transform="rotate(-0, 70.9425, 57.683188)" x="70.9425" y="57.683188">***</text>
   </g>
   <g id="text_11">
    <text style="fill:#333333;font-family:Arial;font-size:10px;font-style:normal;font-weight:normal;text-anchor:middle;" transform="rotate(-0, 112.7925, 45.497736)" x="112.7925" y="45.497736">***</text>
   </g>
   <g id="text_12">
    <text style="fill:#333333;font-family:Arial;font-size:10px;font-style:normal;font-weight:normal;text-anchor:middle;" transform="rotate(-0, 154.6425, 33.312283)" x="154.6425" y="33.312283">***</text>
   </g>
  </g>
 </g>
 <defs>
  <clipPath id="pcd9d1a5fc1">
   <rect height="117.589617" width="167.4" x="27" y="18.68974"/>
  </clipPath>
 </defs>
</svg>
