<?xml version="1.0" encoding="utf-8" standalone="no"?>
<!DOCTYPE svg PUBLIC "-//W3C//DTD SVG 1.1//EN"
  "http://www.w3.org/Graphics/SVG/1.1/DTD/svg11.dtd">
<!-- Created with matplotlib (http://matplotlib.org/) -->
<svg height="155.747837pt" version="1.1" viewBox="0 0 216 155.747837" width="216pt" xmlns="http://www.w3.org/2000/svg" xmlns:xlink="http://www.w3.org/1999/xlink">
 <defs>
  <style type="text/css">
*{stroke-linecap:butt;stroke-linejoin:round;}
  </style>
 </defs>
 <g id="figure_1">
  <g id="patch_1">
   <path d="M 0 155.747837 
L 216 155.747837 
L 216 0 
L 0 0 
z
" style="fill:#ffffff;"/>
  </g>
  <g id="axes_1">
   <g id="patch_2">
    <path d="M 27 136.279357 
L 194.4 136.279357 
L 194.4 18.68974 
L 27 18.68974 
z
" style="fill:#ffffff;"/>
   </g>
   <g id="PolyCollection_1">
    <defs>
     <path d="M 50.527285 -28.372214 
L 45.322715 -28.372214 
L 45.105723 -29.393087 
L 44.891224 -30.41396 
L 44.681048 -31.434833 
L 44.476755 -32.455706 
L 44.279576 -33.476579 
L 44.090374 -34.497452 
L 43.909623 -35.518325 
L 43.737384 -36.539198 
L 43.573299 -37.560071 
L 43.416588 -38.580944 
L 43.266053 -39.601816 
L 43.12009 -40.622689 
L 42.976716 -41.643562 
L 42.833598 -42.664435 
L 42.688117 -43.685308 
L 42.537445 -44.706181 
L 42.378652 -45.727054 
L 42.208838 -46.747927 
L 42.025286 -47.7688 
L 41.825645 -48.789673 
L 41.608101 -49.810546 
L 41.371564 -50.831419 
L 41.115822 -51.852292 
L 40.841668 -52.873165 
L 40.550973 -53.894038 
L 40.246709 -54.914911 
L 39.932899 -55.935784 
L 39.614501 -56.956657 
L 39.297229 -57.97753 
L 38.98732 -58.998403 
L 38.691264 -60.019276 
L 38.415507 -61.040149 
L 38.166154 -62.061022 
L 37.948696 -63.081895 
L 37.767759 -64.102768 
L 37.626919 -65.123641 
L 37.528558 -66.144514 
L 37.4738 -67.165387 
L 37.4625 -68.18626 
L 37.493297 -69.207133 
L 37.563712 -70.228006 
L 37.670296 -71.248879 
L 37.808799 -72.269752 
L 37.974364 -73.290625 
L 38.161734 -74.311498 
L 38.365454 -75.332371 
L 38.580081 -76.353243 
L 38.800376 -77.374116 
L 39.021494 -78.394989 
L 39.239149 -79.415862 
L 39.449767 -80.436735 
L 39.650606 -81.457608 
L 39.83985 -82.478481 
L 40.016662 -83.499354 
L 40.181196 -84.520227 
L 40.33456 -85.5411 
L 40.478728 -86.561973 
L 40.616407 -87.582846 
L 40.750855 -88.603719 
L 40.885669 -89.624592 
L 41.024546 -90.645465 
L 41.171039 -91.666338 
L 41.328314 -92.687211 
L 41.498948 -93.708084 
L 41.68475 -94.728957 
L 41.886647 -95.74983 
L 42.104631 -96.770703 
L 42.337766 -97.791576 
L 42.584259 -98.812449 
L 42.841592 -99.833322 
L 43.106689 -100.854195 
L 43.376113 -101.875068 
L 43.646281 -102.895941 
L 43.913663 -103.916814 
L 44.174969 -104.937687 
L 44.427294 -105.95856 
L 44.668233 -106.979433 
L 44.895942 -108.000306 
L 45.109159 -109.021179 
L 45.307185 -110.042052 
L 45.489831 -111.062925 
L 45.657346 -112.083798 
L 45.810328 -113.10467 
L 45.949637 -114.125543 
L 46.07631 -115.146416 
L 46.191486 -116.167289 
L 46.296351 -117.188162 
L 46.392091 -118.209035 
L 46.479866 -119.229908 
L 46.560791 -120.250781 
L 46.635923 -121.271654 
L 46.706261 -122.292527 
L 46.77273 -123.3134 
L 46.836182 -124.334273 
L 46.89738 -125.355146 
L 46.956983 -126.376019 
L 47.015536 -127.396892 
L 47.073449 -128.417765 
L 47.130993 -129.438638 
L 48.719007 -129.438638 
L 48.719007 -129.438638 
L 48.776551 -128.417765 
L 48.834464 -127.396892 
L 48.893017 -126.376019 
L 48.95262 -125.355146 
L 49.013818 -124.334273 
L 49.07727 -123.3134 
L 49.143739 -122.292527 
L 49.214077 -121.271654 
L 49.289209 -120.250781 
L 49.370134 -119.229908 
L 49.457909 -118.209035 
L 49.553649 -117.188162 
L 49.658514 -116.167289 
L 49.77369 -115.146416 
L 49.900363 -114.125543 
L 50.039672 -113.10467 
L 50.192654 -112.083798 
L 50.360169 -111.062925 
L 50.542815 -110.042052 
L 50.740841 -109.021179 
L 50.954058 -108.000306 
L 51.181767 -106.979433 
L 51.422706 -105.95856 
L 51.675031 -104.937687 
L 51.936337 -103.916814 
L 52.203719 -102.895941 
L 52.473887 -101.875068 
L 52.743311 -100.854195 
L 53.008408 -99.833322 
L 53.265741 -98.812449 
L 53.512234 -97.791576 
L 53.745369 -96.770703 
L 53.963353 -95.74983 
L 54.16525 -94.728957 
L 54.351052 -93.708084 
L 54.521686 -92.687211 
L 54.678961 -91.666338 
L 54.825454 -90.645465 
L 54.964331 -89.624592 
L 55.099145 -88.603719 
L 55.233593 -87.582846 
L 55.371272 -86.561973 
L 55.51544 -85.5411 
L 55.668804 -84.520227 
L 55.833338 -83.499354 
L 56.01015 -82.478481 
L 56.199394 -81.457608 
L 56.400233 -80.436735 
L 56.610851 -79.415862 
L 56.828506 -78.394989 
L 57.049624 -77.374116 
L 57.269919 -76.353243 
L 57.484546 -75.332371 
L 57.688266 -74.311498 
L 57.875636 -73.290625 
L 58.041201 -72.269752 
L 58.179704 -71.248879 
L 58.286288 -70.228006 
L 58.356703 -69.207133 
L 58.3875 -68.18626 
L 58.3762 -67.165387 
L 58.321442 -66.144514 
L 58.223081 -65.123641 
L 58.082241 -64.102768 
L 57.901304 -63.081895 
L 57.683846 -62.061022 
L 57.434493 -61.040149 
L 57.158736 -60.019276 
L 56.86268 -58.998403 
L 56.552771 -57.97753 
L 56.235499 -56.956657 
L 55.917101 -55.935784 
L 55.603291 -54.914911 
L 55.299027 -53.894038 
L 55.008332 -52.873165 
L 54.734178 -51.852292 
L 54.478436 -50.831419 
L 54.241899 -49.810546 
L 54.024355 -48.789673 
L 53.824714 -47.7688 
L 53.641162 -46.747927 
L 53.471348 -45.727054 
L 53.312555 -44.706181 
L 53.161883 -43.685308 
L 53.016402 -42.664435 
L 52.873284 -41.643562 
L 52.72991 -40.622689 
L 52.583947 -39.601816 
L 52.433412 -38.580944 
L 52.276701 -37.560071 
L 52.112616 -36.539198 
L 51.940377 -35.518325 
L 51.759626 -34.497452 
L 51.570424 -33.476579 
L 51.373245 -32.455706 
L 51.168952 -31.434833 
L 50.958776 -30.41396 
L 50.744277 -29.393087 
L 50.527285 -28.372214 
z
" id="mcd019ca9a9" style="stroke:#ffffff;"/>
    </defs>
    <g clip-path="url(#pa934a2e425)">
     <use style="fill:#666666;stroke:#ffffff;" x="0" xlink:href="#mcd019ca9a9" y="155.747837"/>
    </g>
   </g>
   <g id="PolyCollection_2">
    <defs>
     <path d="M 96.74768 -24.746733 
L 82.80232 -24.746733 
L 82.054643 -25.648601 
L 81.360775 -26.550468 
L 80.743519 -27.452336 
L 80.222378 -28.354204 
L 79.812253 -29.256071 
L 79.522544 -30.157939 
L 79.356735 -31.059807 
L 79.3125 -31.961675 
L 79.382269 -32.863542 
L 79.554192 -33.76541 
L 79.813367 -34.667278 
L 80.143179 -35.569145 
L 80.526627 -36.471013 
L 80.947494 -37.372881 
L 81.391263 -38.274749 
L 81.845725 -39.176616 
L 82.301249 -40.078484 
L 82.750736 -40.980352 
L 83.18932 -41.882219 
L 83.613887 -42.784087 
L 84.022509 -43.685955 
L 84.413894 -44.587822 
L 84.786923 -45.48969 
L 85.140341 -46.391558 
L 85.472621 -47.293426 
L 85.781998 -48.195293 
L 86.066657 -49.097161 
L 86.324997 -49.999029 
L 86.555934 -50.900896 
L 86.759167 -51.802764 
L 86.935363 -52.704632 
L 87.086226 -53.6065 
L 87.214441 -54.508367 
L 87.323493 -55.410235 
L 87.417402 -56.312103 
L 87.500389 -57.21397 
L 87.576542 -58.115838 
L 87.649502 -59.017706 
L 87.722221 -59.919573 
L 87.796798 -60.821441 
L 87.874419 -61.723309 
L 87.955389 -62.625177 
L 88.039244 -63.527044 
L 88.124921 -64.428912 
L 88.210955 -65.33078 
L 88.295686 -66.232647 
L 88.377441 -67.134515 
L 88.454684 -68.036383 
L 88.52612 -68.938251 
L 88.590756 -69.840118 
L 88.647915 -70.741986 
L 88.69723 -71.643854 
L 88.738614 -72.545721 
L 88.77223 -73.447589 
L 88.798462 -74.349457 
L 88.817894 -75.251324 
L 88.831308 -76.153192 
L 88.839674 -77.05506 
L 88.84415 -77.956928 
L 88.846067 -78.858795 
L 88.8469 -79.760663 
L 88.848208 -80.662531 
L 88.851558 -81.564398 
L 88.858428 -82.466266 
L 88.870096 -83.368134 
L 88.887531 -84.270002 
L 88.911308 -85.171869 
L 88.941541 -86.073737 
L 88.977871 -86.975605 
L 89.019494 -87.877472 
L 89.06524 -88.77934 
L 89.113691 -89.681208 
L 89.163317 -90.583075 
L 89.212625 -91.484943 
L 89.260293 -92.386811 
L 89.305269 -93.288679 
L 89.346825 -94.190546 
L 89.384572 -95.092414 
L 89.418421 -95.994282 
L 89.448511 -96.896149 
L 89.475116 -97.798017 
L 89.498553 -98.699885 
L 89.5191 -99.601753 
L 89.53694 -100.50362 
L 89.55214 -101.405488 
L 89.56467 -102.307356 
L 89.574438 -103.209223 
L 89.581363 -104.111091 
L 89.58544 -105.012959 
L 89.586802 -105.914826 
L 89.58577 -106.816694 
L 89.582861 -107.718562 
L 89.578777 -108.62043 
L 89.574353 -109.522297 
L 89.570488 -110.424165 
L 89.568053 -111.326033 
L 89.567809 -112.2279 
L 89.570326 -113.129768 
L 89.575928 -114.031636 
L 89.974072 -114.031636 
L 89.974072 -114.031636 
L 89.979674 -113.129768 
L 89.982191 -112.2279 
L 89.981947 -111.326033 
L 89.979512 -110.424165 
L 89.975647 -109.522297 
L 89.971223 -108.62043 
L 89.967139 -107.718562 
L 89.96423 -106.816694 
L 89.963198 -105.914826 
L 89.96456 -105.012959 
L 89.968637 -104.111091 
L 89.975562 -103.209223 
L 89.98533 -102.307356 
L 89.99786 -101.405488 
L 90.01306 -100.50362 
L 90.0309 -99.601753 
L 90.051447 -98.699885 
L 90.074884 -97.798017 
L 90.101489 -96.896149 
L 90.131579 -95.994282 
L 90.165428 -95.092414 
L 90.203175 -94.190546 
L 90.244731 -93.288679 
L 90.289707 -92.386811 
L 90.337375 -91.484943 
L 90.386683 -90.583075 
L 90.436309 -89.681208 
L 90.48476 -88.77934 
L 90.530506 -87.877472 
L 90.572129 -86.975605 
L 90.608459 -86.073737 
L 90.638692 -85.171869 
L 90.662469 -84.270002 
L 90.679904 -83.368134 
L 90.691572 -82.466266 
L 90.698442 -81.564398 
L 90.701792 -80.662531 
L 90.7031 -79.760663 
L 90.703933 -78.858795 
L 90.70585 -77.956928 
L 90.710326 -77.05506 
L 90.718692 -76.153192 
L 90.732106 -75.251324 
L 90.751538 -74.349457 
L 90.77777 -73.447589 
L 90.811386 -72.545721 
L 90.85277 -71.643854 
L 90.902085 -70.741986 
L 90.959244 -69.840118 
L 91.02388 -68.938251 
L 91.095316 -68.036383 
L 91.172559 -67.134515 
L 91.254314 -66.232647 
L 91.339045 -65.33078 
L 91.425079 -64.428912 
L 91.510756 -63.527044 
L 91.594611 -62.625177 
L 91.675581 -61.723309 
L 91.753202 -60.821441 
L 91.827779 -59.919573 
L 91.900498 -59.017706 
L 91.973458 -58.115838 
L 92.049611 -57.21397 
L 92.132598 -56.312103 
L 92.226507 -55.410235 
L 92.335559 -54.508367 
L 92.463774 -53.6065 
L 92.614637 -52.704632 
L 92.790833 -51.802764 
L 92.994066 -50.900896 
L 93.225003 -49.999029 
L 93.483343 -49.097161 
L 93.768002 -48.195293 
L 94.077379 -47.293426 
L 94.409659 -46.391558 
L 94.763077 -45.48969 
L 95.136106 -44.587822 
L 95.527491 -43.685955 
L 95.936113 -42.784087 
L 96.36068 -41.882219 
L 96.799264 -40.980352 
L 97.248751 -40.078484 
L 97.704275 -39.176616 
L 98.158737 -38.274749 
L 98.602506 -37.372881 
L 99.023373 -36.471013 
L 99.406821 -35.569145 
L 99.736633 -34.667278 
L 99.995808 -33.76541 
L 100.167731 -32.863542 
L 100.2375 -31.961675 
L 100.193265 -31.059807 
L 100.027456 -30.157939 
L 99.737747 -29.256071 
L 99.327622 -28.354204 
L 98.806481 -27.452336 
L 98.189225 -26.550468 
L 97.495357 -25.648601 
L 96.74768 -24.746733 
z
" id="me6ac347dd5" style="stroke:#ffffff;"/>
    </defs>
    <g clip-path="url(#pa934a2e425)">
     <use style="fill:#666666;stroke:#ffffff;" x="0" xlink:href="#me6ac347dd5" y="155.747837"/>
    </g>
   </g>
   <g id="PolyCollection_3">
    <defs>
     <path d="M 138.866718 -24.381112 
L 124.383282 -24.381112 
L 123.59034 -25.358192 
L 122.868047 -26.335273 
L 122.245695 -27.312354 
L 121.74846 -28.289435 
L 121.395557 -29.266516 
L 121.198913 -30.243597 
L 121.1625 -31.220678 
L 121.282342 -32.197758 
L 121.547167 -33.174839 
L 121.939579 -34.15192 
L 122.437592 -35.129001 
L 123.016354 -36.106082 
L 123.64988 -37.083163 
L 124.312655 -38.060243 
L 124.981011 -39.037324 
L 125.634186 -40.014405 
L 126.255055 -40.991486 
L 126.830526 -41.968567 
L 127.351623 -42.945648 
L 127.813302 -43.922728 
L 128.214062 -44.899809 
L 128.555408 -45.87689 
L 128.841224 -46.853971 
L 129.077123 -47.831052 
L 129.269823 -48.808133 
L 129.426574 -49.785214 
L 129.554674 -50.762294 
L 129.66107 -51.739375 
L 129.752059 -52.716456 
L 129.833077 -53.693537 
L 129.908562 -54.670618 
L 129.981897 -55.647699 
L 130.055416 -56.624779 
L 130.130467 -57.60186 
L 130.207521 -58.578941 
L 130.286326 -59.556022 
L 130.36608 -60.533103 
L 130.445613 -61.510184 
L 130.523564 -62.487265 
L 130.598533 -63.464345 
L 130.669196 -64.441426 
L 130.73439 -65.418507 
L 130.793155 -66.395588 
L 130.844756 -67.372669 
L 130.888681 -68.34975 
L 130.924643 -69.32683 
L 130.952581 -70.303911 
L 130.972667 -71.280992 
L 130.985332 -72.258073 
L 130.991275 -73.235154 
L 130.991475 -74.212235 
L 130.987181 -75.189315 
L 130.97987 -76.166396 
L 130.971188 -77.143477 
L 130.962847 -78.120558 
L 130.956521 -79.097639 
L 130.953722 -80.07472 
L 130.955695 -81.051801 
L 130.963328 -82.028881 
L 130.977097 -83.005962 
L 130.997053 -83.983043 
L 131.022847 -84.960124 
L 131.053792 -85.937205 
L 131.088951 -86.914286 
L 131.127237 -87.891366 
L 131.167513 -88.868447 
L 131.20868 -89.845528 
L 131.249736 -90.822609 
L 131.28982 -91.79969 
L 131.328219 -92.776771 
L 131.364363 -93.753851 
L 131.397796 -94.730932 
L 131.428156 -95.708013 
L 131.455145 -96.685094 
L 131.478515 -97.662175 
L 131.498067 -98.639256 
L 131.513658 -99.616337 
L 131.525217 -100.593417 
L 131.532763 -101.570498 
L 131.536429 -102.547579 
L 131.536471 -103.52466 
L 131.533273 -104.501741 
L 131.527332 -105.478822 
L 131.51924 -106.455902 
L 131.509644 -107.432983 
L 131.499211 -108.410064 
L 131.488581 -109.387145 
L 131.47833 -110.364226 
L 131.468944 -111.341307 
L 131.460801 -112.318387 
L 131.454175 -113.295468 
L 131.449246 -114.272549 
L 131.446124 -115.24963 
L 131.444868 -116.226711 
L 131.445512 -117.203792 
L 131.448071 -118.180873 
L 131.452541 -119.157953 
L 131.458889 -120.135034 
L 131.467036 -121.112115 
L 131.782964 -121.112115 
L 131.782964 -121.112115 
L 131.791111 -120.135034 
L 131.797459 -119.157953 
L 131.801929 -118.180873 
L 131.804488 -117.203792 
L 131.805132 -116.226711 
L 131.803876 -115.24963 
L 131.800754 -114.272549 
L 131.795825 -113.295468 
L 131.789199 -112.318387 
L 131.781056 -111.341307 
L 131.77167 -110.364226 
L 131.761419 -109.387145 
L 131.750789 -108.410064 
L 131.740356 -107.432983 
L 131.73076 -106.455902 
L 131.722668 -105.478822 
L 131.716727 -104.501741 
L 131.713529 -103.52466 
L 131.713571 -102.547579 
L 131.717237 -101.570498 
L 131.724783 -100.593417 
L 131.736342 -99.616337 
L 131.751933 -98.639256 
L 131.771485 -97.662175 
L 131.794855 -96.685094 
L 131.821844 -95.708013 
L 131.852204 -94.730932 
L 131.885637 -93.753851 
L 131.921781 -92.776771 
L 131.96018 -91.79969 
L 132.000264 -90.822609 
L 132.04132 -89.845528 
L 132.082487 -88.868447 
L 132.122763 -87.891366 
L 132.161049 -86.914286 
L 132.196208 -85.937205 
L 132.227153 -84.960124 
L 132.252947 -83.983043 
L 132.272903 -83.005962 
L 132.286672 -82.028881 
L 132.294305 -81.051801 
L 132.296278 -80.07472 
L 132.293479 -79.097639 
L 132.287153 -78.120558 
L 132.278812 -77.143477 
L 132.27013 -76.166396 
L 132.262819 -75.189315 
L 132.258525 -74.212235 
L 132.258725 -73.235154 
L 132.264668 -72.258073 
L 132.277333 -71.280992 
L 132.297419 -70.303911 
L 132.325357 -69.32683 
L 132.361319 -68.34975 
L 132.405244 -67.372669 
L 132.456845 -66.395588 
L 132.51561 -65.418507 
L 132.580804 -64.441426 
L 132.651467 -63.464345 
L 132.726436 -62.487265 
L 132.804387 -61.510184 
L 132.88392 -60.533103 
L 132.963674 -59.556022 
L 133.042479 -58.578941 
L 133.119533 -57.60186 
L 133.194584 -56.624779 
L 133.268103 -55.647699 
L 133.341438 -54.670618 
L 133.416923 -53.693537 
L 133.497941 -52.716456 
L 133.58893 -51.739375 
L 133.695326 -50.762294 
L 133.823426 -49.785214 
L 133.980177 -48.808133 
L 134.172877 -47.831052 
L 134.408776 -46.853971 
L 134.694592 -45.87689 
L 135.035938 -44.899809 
L 135.436698 -43.922728 
L 135.898377 -42.945648 
L 136.419474 -41.968567 
L 136.994945 -40.991486 
L 137.615814 -40.014405 
L 138.268989 -39.037324 
L 138.937345 -38.060243 
L 139.60012 -37.083163 
L 140.233646 -36.106082 
L 140.812408 -35.129001 
L 141.310421 -34.15192 
L 141.702833 -33.174839 
L 141.967658 -32.197758 
L 142.0875 -31.220678 
L 142.051087 -30.243597 
L 141.854443 -29.266516 
L 141.50154 -28.289435 
L 141.004305 -27.312354 
L 140.381953 -26.335273 
L 139.65966 -25.358192 
L 138.866718 -24.381112 
z
" id="m4236775511" style="stroke:#ffffff;"/>
    </defs>
    <g clip-path="url(#pa934a2e425)">
     <use style="fill:#e7298a;stroke:#ffffff;" x="0" xlink:href="#m4236775511" y="155.747837"/>
    </g>
   </g>
   <g id="PolyCollection_4">
    <defs>
     <path d="M 179.741156 -24.600572 
L 167.208844 -24.600572 
L 166.613486 -25.392128 
L 166.03529 -26.183685 
L 165.485224 -26.975241 
L 164.9736 -27.766797 
L 164.509633 -28.558354 
L 164.101064 -29.34991 
L 163.753879 -30.141467 
L 163.472127 -30.933023 
L 163.257864 -31.724579 
L 163.111205 -32.516136 
L 163.030483 -33.307692 
L 163.0125 -34.099248 
L 163.052828 -34.890805 
L 163.146152 -35.682361 
L 163.286619 -36.473918 
L 163.468153 -37.265474 
L 163.684744 -38.05703 
L 163.93066 -38.848587 
L 164.200607 -39.640143 
L 164.489809 -40.4317 
L 164.794028 -41.223256 
L 165.109536 -42.014812 
L 165.433042 -42.806369 
L 165.761607 -43.597925 
L 166.092548 -44.389482 
L 166.423358 -45.181038 
L 166.751645 -45.972594 
L 167.075105 -46.764151 
L 167.391514 -47.555707 
L 167.698766 -48.347264 
L 167.994911 -49.13882 
L 168.278225 -49.930376 
L 168.547266 -50.721933 
L 168.800932 -51.513489 
L 169.038501 -52.305046 
L 169.259643 -53.096602 
L 169.464413 -53.888158 
L 169.653226 -54.679715 
L 169.826799 -55.471271 
L 169.986093 -56.262828 
L 170.132247 -57.054384 
L 170.266502 -57.84594 
L 170.39015 -58.637497 
L 170.504482 -59.429053 
L 170.610749 -60.22061 
L 170.710146 -61.012166 
L 170.803794 -61.803722 
L 170.892734 -62.595279 
L 170.977923 -63.386835 
L 171.060225 -64.178392 
L 171.140394 -64.969948 
L 171.219057 -65.761504 
L 171.296686 -66.553061 
L 171.373566 -67.344617 
L 171.449775 -68.136174 
L 171.525155 -68.92773 
L 171.599318 -69.719286 
L 171.671648 -70.510843 
L 171.741341 -71.302399 
L 171.807455 -72.093956 
L 171.868982 -72.885512 
L 171.92493 -73.677068 
L 171.974408 -74.468625 
L 172.016715 -75.260181 
L 172.051403 -76.051737 
L 172.078333 -76.843294 
L 172.097693 -77.63485 
L 172.110003 -78.426407 
L 172.116074 -79.217963 
L 172.116961 -80.009519 
L 172.11389 -80.801076 
L 172.108176 -81.592632 
L 172.101145 -82.384189 
L 172.094064 -83.175745 
L 172.08808 -83.967301 
L 172.084187 -84.758858 
L 172.083202 -85.550414 
L 172.08577 -86.341971 
L 172.092377 -87.133527 
L 172.103374 -87.925083 
L 172.119001 -88.71664 
L 172.13942 -89.508196 
L 172.164721 -90.299753 
L 172.194941 -91.091309 
L 172.230055 -91.882865 
L 172.269973 -92.674422 
L 172.314521 -93.465978 
L 172.363425 -94.257535 
L 172.416308 -95.049091 
L 172.472674 -95.840647 
L 172.531922 -96.632204 
L 172.593355 -97.42376 
L 172.656208 -98.215317 
L 172.719675 -99.006873 
L 172.782947 -99.798429 
L 172.845242 -100.589986 
L 172.905844 -101.381542 
L 172.964123 -102.173099 
L 173.019552 -102.964655 
L 173.930448 -102.964655 
L 173.930448 -102.964655 
L 173.985877 -102.173099 
L 174.044156 -101.381542 
L 174.104758 -100.589986 
L 174.167053 -99.798429 
L 174.230325 -99.006873 
L 174.293792 -98.215317 
L 174.356645 -97.42376 
L 174.418078 -96.632204 
L 174.477326 -95.840647 
L 174.533692 -95.049091 
L 174.586575 -94.257535 
L 174.635479 -93.465978 
L 174.680027 -92.674422 
L 174.719945 -91.882865 
L 174.755059 -91.091309 
L 174.785279 -90.299753 
L 174.81058 -89.508196 
L 174.830999 -88.71664 
L 174.846626 -87.925083 
L 174.857623 -87.133527 
L 174.86423 -86.341971 
L 174.866798 -85.550414 
L 174.865813 -84.758858 
L 174.86192 -83.967301 
L 174.855936 -83.175745 
L 174.848855 -82.384189 
L 174.841824 -81.592632 
L 174.83611 -80.801076 
L 174.833039 -80.009519 
L 174.833926 -79.217963 
L 174.839997 -78.426407 
L 174.852307 -77.63485 
L 174.871667 -76.843294 
L 174.898597 -76.051737 
L 174.933285 -75.260181 
L 174.975592 -74.468625 
L 175.02507 -73.677068 
L 175.081018 -72.885512 
L 175.142545 -72.093956 
L 175.208659 -71.302399 
L 175.278352 -70.510843 
L 175.350682 -69.719286 
L 175.424845 -68.92773 
L 175.500225 -68.136174 
L 175.576434 -67.344617 
L 175.653314 -66.553061 
L 175.730943 -65.761504 
L 175.809606 -64.969948 
L 175.889775 -64.178392 
L 175.972077 -63.386835 
L 176.057266 -62.595279 
L 176.146206 -61.803722 
L 176.239854 -61.012166 
L 176.339251 -60.22061 
L 176.445518 -59.429053 
L 176.55985 -58.637497 
L 176.683498 -57.84594 
L 176.817753 -57.054384 
L 176.963907 -56.262828 
L 177.123201 -55.471271 
L 177.296774 -54.679715 
L 177.485587 -53.888158 
L 177.690357 -53.096602 
L 177.911499 -52.305046 
L 178.149068 -51.513489 
L 178.402734 -50.721933 
L 178.671775 -49.930376 
L 178.955089 -49.13882 
L 179.251234 -48.347264 
L 179.558486 -47.555707 
L 179.874895 -46.764151 
L 180.198355 -45.972594 
L 180.526642 -45.181038 
L 180.857452 -44.389482 
L 181.188393 -43.597925 
L 181.516958 -42.806369 
L 181.840464 -42.014812 
L 182.155972 -41.223256 
L 182.460191 -40.4317 
L 182.749393 -39.640143 
L 183.01934 -38.848587 
L 183.265256 -38.05703 
L 183.481847 -37.265474 
L 183.663381 -36.473918 
L 183.803848 -35.682361 
L 183.897172 -34.890805 
L 183.9375 -34.099248 
L 183.919517 -33.307692 
L 183.838795 -32.516136 
L 183.692136 -31.724579 
L 183.477873 -30.933023 
L 183.196121 -30.141467 
L 182.848936 -29.34991 
L 182.440367 -28.558354 
L 181.9764 -27.766797 
L 181.464776 -26.975241 
L 180.91471 -26.183685 
L 180.336514 -25.392128 
L 179.741156 -24.600572 
z
" id="m636c1162eb" style="stroke:#ffffff;"/>
    </defs>
    <g clip-path="url(#pa934a2e425)">
     <use style="fill:#e7298a;stroke:#ffffff;" x="0" xlink:href="#m636c1162eb" y="155.747837"/>
    </g>
   </g>
   <g id="matplotlib.axis_1">
    <g id="xtick_1">
     <g id="line2d_1">
      <defs>
       <path d="M 0 0 
L 0 -4 
" id="m686cc901c6" style="stroke:#333333;stroke-width:0.8;"/>
      </defs>
      <g>
       <use style="fill:#333333;stroke:#333333;stroke-width:0.8;" x="47.925" xlink:href="#m686cc901c6" y="136.279357"/>
      </g>
     </g>
     <g id="text_1">
      <!-- $m=0$ -->
      <g style="fill:#333333;" transform="translate(33.725 146.93717)">
       <text>
        <tspan style="font-family:DejaVu Sans;font-size:10px;font-style:oblique;font-weight:oblique;" x="0" y="-0.578125">m</tspan>
        <tspan style="font-family:DejaVu Sans;font-size:10px;font-style:book;font-weight:book;" x="11.689453 22.016602" y="-0.578125">=0</tspan>
       </text>
      </g>
      <!-- $\sigma_G/e \leq 2$ -->
      <g style="fill:#333333;" transform="translate(27.825 157.69967)">
       <text>
        <tspan style="font-family:DejaVu Sans;font-size:10px;font-style:oblique;font-weight:oblique;" x="0 15.404785" y="-0.578125">σe</tspan>
        <tspan style="font-family:DejaVu Sans;font-size:7px;font-style:oblique;font-weight:oblique;" x="6.337891" y="1.0625">G</tspan>
        <tspan style="font-family:DejaVu Sans;font-size:10px;font-style:book;font-weight:book;" x="12.035645 23.505371 33.83252" y="-0.578125">/≤2</tspan>
       </text>
      </g>
     </g>
    </g>
    <g id="xtick_2">
     <g id="line2d_2">
      <g>
       <use style="fill:#333333;stroke:#333333;stroke-width:0.8;" x="89.775" xlink:href="#m686cc901c6" y="136.279357"/>
      </g>
     </g>
     <g id="text_2">
      <!-- $m=0$ -->
      <g style="fill:#333333;" transform="translate(75.575 146.93717)">
       <text>
        <tspan style="font-family:DejaVu Sans;font-size:10px;font-style:oblique;font-weight:oblique;" x="0" y="-0.578125">m</tspan>
        <tspan style="font-family:DejaVu Sans;font-size:10px;font-style:book;font-weight:book;" x="11.689453 22.016602" y="-0.578125">=0</tspan>
       </text>
      </g>
      <!-- $\sigma_G/e &gt; 2$ -->
      <g style="fill:#333333;" transform="translate(69.675 157.69967)">
       <text>
        <tspan style="font-family:DejaVu Sans;font-size:10px;font-style:oblique;font-weight:oblique;" x="0 15.404785" y="-0.578125">σe</tspan>
        <tspan style="font-family:DejaVu Sans;font-size:7px;font-style:oblique;font-weight:oblique;" x="6.337891" y="1.0625">G</tspan>
        <tspan style="font-family:DejaVu Sans;font-size:10px;font-style:book;font-weight:book;" x="12.035645 23.505371 33.83252" y="-0.578125">/&gt;2</tspan>
       </text>
      </g>
     </g>
    </g>
    <g id="xtick_3">
     <g id="line2d_3">
      <g>
       <use style="fill:#333333;stroke:#333333;stroke-width:0.8;" x="131.625" xlink:href="#m686cc901c6" y="136.279357"/>
      </g>
     </g>
     <g id="text_3">
      <!-- $m=1$ -->
      <g style="fill:#333333;" transform="translate(117.425 146.93717)">
       <text>
        <tspan style="font-family:DejaVu Sans;font-size:10px;font-style:oblique;font-weight:oblique;" x="0" y="-0.703125">m</tspan>
        <tspan style="font-family:DejaVu Sans;font-size:10px;font-style:book;font-weight:book;" x="11.689453 22.016602" y="-0.703125">=1</tspan>
       </text>
      </g>
      <!-- $\sigma_G/e \leq 2$ -->
      <g style="fill:#333333;" transform="translate(111.525 157.69967)">
       <text>
        <tspan style="font-family:DejaVu Sans;font-size:10px;font-style:oblique;font-weight:oblique;" x="0 15.404785" y="-0.578125">σe</tspan>
        <tspan style="font-family:DejaVu Sans;font-size:7px;font-style:oblique;font-weight:oblique;" x="6.337891" y="1.0625">G</tspan>
        <tspan style="font-family:DejaVu Sans;font-size:10px;font-style:book;font-weight:book;" x="12.035645 23.505371 33.83252" y="-0.578125">/≤2</tspan>
       </text>
      </g>
     </g>
    </g>
    <g id="xtick_4">
     <g id="line2d_4">
      <g>
       <use style="fill:#333333;stroke:#333333;stroke-width:0.8;" x="173.475" xlink:href="#m686cc901c6" y="136.279357"/>
      </g>
     </g>
     <g id="text_4">
      <!-- $m=1$ -->
      <g style="fill:#333333;" transform="translate(159.275 146.93717)">
       <text>
        <tspan style="font-family:DejaVu Sans;font-size:10px;font-style:oblique;font-weight:oblique;" x="0" y="-0.703125">m</tspan>
        <tspan style="font-family:DejaVu Sans;font-size:10px;font-style:book;font-weight:book;" x="11.689453 22.016602" y="-0.703125">=1</tspan>
       </text>
      </g>
      <!-- $\sigma_G/e &gt; 2$ -->
      <g style="fill:#333333;" transform="translate(153.375 157.69967)">
       <text>
        <tspan style="font-family:DejaVu Sans;font-size:10px;font-style:oblique;font-weight:oblique;" x="0 15.404785" y="-0.578125">σe</tspan>
        <tspan style="font-family:DejaVu Sans;font-size:7px;font-style:oblique;font-weight:oblique;" x="6.337891" y="1.0625">G</tspan>
        <tspan style="font-family:DejaVu Sans;font-size:10px;font-style:book;font-weight:book;" x="12.035645 23.505371 33.83252" y="-0.578125">/&gt;2</tspan>
       </text>
      </g>
     </g>
    </g>
   </g>
   <g id="matplotlib.axis_2">
    <g id="ytick_1">
     <g id="line2d_5">
      <defs>
       <path d="M 0 0 
L 4 0 
" id="m51bb883a1a" style="stroke:#333333;stroke-width:0.8;"/>
      </defs>
      <g>
       <use style="fill:#333333;stroke:#333333;stroke-width:0.8;" x="27" xlink:href="#m51bb883a1a" y="131.405176"/>
      </g>
     </g>
     <g id="text_5">
      <text style="fill:#333333;font-family:Arial;font-size:10px;font-style:normal;font-weight:normal;text-anchor:end;" transform="rotate(-0, 23.5, 134.984082)" x="23.5" y="134.984082">0.0</text>
     </g>
    </g>
    <g id="ytick_2">
     <g id="line2d_6">
      <g>
       <use style="fill:#333333;stroke:#333333;stroke-width:0.8;" x="27" xlink:href="#m51bb883a1a" y="100.941545"/>
      </g>
     </g>
     <g id="text_6">
      <text style="fill:#333333;font-family:Arial;font-size:10px;font-style:normal;font-weight:normal;text-anchor:end;" transform="rotate(-0, 23.5, 104.520451)" x="23.5" y="104.520451">0.5</text>
     </g>
    </g>
    <g id="ytick_3">
     <g id="line2d_7">
      <g>
       <use style="fill:#333333;stroke:#333333;stroke-width:0.8;" x="27" xlink:href="#m51bb883a1a" y="70.477914"/>
      </g>
     </g>
     <g id="text_7">
      <text style="fill:#333333;font-family:Arial;font-size:10px;font-style:normal;font-weight:normal;text-anchor:end;" transform="rotate(-0, 23.5, 74.05682)" x="23.5" y="74.05682">1.0</text>
     </g>
    </g>
    <g id="ytick_4">
     <g id="line2d_8">
      <g>
       <use style="fill:#333333;stroke:#333333;stroke-width:0.8;" x="27" xlink:href="#m51bb883a1a" y="40.014282"/>
      </g>
     </g>
     <g id="text_8">
      <text style="fill:#333333;font-family:Arial;font-size:10px;font-style:normal;font-weight:normal;text-anchor:end;" transform="rotate(-0, 23.5, 43.593189)" x="23.5" y="43.593189">1.5</text>
     </g>
    </g>
    <g id="text_9">
     <!-- $p_{G \rightarrow G'}$ -->
     <g style="fill:#333333;" transform="translate(2.66 97.224549)rotate(-90)">
      <text>
       <tspan style="font-family:DejaVu Sans;font-size:14px;font-style:oblique;font-weight:oblique;" x="0" y="-0.15625">p</tspan>
       <tspan style="font-family:DejaVu Sans;font-size:9.8px;font-style:oblique;font-weight:oblique;" x="8.886719 28.510645" y="2.140625">GG</tspan>
       <tspan style="font-family:DejaVu Sans;font-size:9.8px;font-style:book;font-weight:book;" x="18.390039" y="2.140625">→</tspan>
       <tspan style="font-family:cmsy10;font-size:6.86px;font-style:regular;font-weight:regular;" x="36.810339" y="-1.6109375">0</tspan>
      </text>
     </g>
    </g>
   </g>
   <g id="line2d_9">
    <path clip-path="url(#pa934a2e425)" d="M 43.74 96.94336 
L 52.11 96.94336 
" style="fill:none;stroke:#ffffff;stroke-linecap:square;stroke-width:1.2;"/>
   </g>
   <g id="line2d_10">
    <path clip-path="url(#pa934a2e425)" d="M 43.74 67.555212 
L 52.11 67.555212 
" style="fill:none;stroke:#ffffff;stroke-linecap:square;stroke-width:1.2;"/>
   </g>
   <g id="line2d_11">
    <path clip-path="url(#pa934a2e425)" d="M 41.6475 85.321762 
L 54.2025 85.321762 
" style="fill:none;stroke:#ffffff;stroke-linecap:square;stroke-width:1.5;"/>
   </g>
   <g id="line2d_12">
    <path clip-path="url(#pa934a2e425)" d="M 47.925 96.94336 
L 47.925 67.555212 
" style="fill:none;stroke:#ffffff;stroke-linecap:square;"/>
   </g>
   <g id="line2d_13">
    <path clip-path="url(#pa934a2e425)" d="M 85.59 126.324299 
L 93.96 126.324299 
" style="fill:none;stroke:#ffffff;stroke-linecap:square;stroke-width:1.2;"/>
   </g>
   <g id="line2d_14">
    <path clip-path="url(#pa934a2e425)" d="M 85.59 110.032952 
L 93.96 110.032952 
" style="fill:none;stroke:#ffffff;stroke-linecap:square;stroke-width:1.2;"/>
   </g>
   <g id="line2d_15">
    <path clip-path="url(#pa934a2e425)" d="M 83.4975 120.66612 
L 96.0525 120.66612 
" style="fill:none;stroke:#ffffff;stroke-linecap:square;stroke-width:1.5;"/>
   </g>
   <g id="line2d_16">
    <path clip-path="url(#pa934a2e425)" d="M 89.775 126.324299 
L 89.775 110.032952 
" style="fill:none;stroke:#ffffff;stroke-linecap:square;"/>
   </g>
   <g id="line2d_17">
    <path clip-path="url(#pa934a2e425)" d="M 127.44 127.138999 
L 135.81 127.138999 
" style="fill:none;stroke:#ffffff;stroke-linecap:square;stroke-width:1.2;"/>
   </g>
   <g id="line2d_18">
    <path clip-path="url(#pa934a2e425)" d="M 127.44 117.122638 
L 135.81 117.122638 
" style="fill:none;stroke:#ffffff;stroke-linecap:square;stroke-width:1.2;"/>
   </g>
   <g id="line2d_19">
    <path clip-path="url(#pa934a2e425)" d="M 125.3475 122.877455 
L 137.9025 122.877455 
" style="fill:none;stroke:#ffffff;stroke-linecap:square;stroke-width:1.5;"/>
   </g>
   <g id="line2d_20">
    <path clip-path="url(#pa934a2e425)" d="M 131.625 127.138999 
L 131.625 117.122638 
" style="fill:none;stroke:#ffffff;stroke-linecap:square;"/>
   </g>
   <g id="line2d_21">
    <path clip-path="url(#pa934a2e425)" d="M 169.29 124.415618 
L 177.66 124.415618 
" style="fill:none;stroke:#ffffff;stroke-linecap:square;stroke-width:1.2;"/>
   </g>
   <g id="line2d_22">
    <path clip-path="url(#pa934a2e425)" d="M 169.29 103.586836 
L 177.66 103.586836 
" style="fill:none;stroke:#ffffff;stroke-linecap:square;stroke-width:1.2;"/>
   </g>
   <g id="line2d_23">
    <path clip-path="url(#pa934a2e425)" d="M 167.1975 116.658568 
L 179.7525 116.658568 
" style="fill:none;stroke:#ffffff;stroke-linecap:square;stroke-width:1.5;"/>
   </g>
   <g id="line2d_24">
    <path clip-path="url(#pa934a2e425)" d="M 173.475 124.415618 
L 173.475 103.586836 
" style="fill:none;stroke:#ffffff;stroke-linecap:square;"/>
   </g>
   <g id="line2d_25">
    <path clip-path="url(#pa934a2e425)" d="M 56.295 58.292461 
L 85.59 58.292461 
" style="fill:none;stroke:#333333;stroke-linecap:square;stroke-width:1.5;"/>
   </g>
   <g id="line2d_26">
    <path clip-path="url(#pa934a2e425)" d="M 56.295 46.107009 
L 127.44 46.107009 
" style="fill:none;stroke:#333333;stroke-linecap:square;stroke-width:1.5;"/>
   </g>
   <g id="line2d_27">
    <path clip-path="url(#pa934a2e425)" d="M 56.295 33.921556 
L 169.29 33.921556 
" style="fill:none;stroke:#333333;stroke-linecap:square;stroke-width:1.5;"/>
   </g>
   <g id="patch_3">
    <path d="M 27 136.279357 
L 27 18.68974 
" style="fill:none;stroke:#333333;stroke-linecap:square;stroke-linejoin:miter;"/>
   </g>
   <g id="patch_4">
    <path d="M 27 136.279357 
L 194.4 136.279357 
" style="fill:none;stroke:#333333;stroke-linecap:square;stroke-linejoin:miter;"/>
   </g>
   <g id="text_10">
    <text style="fill:#333333;font-family:Arial;font-size:10px;font-style:normal;font-weight:normal;text-anchor:middle;" transform="rotate(-0, 70.9425, 57.683188)" x="70.9425" y="57.683188">***</text>
   </g>
   <g id="text_11">
    <text style="fill:#333333;font-family:Arial;font-size:10px;font-style:normal;font-weight:normal;text-anchor:middle;" transform="rotate(-0, 112.7925, 45.497736)" x="112.7925" y="45.497736">***</text>
   </g>
   <g id="text_12">
    <text style="fill:#333333;font-family:Arial;font-size:10px;font-style:normal;font-weight:normal;text-anchor:middle;" transform="rotate(-0, 154.6425, 33.312283)" x="154.6425" y="33.312283">***</text>
   </g>
  </g>
 </g>
 <defs>
  <clipPath id="pa934a2e425">
   <rect height="117.589617" width="167.4" x="27" y="18.68974"/>
  </clipPath>
 </defs>
</svg>
