<?xml version="1.0" encoding="utf-8" standalone="no"?>
<!DOCTYPE svg PUBLIC "-//W3C//DTD SVG 1.1//EN"
  "http://www.w3.org/Graphics/SVG/1.1/DTD/svg11.dtd">
<!-- Created with matplotlib (http://matplotlib.org/) -->
<svg height="155.747837pt" version="1.1" viewBox="0 0 252 155.747837" width="252pt" xmlns="http://www.w3.org/2000/svg" xmlns:xlink="http://www.w3.org/1999/xlink">
 <defs>
  <style type="text/css">
*{stroke-linecap:butt;stroke-linejoin:round;}
  </style>
 </defs>
 <g id="figure_1">
  <g id="patch_1">
   <path d="M 0 155.747837 
L 252 155.747837 
L 252 0 
L 0 0 
z
" style="fill:#ffffff;"/>
  </g>
  <g id="axes_1">
   <g id="patch_2">
    <path d="M 31.5 136.279357 
L 226.8 136.279357 
L 226.8 18.68974 
L 31.5 18.68974 
z
" style="fill:#ffffff;"/>
   </g>
   <g id="patch_3">
    <path clip-path="url(#pd4fb502559)" d="M 40.377273 130.934375 
L 40.377273 61.919173 
L 46.49953 61.919173 
L 46.49953 130.934375 
z
" style="fill:#666666;opacity:0.8;stroke:#666666;stroke-linejoin:miter;"/>
   </g>
   <g id="patch_4">
    <path clip-path="url(#pd4fb502559)" d="M 40.377273 130.934375 
L 40.377273 127.335941 
L 46.49953 127.335941 
L 46.49953 130.934375 
z
" style="fill:#d95f02;opacity:0.8;stroke:#d95f02;stroke-linejoin:miter;"/>
   </g>
   <g id="patch_5">
    <path clip-path="url(#pd4fb502559)" d="M 46.49953 130.934375 
L 46.49953 38.380564 
L 52.621787 38.380564 
L 52.621787 130.934375 
z
" style="fill:#666666;opacity:0.8;stroke:#666666;stroke-linejoin:miter;"/>
   </g>
   <g id="patch_6">
    <path clip-path="url(#pd4fb502559)" d="M 46.49953 130.934375 
L 46.49953 119.68927 
L 52.621787 119.68927 
L 52.621787 130.934375 
z
" style="fill:#d95f02;opacity:0.8;stroke:#d95f02;stroke-linejoin:miter;"/>
   </g>
   <g id="patch_7">
    <path clip-path="url(#pd4fb502559)" d="M 52.621787 130.934375 
L 52.621787 50.149868 
L 58.744044 50.149868 
L 58.744044 130.934375 
z
" style="fill:#666666;opacity:0.8;stroke:#666666;stroke-linejoin:miter;"/>
   </g>
   <g id="patch_8">
    <path clip-path="url(#pd4fb502559)" d="M 52.621787 130.934375 
L 52.621787 112.942208 
L 58.744044 112.942208 
L 58.744044 130.934375 
z
" style="fill:#d95f02;opacity:0.8;stroke:#d95f02;stroke-linejoin:miter;"/>
   </g>
   <g id="patch_9">
    <path clip-path="url(#pd4fb502559)" d="M 58.744044 130.934375 
L 58.744044 68.415829 
L 64.866301 68.415829 
L 64.866301 130.934375 
z
" style="fill:#666666;opacity:0.8;stroke:#666666;stroke-linejoin:miter;"/>
   </g>
   <g id="patch_10">
    <path clip-path="url(#pd4fb502559)" d="M 58.744044 130.934375 
L 58.744044 118.789662 
L 64.866301 118.789662 
L 64.866301 130.934375 
z
" style="fill:#d95f02;opacity:0.8;stroke:#d95f02;stroke-linejoin:miter;"/>
   </g>
   <g id="patch_11">
    <path clip-path="url(#pd4fb502559)" d="M 64.866301 130.934375 
L 64.866301 100.899109 
L 70.988558 100.899109 
L 70.988558 130.934375 
z
" style="fill:#666666;opacity:0.8;stroke:#666666;stroke-linejoin:miter;"/>
   </g>
   <g id="patch_12">
    <path clip-path="url(#pd4fb502559)" d="M 64.866301 130.934375 
L 64.866301 105.295537 
L 70.988558 105.295537 
L 70.988558 130.934375 
z
" style="fill:#d95f02;opacity:0.8;stroke:#d95f02;stroke-linejoin:miter;"/>
   </g>
   <g id="patch_13">
    <path clip-path="url(#pd4fb502559)" d="M 70.988558 130.934375 
L 70.988558 115.493047 
L 77.110815 115.493047 
L 77.110815 130.934375 
z
" style="fill:#666666;opacity:0.8;stroke:#666666;stroke-linejoin:miter;"/>
   </g>
   <g id="patch_14">
    <path clip-path="url(#pd4fb502559)" d="M 70.988558 130.934375 
L 70.988558 88.652783 
L 77.110815 88.652783 
L 77.110815 130.934375 
z
" style="fill:#d95f02;opacity:0.8;stroke:#d95f02;stroke-linejoin:miter;"/>
   </g>
   <g id="patch_15">
    <path clip-path="url(#pd4fb502559)" d="M 77.110815 130.934375 
L 77.110815 112.480105 
L 83.233072 112.480105 
L 83.233072 130.934375 
z
" style="fill:#666666;opacity:0.8;stroke:#666666;stroke-linejoin:miter;"/>
   </g>
   <g id="patch_16">
    <path clip-path="url(#pd4fb502559)" d="M 77.110815 130.934375 
L 77.110815 107.094754 
L 83.233072 107.094754 
L 83.233072 130.934375 
z
" style="fill:#d95f02;opacity:0.8;stroke:#d95f02;stroke-linejoin:miter;"/>
   </g>
   <g id="patch_17">
    <path clip-path="url(#pd4fb502559)" d="M 83.233072 130.934375 
L 83.233072 121.613085 
L 89.355329 121.613085 
L 89.355329 130.934375 
z
" style="fill:#666666;opacity:0.8;stroke:#666666;stroke-linejoin:miter;"/>
   </g>
   <g id="patch_18">
    <path clip-path="url(#pd4fb502559)" d="M 83.233072 130.934375 
L 83.233072 101.697104 
L 89.355329 101.697104 
L 89.355329 130.934375 
z
" style="fill:#d95f02;opacity:0.8;stroke:#d95f02;stroke-linejoin:miter;"/>
   </g>
   <g id="patch_19">
    <path clip-path="url(#pd4fb502559)" d="M 89.355329 130.934375 
L 89.355329 124.720182 
L 95.477586 124.720182 
L 95.477586 130.934375 
z
" style="fill:#666666;opacity:0.8;stroke:#666666;stroke-linejoin:miter;"/>
   </g>
   <g id="patch_20">
    <path clip-path="url(#pd4fb502559)" d="M 89.355329 130.934375 
L 89.355329 103.49632 
L 95.477586 103.49632 
L 95.477586 130.934375 
z
" style="fill:#d95f02;opacity:0.8;stroke:#d95f02;stroke-linejoin:miter;"/>
   </g>
   <g id="patch_21">
    <path clip-path="url(#pd4fb502559)" d="M 95.477586 130.934375 
L 95.477586 125.285108 
L 101.599843 125.285108 
L 101.599843 130.934375 
z
" style="fill:#666666;opacity:0.8;stroke:#666666;stroke-linejoin:miter;"/>
   </g>
   <g id="patch_22">
    <path clip-path="url(#pd4fb502559)" d="M 95.477586 130.934375 
L 95.477586 97.199062 
L 101.599843 97.199062 
L 101.599843 130.934375 
z
" style="fill:#d95f02;opacity:0.8;stroke:#d95f02;stroke-linejoin:miter;"/>
   </g>
   <g id="patch_23">
    <path clip-path="url(#pd4fb502559)" d="M 101.599843 130.934375 
L 101.599843 123.684483 
L 107.7221 123.684483 
L 107.7221 130.934375 
z
" style="fill:#666666;opacity:0.8;stroke:#666666;stroke-linejoin:miter;"/>
   </g>
   <g id="patch_24">
    <path clip-path="url(#pd4fb502559)" d="M 101.599843 130.934375 
L 101.599843 103.946124 
L 107.7221 103.946124 
L 107.7221 130.934375 
z
" style="fill:#d95f02;opacity:0.8;stroke:#d95f02;stroke-linejoin:miter;"/>
   </g>
   <g id="patch_25">
    <path clip-path="url(#pd4fb502559)" d="M 107.7221 130.934375 
L 107.7221 125.379263 
L 113.844357 125.379263 
L 113.844357 130.934375 
z
" style="fill:#666666;opacity:0.8;stroke:#666666;stroke-linejoin:miter;"/>
   </g>
   <g id="patch_26">
    <path clip-path="url(#pd4fb502559)" d="M 107.7221 130.934375 
L 107.7221 120.588879 
L 113.844357 120.588879 
L 113.844357 130.934375 
z
" style="fill:#d95f02;opacity:0.8;stroke:#d95f02;stroke-linejoin:miter;"/>
   </g>
   <g id="patch_27">
    <path clip-path="url(#pd4fb502559)" d="M 113.844357 130.934375 
L 113.844357 127.450661 
L 119.966614 127.450661 
L 119.966614 130.934375 
z
" style="fill:#666666;opacity:0.8;stroke:#666666;stroke-linejoin:miter;"/>
   </g>
   <g id="patch_28">
    <path clip-path="url(#pd4fb502559)" d="M 113.844357 130.934375 
L 113.844357 119.68927 
L 119.966614 119.68927 
L 119.966614 130.934375 
z
" style="fill:#d95f02;opacity:0.8;stroke:#d95f02;stroke-linejoin:miter;"/>
   </g>
   <g id="patch_29">
    <path clip-path="url(#pd4fb502559)" d="M 119.966614 130.934375 
L 119.966614 123.307865 
L 126.088871 123.307865 
L 126.088871 130.934375 
z
" style="fill:#666666;opacity:0.8;stroke:#666666;stroke-linejoin:miter;"/>
   </g>
   <g id="patch_30">
    <path clip-path="url(#pd4fb502559)" d="M 119.966614 130.934375 
L 119.966614 120.588879 
L 126.088871 120.588879 
L 126.088871 130.934375 
z
" style="fill:#d95f02;opacity:0.8;stroke:#d95f02;stroke-linejoin:miter;"/>
   </g>
   <g id="patch_31">
    <path clip-path="url(#pd4fb502559)" d="M 126.088871 130.934375 
L 126.088871 128.392205 
L 132.211129 128.392205 
L 132.211129 130.934375 
z
" style="fill:#666666;opacity:0.8;stroke:#666666;stroke-linejoin:miter;"/>
   </g>
   <g id="patch_32">
    <path clip-path="url(#pd4fb502559)" d="M 126.088871 130.934375 
L 126.088871 116.540641 
L 132.211129 116.540641 
L 132.211129 130.934375 
z
" style="fill:#d95f02;opacity:0.8;stroke:#d95f02;stroke-linejoin:miter;"/>
   </g>
   <g id="patch_33">
    <path clip-path="url(#pd4fb502559)" d="M 132.211129 130.934375 
L 132.211129 130.369448 
L 138.333386 130.369448 
L 138.333386 130.934375 
z
" style="fill:#666666;opacity:0.8;stroke:#666666;stroke-linejoin:miter;"/>
   </g>
   <g id="patch_34">
    <path clip-path="url(#pd4fb502559)" d="M 132.211129 130.934375 
L 132.211129 94.500237 
L 138.333386 94.500237 
L 138.333386 130.934375 
z
" style="fill:#d95f02;opacity:0.8;stroke:#d95f02;stroke-linejoin:miter;"/>
   </g>
   <g id="patch_35">
    <path clip-path="url(#pd4fb502559)" d="M 138.333386 130.934375 
L 138.333386 130.369448 
L 144.455643 130.369448 
L 144.455643 130.934375 
z
" style="fill:#666666;opacity:0.8;stroke:#666666;stroke-linejoin:miter;"/>
   </g>
   <g id="patch_36">
    <path clip-path="url(#pd4fb502559)" d="M 138.333386 130.934375 
L 138.333386 106.195145 
L 144.455643 106.195145 
L 144.455643 130.934375 
z
" style="fill:#d95f02;opacity:0.8;stroke:#d95f02;stroke-linejoin:miter;"/>
   </g>
   <g id="patch_37">
    <path clip-path="url(#pd4fb502559)" d="M 144.455643 130.934375 
L 144.455643 129.898676 
L 150.5779 129.898676 
L 150.5779 130.934375 
z
" style="fill:#666666;opacity:0.8;stroke:#666666;stroke-linejoin:miter;"/>
   </g>
   <g id="patch_38">
    <path clip-path="url(#pd4fb502559)" d="M 144.455643 130.934375 
L 144.455643 130.034766 
L 150.5779 130.034766 
L 150.5779 130.934375 
z
" style="fill:#d95f02;opacity:0.8;stroke:#d95f02;stroke-linejoin:miter;"/>
   </g>
   <g id="patch_39">
    <path clip-path="url(#pd4fb502559)" d="M 150.5779 130.934375 
L 150.5779 130.746066 
L 156.700157 130.746066 
L 156.700157 130.934375 
z
" style="fill:#666666;opacity:0.8;stroke:#666666;stroke-linejoin:miter;"/>
   </g>
   <g id="patch_40">
    <path clip-path="url(#pd4fb502559)" d="M 150.5779 130.934375 
L 150.5779 121.038683 
L 156.700157 121.038683 
L 156.700157 130.934375 
z
" style="fill:#d95f02;opacity:0.8;stroke:#d95f02;stroke-linejoin:miter;"/>
   </g>
   <g id="patch_41">
    <path clip-path="url(#pd4fb502559)" d="M 156.700157 130.934375 
L 156.700157 130.651911 
L 162.822414 130.651911 
L 162.822414 130.934375 
z
" style="fill:#666666;opacity:0.8;stroke:#666666;stroke-linejoin:miter;"/>
   </g>
   <g id="patch_42">
    <path clip-path="url(#pd4fb502559)" d="M 156.700157 130.934375 
L 156.700157 90.901803 
L 162.822414 90.901803 
L 162.822414 130.934375 
z
" style="fill:#d95f02;opacity:0.8;stroke:#d95f02;stroke-linejoin:miter;"/>
   </g>
   <g id="patch_43">
    <path clip-path="url(#pd4fb502559)" d="M 162.822414 130.934375 
L 162.822414 130.746066 
L 168.944671 130.746066 
L 168.944671 130.934375 
z
" style="fill:#666666;opacity:0.8;stroke:#666666;stroke-linejoin:miter;"/>
   </g>
   <g id="patch_44">
    <path clip-path="url(#pd4fb502559)" d="M 162.822414 130.934375 
L 162.822414 129.584962 
L 168.944671 129.584962 
L 168.944671 130.934375 
z
" style="fill:#d95f02;opacity:0.8;stroke:#d95f02;stroke-linejoin:miter;"/>
   </g>
   <g id="patch_45">
    <path clip-path="url(#pd4fb502559)" d="M 168.944671 130.934375 
L 168.944671 130.934375 
L 175.066928 130.934375 
L 175.066928 130.934375 
z
" style="fill:#666666;opacity:0.8;stroke:#666666;stroke-linejoin:miter;"/>
   </g>
   <g id="patch_46">
    <path clip-path="url(#pd4fb502559)" d="M 168.944671 130.934375 
L 168.944671 130.934375 
L 175.066928 130.934375 
L 175.066928 130.934375 
z
" style="fill:#d95f02;opacity:0.8;stroke:#d95f02;stroke-linejoin:miter;"/>
   </g>
   <g id="patch_47">
    <path clip-path="url(#pd4fb502559)" d="M 175.066928 130.934375 
L 175.066928 130.463602 
L 181.189185 130.463602 
L 181.189185 130.934375 
z
" style="fill:#666666;opacity:0.8;stroke:#666666;stroke-linejoin:miter;"/>
   </g>
   <g id="patch_48">
    <path clip-path="url(#pd4fb502559)" d="M 175.066928 130.934375 
L 175.066928 130.934375 
L 181.189185 130.934375 
L 181.189185 130.934375 
z
" style="fill:#d95f02;opacity:0.8;stroke:#d95f02;stroke-linejoin:miter;"/>
   </g>
   <g id="patch_49">
    <path clip-path="url(#pd4fb502559)" d="M 181.189185 130.934375 
L 181.189185 130.934375 
L 187.311442 130.934375 
L 187.311442 130.934375 
z
" style="fill:#666666;opacity:0.8;stroke:#666666;stroke-linejoin:miter;"/>
   </g>
   <g id="patch_50">
    <path clip-path="url(#pd4fb502559)" d="M 181.189185 130.934375 
L 181.189185 130.034766 
L 187.311442 130.034766 
L 187.311442 130.934375 
z
" style="fill:#d95f02;opacity:0.8;stroke:#d95f02;stroke-linejoin:miter;"/>
   </g>
   <g id="patch_51">
    <path clip-path="url(#pd4fb502559)" d="M 187.311442 130.934375 
L 187.311442 130.934375 
L 193.433699 130.934375 
L 193.433699 130.934375 
z
" style="fill:#666666;opacity:0.8;stroke:#666666;stroke-linejoin:miter;"/>
   </g>
   <g id="patch_52">
    <path clip-path="url(#pd4fb502559)" d="M 187.311442 130.934375 
L 187.311442 128.685354 
L 193.433699 128.685354 
L 193.433699 130.934375 
z
" style="fill:#d95f02;opacity:0.8;stroke:#d95f02;stroke-linejoin:miter;"/>
   </g>
   <g id="patch_53">
    <path clip-path="url(#pd4fb502559)" d="M 193.433699 130.934375 
L 193.433699 130.934375 
L 199.555956 130.934375 
L 199.555956 130.934375 
z
" style="fill:#666666;opacity:0.8;stroke:#666666;stroke-linejoin:miter;"/>
   </g>
   <g id="patch_54">
    <path clip-path="url(#pd4fb502559)" d="M 193.433699 130.934375 
L 193.433699 128.685354 
L 199.555956 128.685354 
L 199.555956 130.934375 
z
" style="fill:#d95f02;opacity:0.8;stroke:#d95f02;stroke-linejoin:miter;"/>
   </g>
   <g id="patch_55">
    <path clip-path="url(#pd4fb502559)" d="M 199.555956 130.934375 
L 199.555956 130.934375 
L 205.678213 130.934375 
L 205.678213 130.934375 
z
" style="fill:#666666;opacity:0.8;stroke:#666666;stroke-linejoin:miter;"/>
   </g>
   <g id="patch_56">
    <path clip-path="url(#pd4fb502559)" d="M 199.555956 130.934375 
L 199.555956 130.934375 
L 205.678213 130.934375 
L 205.678213 130.934375 
z
" style="fill:#d95f02;opacity:0.8;stroke:#d95f02;stroke-linejoin:miter;"/>
   </g>
   <g id="patch_57">
    <path clip-path="url(#pd4fb502559)" d="M 205.678213 130.934375 
L 205.678213 130.746066 
L 211.80047 130.746066 
L 211.80047 130.934375 
z
" style="fill:#666666;opacity:0.8;stroke:#666666;stroke-linejoin:miter;"/>
   </g>
   <g id="patch_58">
    <path clip-path="url(#pd4fb502559)" d="M 205.678213 130.934375 
L 205.678213 130.034766 
L 211.80047 130.034766 
L 211.80047 130.934375 
z
" style="fill:#d95f02;opacity:0.8;stroke:#d95f02;stroke-linejoin:miter;"/>
   </g>
   <g id="patch_59">
    <path clip-path="url(#pd4fb502559)" d="M 211.80047 130.934375 
L 211.80047 130.746066 
L 217.922727 130.746066 
L 217.922727 130.934375 
z
" style="fill:#666666;opacity:0.8;stroke:#666666;stroke-linejoin:miter;"/>
   </g>
   <g id="patch_60">
    <path clip-path="url(#pd4fb502559)" d="M 211.80047 130.934375 
L 211.80047 130.934375 
L 217.922727 130.934375 
L 217.922727 130.934375 
z
" style="fill:#d95f02;opacity:0.8;stroke:#d95f02;stroke-linejoin:miter;"/>
   </g>
   <g id="matplotlib.axis_1">
    <g id="xtick_1">
     <g id="line2d_1">
      <defs>
       <path d="M 0 0 
L 0 -4 
" id="m311dcaede1" style="stroke:#333333;stroke-width:0.8;"/>
      </defs>
      <g>
       <use style="fill:#333333;stroke:#333333;stroke-width:0.8;" x="40.377273" xlink:href="#m311dcaede1" y="136.279357"/>
      </g>
     </g>
     <g id="text_1">
      <text style="fill:#333333;font-family:Arial;font-size:10px;font-style:normal;font-weight:normal;text-anchor:middle;" transform="rotate(-0, 40.377273, 146.93717)" x="40.377273" y="146.93717">0.0</text>
     </g>
    </g>
    <g id="xtick_2">
     <g id="line2d_2">
      <g>
       <use style="fill:#333333;stroke:#333333;stroke-width:0.8;" x="74.195455" xlink:href="#m311dcaede1" y="136.279357"/>
      </g>
     </g>
     <g id="text_2">
      <text style="fill:#333333;font-family:Arial;font-size:10px;font-style:normal;font-weight:normal;text-anchor:middle;" transform="rotate(-0, 74.195455, 146.93717)" x="74.195455" y="146.93717">0.2</text>
     </g>
    </g>
    <g id="xtick_3">
     <g id="line2d_3">
      <g>
       <use style="fill:#333333;stroke:#333333;stroke-width:0.8;" x="108.013636" xlink:href="#m311dcaede1" y="136.279357"/>
      </g>
     </g>
     <g id="text_3">
      <text style="fill:#333333;font-family:Arial;font-size:10px;font-style:normal;font-weight:normal;text-anchor:middle;" transform="rotate(-0, 108.013636, 146.93717)" x="108.013636" y="146.93717">0.4</text>
     </g>
    </g>
    <g id="xtick_4">
     <g id="line2d_4">
      <g>
       <use style="fill:#333333;stroke:#333333;stroke-width:0.8;" x="141.831818" xlink:href="#m311dcaede1" y="136.279357"/>
      </g>
     </g>
     <g id="text_4">
      <text style="fill:#333333;font-family:Arial;font-size:10px;font-style:normal;font-weight:normal;text-anchor:middle;" transform="rotate(-0, 141.831818, 146.93717)" x="141.831818" y="146.93717">0.6</text>
     </g>
    </g>
    <g id="xtick_5">
     <g id="line2d_5">
      <g>
       <use style="fill:#333333;stroke:#333333;stroke-width:0.8;" x="175.65" xlink:href="#m311dcaede1" y="136.279357"/>
      </g>
     </g>
     <g id="text_5">
      <text style="fill:#333333;font-family:Arial;font-size:10px;font-style:normal;font-weight:normal;text-anchor:middle;" transform="rotate(-0, 175.65, 146.93717)" x="175.65" y="146.93717">0.8</text>
     </g>
    </g>
    <g id="xtick_6">
     <g id="line2d_6">
      <g>
       <use style="fill:#333333;stroke:#333333;stroke-width:0.8;" x="209.468182" xlink:href="#m311dcaede1" y="136.279357"/>
      </g>
     </g>
     <g id="text_6">
      <text style="fill:#333333;font-family:Arial;font-size:10px;font-style:normal;font-weight:normal;text-anchor:middle;" transform="rotate(-0, 209.468182, 146.93717)" x="209.468182" y="146.93717">1.0</text>
     </g>
    </g>
    <g id="text_7">
     <text style="fill:#333333;font-family:Arial;font-size:10px;font-style:normal;font-weight:normal;text-anchor:middle;" transform="rotate(-0, 129.15, 160.204357)" x="129.15" y="160.204357">Sharpness of inflexion point</text>
    </g>
   </g>
   <g id="matplotlib.axis_2">
    <g id="ytick_1">
     <g id="line2d_7">
      <defs>
       <path d="M 0 0 
L 4 0 
" id="mf8d93d1883" style="stroke:#333333;stroke-width:0.8;"/>
      </defs>
      <g>
       <use style="fill:#333333;stroke:#333333;stroke-width:0.8;" x="31.5" xlink:href="#mf8d93d1883" y="130.934375"/>
      </g>
     </g>
     <g id="text_8">
      <text style="fill:#333333;font-family:Arial;font-size:10px;font-style:normal;font-weight:normal;text-anchor:end;" transform="rotate(-0, 28, 134.513281)" x="28" y="134.513281">0.0</text>
     </g>
    </g>
    <g id="ytick_2">
     <g id="line2d_8">
      <g>
       <use style="fill:#333333;stroke:#333333;stroke-width:0.8;" x="31.5" xlink:href="#mf8d93d1883" y="88.922665"/>
      </g>
     </g>
     <g id="text_9">
      <text style="fill:#333333;font-family:Arial;font-size:10px;font-style:normal;font-weight:normal;text-anchor:end;" transform="rotate(-0, 28, 92.501571)" x="28" y="92.501571">0.1</text>
     </g>
    </g>
    <g id="ytick_3">
     <g id="line2d_9">
      <g>
       <use style="fill:#333333;stroke:#333333;stroke-width:0.8;" x="31.5" xlink:href="#mf8d93d1883" y="46.910956"/>
      </g>
     </g>
     <g id="text_10">
      <text style="fill:#333333;font-family:Arial;font-size:10px;font-style:normal;font-weight:normal;text-anchor:end;" transform="rotate(-0, 28, 50.489862)" x="28" y="50.489862">0.2</text>
     </g>
    </g>
    <g id="text_11">
     <text style="fill:#333333;font-family:Arial;font-size:10px;font-style:normal;font-weight:normal;text-anchor:middle;" transform="rotate(-90, 8.1125, 77.484549)" x="8.1125" y="77.484549">Fraction of inflexion points</text>
    </g>
   </g>
   <g id="line2d_10">
    <path clip-path="url(#pd4fb502559)" d="M 62.419387 130.934375 
L 62.419387 33.752873 
" style="fill:none;stroke:#666666;stroke-dasharray:1.5,2.475;stroke-dashoffset:0;stroke-width:1.5;"/>
   </g>
   <g id="line2d_11">
    <path clip-path="url(#pd4fb502559)" d="M 104.665023 130.934375 
L 104.665023 33.752873 
" style="fill:none;stroke:#d95f02;stroke-dasharray:1.5,2.475;stroke-dashoffset:0;stroke-width:1.5;"/>
   </g>
   <g id="line2d_12">
    <path clip-path="url(#pd4fb502559)" d="M 62.419387 24.034723 
L 104.665023 24.034723 
" style="fill:none;stroke:#333333;stroke-linecap:square;"/>
   </g>
   <g id="patch_61">
    <path d="M 31.5 136.279357 
L 31.5 18.68974 
" style="fill:none;stroke:#333333;stroke-linecap:square;stroke-linejoin:miter;"/>
   </g>
   <g id="patch_62">
    <path d="M 31.5 136.279357 
L 226.8 136.279357 
" style="fill:none;stroke:#333333;stroke-linecap:square;stroke-linejoin:miter;"/>
   </g>
   <g id="text_12">
    <text style="fill:#333333;font-family:Arial;font-size:14px;font-style:normal;font-weight:normal;text-anchor:middle;" transform="rotate(-0, 83.542205, 22.091093)" x="83.542205" y="22.091093">***</text>
   </g>
   <g id="legend_1">
    <g id="patch_63">
     <path d="M 129.090625 46.074115 
L 219.8 46.074115 
Q 221.8 46.074115 221.8 44.074115 
L 221.8 25.68974 
Q 221.8 23.68974 219.8 23.68974 
L 129.090625 23.68974 
Q 127.090625 23.68974 127.090625 25.68974 
L 127.090625 44.074115 
Q 127.090625 46.074115 129.090625 46.074115 
z
" style="fill:#ffffff;opacity:0.8;stroke:#ffffff;stroke-linejoin:miter;"/>
    </g>
    <g id="text_13">
     <text style="fill:#333333;font-family:Arial;font-size:10px;font-style:normal;font-weight:normal;text-anchor:start;" transform="rotate(-0, 131.090625, 34.969428)" x="131.090625" y="34.969428">Catalytic innovation</text>
    </g>
   </g>
  </g>
 </g>
 <defs>
  <clipPath id="pd4fb502559">
   <rect height="117.589617" width="195.3" x="31.5" y="18.68974"/>
  </clipPath>
 </defs>
</svg>
